G75*
%MOIN*%
%OFA0B0*%
%FSLAX24Y24*%
%IPPOS*%
%LPD*%
%AMOC8*
5,1,8,0,0,1.08239X$1,22.5*
%
%ADD10C,0.0160*%
%ADD11C,0.0040*%
%ADD12C,0.0060*%
%ADD13C,0.0030*%
%ADD14C,0.0080*%
%ADD15C,0.0000*%
%ADD16C,0.0050*%
%ADD17C,0.0120*%
%ADD18C,0.0100*%
%ADD19C,0.0020*%
%ADD20C,0.0010*%
%ADD21R,0.0340X0.0240*%
%ADD22R,0.0240X0.0340*%
D10*
X001017Y000180D02*
X001017Y039550D01*
X020702Y039550D01*
X040387Y039550D01*
X040387Y000180D01*
X020702Y000180D01*
X001017Y000180D01*
D11*
X007787Y002450D02*
X008134Y002450D01*
X007960Y002450D02*
X007960Y002970D01*
X007787Y002797D01*
X008302Y002710D02*
X008302Y002970D01*
X008649Y002970D01*
X008818Y002884D02*
X008905Y002970D01*
X009078Y002970D01*
X009165Y002884D01*
X009165Y002797D01*
X009078Y002710D01*
X009165Y002623D01*
X009165Y002537D01*
X009078Y002450D01*
X008905Y002450D01*
X008818Y002537D01*
X008649Y002537D02*
X008563Y002450D01*
X008389Y002450D01*
X008302Y002537D01*
X008302Y002710D02*
X008476Y002797D01*
X008563Y002797D01*
X008649Y002710D01*
X008649Y002537D01*
X008991Y002710D02*
X009078Y002710D01*
X009334Y002710D02*
X009681Y002710D01*
X009849Y002537D02*
X009849Y002884D01*
X009936Y002970D01*
X010109Y002970D01*
X010196Y002884D01*
X009849Y002537D01*
X009936Y002450D01*
X010109Y002450D01*
X010196Y002537D01*
X010196Y002884D01*
X010365Y002884D02*
X010452Y002970D01*
X010625Y002970D01*
X010712Y002884D01*
X010712Y002797D01*
X010625Y002710D01*
X010712Y002623D01*
X010712Y002537D01*
X010625Y002450D01*
X010452Y002450D01*
X010365Y002537D01*
X010538Y002710D02*
X010625Y002710D01*
X011396Y002450D02*
X011743Y002450D01*
X011912Y002450D02*
X012085Y002450D01*
X011999Y002450D02*
X011999Y002797D01*
X011912Y002797D01*
X011999Y002970D02*
X011999Y003057D01*
X012256Y002797D02*
X012516Y002797D01*
X012603Y002710D01*
X012603Y002450D01*
X012771Y002537D02*
X012858Y002450D01*
X013118Y002450D01*
X013118Y002797D01*
X013287Y002797D02*
X013634Y002450D01*
X013802Y002537D02*
X013889Y002450D01*
X014063Y002450D01*
X014149Y002537D01*
X014318Y002450D02*
X014318Y002970D01*
X014665Y002450D01*
X014665Y002970D01*
X014834Y002884D02*
X014834Y002537D01*
X014920Y002450D01*
X015094Y002450D01*
X015181Y002537D01*
X015181Y002884D02*
X015094Y002970D01*
X014920Y002970D01*
X014834Y002884D01*
X014149Y002884D02*
X014063Y002970D01*
X013889Y002970D01*
X013802Y002884D01*
X013802Y002537D01*
X013634Y002797D02*
X013287Y002450D01*
X012771Y002537D02*
X012771Y002797D01*
X012256Y002797D02*
X012256Y002450D01*
X011396Y002450D02*
X011396Y002970D01*
X013287Y003700D02*
X013287Y004220D01*
X013547Y004220D01*
X013634Y004134D01*
X013634Y003960D01*
X013547Y003873D01*
X013287Y003873D01*
X013460Y003873D02*
X013634Y003700D01*
X013802Y003787D02*
X013802Y003960D01*
X013889Y004047D01*
X014063Y004047D01*
X014149Y003960D01*
X014149Y003873D01*
X013802Y003873D01*
X013802Y003787D02*
X013889Y003700D01*
X014063Y003700D01*
X014491Y003700D02*
X014318Y004047D01*
X014665Y004047D02*
X014491Y003700D01*
X015349Y003700D02*
X015609Y003700D01*
X015696Y003787D01*
X015696Y004134D01*
X015609Y004220D01*
X015349Y004220D01*
X015349Y003700D01*
X015952Y002797D02*
X015865Y002710D01*
X015865Y002537D01*
X015952Y002450D01*
X016125Y002450D01*
X016212Y002537D01*
X016212Y002710D01*
X016125Y002797D01*
X015952Y002797D01*
X016381Y002797D02*
X016381Y002277D01*
X016381Y002450D02*
X016641Y002450D01*
X016728Y002537D01*
X016728Y002710D01*
X016641Y002797D01*
X016381Y002797D01*
X016896Y002797D02*
X017070Y002797D01*
X016983Y002884D02*
X016983Y002537D01*
X017070Y002450D01*
X017240Y002450D02*
X017414Y002450D01*
X017327Y002450D02*
X017327Y002797D01*
X017240Y002797D01*
X017327Y002970D02*
X017327Y003057D01*
X017671Y002797D02*
X017584Y002710D01*
X017584Y002537D01*
X017671Y002450D01*
X017931Y002450D01*
X018099Y002537D02*
X018186Y002623D01*
X018446Y002623D01*
X018446Y002710D02*
X018446Y002450D01*
X018186Y002450D01*
X018099Y002537D01*
X018186Y002797D02*
X018360Y002797D01*
X018446Y002710D01*
X018615Y002450D02*
X018789Y002450D01*
X018702Y002450D02*
X018702Y002970D01*
X018615Y002970D01*
X018959Y002970D02*
X019046Y002970D01*
X019046Y002450D01*
X019132Y002450D02*
X018959Y002450D01*
X019303Y002537D02*
X019389Y002450D01*
X019650Y002450D01*
X019650Y002363D02*
X019650Y002797D01*
X019303Y002797D02*
X019303Y002537D01*
X019476Y002277D02*
X019563Y002277D01*
X019650Y002363D01*
X020334Y002450D02*
X020507Y002450D01*
X020421Y002450D02*
X020421Y002797D01*
X020334Y002797D01*
X020421Y002970D02*
X020421Y003057D01*
X020764Y002797D02*
X020678Y002710D01*
X020764Y002623D01*
X020938Y002623D01*
X021025Y002537D01*
X020938Y002450D01*
X020678Y002450D01*
X020764Y002797D02*
X021025Y002797D01*
X021193Y002710D02*
X021193Y002537D01*
X021280Y002450D01*
X021454Y002450D01*
X021540Y002537D01*
X021540Y002710D01*
X021454Y002797D01*
X021280Y002797D01*
X021193Y002710D01*
X021709Y002450D02*
X021882Y002450D01*
X021796Y002450D02*
X021796Y002970D01*
X021709Y002970D01*
X022139Y002797D02*
X022313Y002797D01*
X022400Y002710D01*
X022400Y002450D01*
X022139Y002450D01*
X022053Y002537D01*
X022139Y002623D01*
X022400Y002623D01*
X022568Y002797D02*
X022742Y002797D01*
X022655Y002884D02*
X022655Y002537D01*
X022742Y002450D01*
X022912Y002537D02*
X022912Y002710D01*
X022999Y002797D01*
X023172Y002797D01*
X023259Y002710D01*
X023259Y002623D01*
X022912Y002623D01*
X022912Y002537D02*
X022999Y002450D01*
X023172Y002450D01*
X023428Y002537D02*
X023428Y002710D01*
X023514Y002797D01*
X023775Y002797D01*
X023775Y002970D02*
X023775Y002450D01*
X023514Y002450D01*
X023428Y002537D01*
X024459Y002450D02*
X024806Y002450D01*
X024975Y002537D02*
X025061Y002450D01*
X025235Y002450D01*
X025322Y002537D01*
X025322Y002623D01*
X025235Y002710D01*
X025061Y002710D01*
X024975Y002797D01*
X024975Y002884D01*
X025061Y002970D01*
X025235Y002970D01*
X025322Y002884D01*
X025490Y002970D02*
X025751Y002970D01*
X025837Y002884D01*
X025837Y002710D01*
X025751Y002623D01*
X025490Y002623D01*
X025490Y002450D02*
X025490Y002970D01*
X025664Y002623D02*
X025837Y002450D01*
X026006Y002450D02*
X026179Y002450D01*
X026093Y002450D02*
X026093Y002970D01*
X026179Y002970D02*
X026006Y002970D01*
X026350Y002884D02*
X026350Y002537D01*
X026436Y002450D01*
X026610Y002450D01*
X026697Y002537D01*
X026697Y002884D01*
X026610Y002970D01*
X026436Y002970D01*
X026350Y002884D01*
X027381Y002797D02*
X027381Y002277D01*
X027381Y002450D02*
X027641Y002450D01*
X027728Y002537D01*
X027728Y002710D01*
X027641Y002797D01*
X027381Y002797D01*
X027897Y002710D02*
X027897Y002537D01*
X027983Y002450D01*
X028157Y002450D01*
X028244Y002537D01*
X028244Y002710D01*
X028157Y002797D01*
X027983Y002797D01*
X027897Y002710D01*
X028412Y002623D02*
X028586Y002797D01*
X028672Y002797D01*
X028842Y002797D02*
X029015Y002797D01*
X028929Y002884D02*
X028929Y002537D01*
X029015Y002450D01*
X029701Y002537D02*
X029701Y002710D01*
X029788Y002797D01*
X029962Y002797D01*
X030048Y002710D01*
X030048Y002623D01*
X029701Y002623D01*
X029701Y002537D02*
X029788Y002450D01*
X029962Y002450D01*
X030217Y002450D02*
X030564Y002797D01*
X030733Y002797D02*
X030993Y002797D01*
X031080Y002710D01*
X031080Y002537D01*
X030993Y002450D01*
X030733Y002450D01*
X030564Y002450D02*
X030217Y002797D01*
X030733Y002797D02*
X030733Y002277D01*
X031248Y002537D02*
X031335Y002623D01*
X031595Y002623D01*
X031595Y002710D02*
X031595Y002450D01*
X031335Y002450D01*
X031248Y002537D01*
X031335Y002797D02*
X031508Y002797D01*
X031595Y002710D01*
X031764Y002797D02*
X032024Y002797D01*
X032111Y002710D01*
X032111Y002450D01*
X032280Y002537D02*
X032280Y002710D01*
X032366Y002797D01*
X032627Y002797D01*
X032627Y002970D02*
X032627Y002450D01*
X032366Y002450D01*
X032280Y002537D01*
X032795Y002537D02*
X032795Y002710D01*
X032882Y002797D01*
X033055Y002797D01*
X033142Y002710D01*
X033142Y002623D01*
X032795Y002623D01*
X032795Y002537D02*
X032882Y002450D01*
X033055Y002450D01*
X033311Y002450D02*
X033311Y002797D01*
X033484Y002797D02*
X033311Y002623D01*
X033484Y002797D02*
X033571Y002797D01*
X031764Y002797D02*
X031764Y002450D01*
X028412Y002450D02*
X028412Y002797D01*
X024459Y002970D02*
X024459Y002450D01*
X021884Y003700D02*
X021537Y003700D01*
X021368Y003700D02*
X021021Y003700D01*
X021195Y003700D02*
X021195Y004220D01*
X021021Y004047D01*
X020853Y003960D02*
X020506Y003960D01*
X020337Y004134D02*
X019990Y003787D01*
X019990Y003700D01*
X019821Y003787D02*
X019821Y004134D01*
X019474Y003787D01*
X019561Y003700D01*
X019735Y003700D01*
X019821Y003787D01*
X019474Y003787D02*
X019474Y004134D01*
X019561Y004220D01*
X019735Y004220D01*
X019821Y004134D01*
X019990Y004220D02*
X020337Y004220D01*
X020337Y004134D01*
X019306Y003960D02*
X018959Y003960D01*
X018790Y003960D02*
X018443Y003960D01*
X018703Y004220D01*
X018703Y003700D01*
X018274Y003700D02*
X017927Y003700D01*
X018274Y004047D01*
X018274Y004134D01*
X018188Y004220D01*
X018014Y004220D01*
X017927Y004134D01*
X017759Y004134D02*
X017759Y003787D01*
X017672Y003700D01*
X017499Y003700D01*
X017412Y003787D01*
X017759Y004134D01*
X017672Y004220D01*
X017499Y004220D01*
X017412Y004134D01*
X017412Y003787D01*
X017243Y003700D02*
X016896Y003700D01*
X017243Y004047D01*
X017243Y004134D01*
X017156Y004220D01*
X016983Y004220D01*
X016896Y004134D01*
X017671Y002797D02*
X017931Y002797D01*
X021537Y004047D02*
X021710Y004220D01*
X021710Y003700D01*
X011847Y006550D02*
X011770Y006550D01*
X011463Y006857D01*
X011386Y006857D01*
X011386Y006550D01*
X011616Y007010D02*
X011386Y007241D01*
X011847Y007241D01*
X011847Y007471D02*
X011386Y007471D01*
X011616Y007471D02*
X011616Y007778D01*
X011463Y007931D02*
X011770Y007931D01*
X011847Y008008D01*
X011847Y008161D01*
X011770Y008238D01*
X011847Y008392D02*
X011540Y008698D01*
X011463Y008698D01*
X011386Y008622D01*
X011386Y008468D01*
X011463Y008392D01*
X011463Y008238D02*
X011386Y008161D01*
X011386Y008008D01*
X011463Y007931D01*
X011386Y007778D02*
X011847Y007778D01*
X011616Y007317D02*
X011616Y007010D01*
X011847Y008392D02*
X011847Y008698D01*
X011616Y008852D02*
X011616Y009159D01*
X011463Y009312D02*
X011386Y009389D01*
X011386Y009543D01*
X011463Y009619D01*
X011770Y009312D01*
X011847Y009389D01*
X011847Y009543D01*
X011770Y009619D01*
X011463Y009619D01*
X011386Y009773D02*
X011847Y010080D01*
X011386Y010080D01*
X011386Y009773D02*
X011847Y009773D01*
X011770Y009312D02*
X011463Y009312D01*
X011386Y009082D02*
X011616Y008852D01*
X011847Y009082D02*
X011386Y009082D01*
X011386Y019350D02*
X011386Y019657D01*
X011463Y019657D01*
X011770Y019350D01*
X011847Y019350D01*
X011616Y019810D02*
X011616Y020117D01*
X011616Y020271D02*
X011616Y020578D01*
X011463Y020731D02*
X011386Y020808D01*
X011386Y020961D01*
X011463Y021038D01*
X011463Y021192D02*
X011386Y021268D01*
X011386Y021422D01*
X011463Y021498D01*
X011540Y021498D01*
X011847Y021192D01*
X011847Y021498D01*
X011616Y021652D02*
X011616Y021959D01*
X011463Y022112D02*
X011386Y022189D01*
X011386Y022343D01*
X011463Y022419D01*
X011770Y022112D01*
X011847Y022189D01*
X011847Y022343D01*
X011770Y022419D01*
X011463Y022419D01*
X011386Y022573D02*
X011847Y022880D01*
X011386Y022880D01*
X011386Y022573D02*
X011847Y022573D01*
X011770Y022112D02*
X011463Y022112D01*
X011386Y021882D02*
X011616Y021652D01*
X011847Y021882D02*
X011386Y021882D01*
X011770Y021038D02*
X011847Y020961D01*
X011847Y020808D01*
X011770Y020731D01*
X011463Y020731D01*
X011386Y020578D02*
X011847Y020578D01*
X011847Y020271D02*
X011386Y020271D01*
X011386Y020041D02*
X011616Y019810D01*
X011386Y020041D02*
X011847Y020041D01*
X013190Y038200D02*
X013344Y038353D01*
X013344Y038660D01*
X013497Y038507D02*
X013497Y038200D01*
X013497Y038430D02*
X013804Y038430D01*
X013804Y038507D02*
X013804Y038200D01*
X013957Y038430D02*
X014264Y038430D01*
X014418Y038277D02*
X014725Y038584D01*
X014725Y038277D01*
X014648Y038200D01*
X014495Y038200D01*
X014418Y038277D01*
X014418Y038584D01*
X014495Y038660D01*
X014648Y038660D01*
X014725Y038584D01*
X014878Y038660D02*
X014878Y038430D01*
X015032Y038507D01*
X015108Y038507D01*
X015185Y038430D01*
X015185Y038277D01*
X015108Y038200D01*
X014955Y038200D01*
X014878Y038277D01*
X014878Y038660D02*
X015185Y038660D01*
X015339Y038584D02*
X015415Y038660D01*
X015569Y038660D01*
X015646Y038584D01*
X015339Y038277D01*
X015415Y038200D01*
X015569Y038200D01*
X015646Y038277D01*
X015646Y038584D01*
X015799Y038660D02*
X015799Y038430D01*
X015952Y038507D01*
X016029Y038507D01*
X016106Y038430D01*
X016106Y038277D01*
X016029Y038200D01*
X015876Y038200D01*
X015799Y038277D01*
X015799Y038660D02*
X016106Y038660D01*
X016259Y038584D02*
X016259Y038507D01*
X016336Y038430D01*
X016490Y038430D01*
X016566Y038353D01*
X016566Y038277D01*
X016490Y038200D01*
X016336Y038200D01*
X016259Y038277D01*
X016259Y038584D02*
X016336Y038660D01*
X016490Y038660D01*
X016566Y038584D01*
X015339Y038584D02*
X015339Y038277D01*
X013804Y038507D02*
X013651Y038660D01*
X013497Y038507D01*
X013190Y038200D02*
X013037Y038353D01*
X013037Y038660D01*
D12*
X013117Y036630D02*
X014417Y036630D01*
X014443Y036628D01*
X014469Y036623D01*
X014494Y036615D01*
X014517Y036603D01*
X014539Y036589D01*
X014558Y036571D01*
X014576Y036552D01*
X014590Y036530D01*
X014602Y036507D01*
X014610Y036482D01*
X014615Y036456D01*
X014617Y036430D01*
X014617Y035930D01*
X014615Y035904D01*
X014610Y035878D01*
X014602Y035853D01*
X014590Y035830D01*
X014576Y035808D01*
X014558Y035789D01*
X014539Y035771D01*
X014517Y035757D01*
X014494Y035745D01*
X014469Y035737D01*
X014443Y035732D01*
X014417Y035730D01*
X013117Y035730D01*
X013091Y035732D01*
X013065Y035737D01*
X013040Y035745D01*
X013017Y035757D01*
X012995Y035771D01*
X012976Y035789D01*
X012958Y035808D01*
X012944Y035830D01*
X012932Y035853D01*
X012924Y035878D01*
X012919Y035904D01*
X012917Y035930D01*
X012917Y036430D01*
X012919Y036456D01*
X012924Y036482D01*
X012932Y036507D01*
X012944Y036530D01*
X012958Y036552D01*
X012976Y036571D01*
X012995Y036589D01*
X013017Y036603D01*
X013040Y036615D01*
X013065Y036623D01*
X013091Y036628D01*
X013117Y036630D01*
X010417Y037930D02*
X010419Y037975D01*
X010424Y038021D01*
X010432Y038065D01*
X010444Y038109D01*
X010460Y038152D01*
X010478Y038194D01*
X010500Y038234D01*
X010524Y038272D01*
X010551Y038308D01*
X010581Y038343D01*
X010614Y038374D01*
X010649Y038404D01*
X011617Y037930D02*
X011615Y037883D01*
X011609Y037835D01*
X011600Y037789D01*
X011587Y037743D01*
X011571Y037699D01*
X011550Y037655D01*
X011527Y037614D01*
X011501Y037575D01*
X011471Y037538D01*
X011438Y037503D01*
X011403Y037471D01*
X011366Y037442D01*
X011617Y037930D02*
X011615Y037976D01*
X011610Y038022D01*
X011601Y038068D01*
X011589Y038113D01*
X011573Y038156D01*
X011554Y038198D01*
X011531Y038239D01*
X011506Y038278D01*
X011478Y038314D01*
X011447Y038349D01*
X011413Y038381D01*
X011377Y038410D01*
X010417Y037930D02*
X010419Y037885D01*
X010424Y037839D01*
X010432Y037795D01*
X010444Y037751D01*
X010460Y037708D01*
X010478Y037666D01*
X010500Y037626D01*
X010524Y037588D01*
X010551Y037552D01*
X010581Y037517D01*
X010614Y037486D01*
X010649Y037456D01*
X009967Y037030D02*
X009967Y038330D01*
X009965Y038356D01*
X009960Y038382D01*
X009952Y038407D01*
X009940Y038430D01*
X009926Y038452D01*
X009908Y038471D01*
X009889Y038489D01*
X009867Y038503D01*
X009844Y038515D01*
X009819Y038523D01*
X009793Y038528D01*
X009767Y038530D01*
X009267Y038530D01*
X009241Y038528D01*
X009215Y038523D01*
X009190Y038515D01*
X009167Y038503D01*
X009145Y038489D01*
X009126Y038471D01*
X009108Y038452D01*
X009094Y038430D01*
X009082Y038407D01*
X009074Y038382D01*
X009069Y038356D01*
X009067Y038330D01*
X009067Y037030D01*
X009069Y037004D01*
X009074Y036978D01*
X009082Y036953D01*
X009094Y036930D01*
X009108Y036908D01*
X009126Y036889D01*
X009145Y036871D01*
X009167Y036857D01*
X009190Y036845D01*
X009215Y036837D01*
X009241Y036832D01*
X009267Y036830D01*
X009767Y036830D01*
X009793Y036832D01*
X009819Y036837D01*
X009844Y036845D01*
X009867Y036857D01*
X009889Y036871D01*
X009908Y036889D01*
X009926Y036908D01*
X009940Y036930D01*
X009952Y036953D01*
X009960Y036978D01*
X009965Y037004D01*
X009967Y037030D01*
X009767Y035930D02*
X009517Y035680D01*
X009517Y035180D01*
X009767Y034930D01*
X010267Y034930D01*
X010517Y035180D01*
X010517Y035680D01*
X010267Y035930D01*
X009767Y035930D01*
X010767Y034130D02*
X010717Y034080D01*
X008817Y034080D01*
X008767Y034130D01*
X008617Y034130D01*
X008600Y034128D01*
X008583Y034124D01*
X008567Y034117D01*
X008553Y034107D01*
X008540Y034094D01*
X008530Y034080D01*
X008523Y034064D01*
X008519Y034047D01*
X008517Y034030D01*
X008517Y033330D01*
X008519Y033313D01*
X008523Y033296D01*
X008530Y033280D01*
X008540Y033266D01*
X008553Y033253D01*
X008567Y033243D01*
X008583Y033236D01*
X008600Y033232D01*
X008617Y033230D01*
X008767Y033230D01*
X008817Y033280D01*
X010717Y033280D01*
X010767Y033230D01*
X010917Y033230D01*
X010934Y033232D01*
X010951Y033236D01*
X010967Y033243D01*
X010981Y033253D01*
X010994Y033266D01*
X011004Y033280D01*
X011011Y033296D01*
X011015Y033313D01*
X011017Y033330D01*
X011017Y034030D01*
X011015Y034047D01*
X011011Y034064D01*
X011004Y034080D01*
X010994Y034094D01*
X010981Y034107D01*
X010967Y034117D01*
X010951Y034124D01*
X010934Y034128D01*
X010917Y034130D01*
X010767Y034130D01*
X010767Y033130D02*
X010717Y033080D01*
X008817Y033080D01*
X008767Y033130D01*
X008617Y033130D01*
X008600Y033128D01*
X008583Y033124D01*
X008567Y033117D01*
X008553Y033107D01*
X008540Y033094D01*
X008530Y033080D01*
X008523Y033064D01*
X008519Y033047D01*
X008517Y033030D01*
X008517Y032330D01*
X008519Y032313D01*
X008523Y032296D01*
X008530Y032280D01*
X008540Y032266D01*
X008553Y032253D01*
X008567Y032243D01*
X008583Y032236D01*
X008600Y032232D01*
X008617Y032230D01*
X008767Y032230D01*
X008817Y032280D01*
X010717Y032280D01*
X010767Y032230D01*
X010917Y032230D01*
X010934Y032232D01*
X010951Y032236D01*
X010967Y032243D01*
X010981Y032253D01*
X010994Y032266D01*
X011004Y032280D01*
X011011Y032296D01*
X011015Y032313D01*
X011017Y032330D01*
X011017Y033030D01*
X011015Y033047D01*
X011011Y033064D01*
X011004Y033080D01*
X010994Y033094D01*
X010981Y033107D01*
X010967Y033117D01*
X010951Y033124D01*
X010934Y033128D01*
X010917Y033130D01*
X010767Y033130D01*
X010767Y032130D02*
X010717Y032080D01*
X008817Y032080D01*
X008767Y032130D01*
X008617Y032130D01*
X008600Y032128D01*
X008583Y032124D01*
X008567Y032117D01*
X008553Y032107D01*
X008540Y032094D01*
X008530Y032080D01*
X008523Y032064D01*
X008519Y032047D01*
X008517Y032030D01*
X008517Y031330D01*
X008519Y031313D01*
X008523Y031296D01*
X008530Y031280D01*
X008540Y031266D01*
X008553Y031253D01*
X008567Y031243D01*
X008583Y031236D01*
X008600Y031232D01*
X008617Y031230D01*
X008767Y031230D01*
X008817Y031280D01*
X010717Y031280D01*
X010767Y031230D01*
X010917Y031230D01*
X010934Y031232D01*
X010951Y031236D01*
X010967Y031243D01*
X010981Y031253D01*
X010994Y031266D01*
X011004Y031280D01*
X011011Y031296D01*
X011015Y031313D01*
X011017Y031330D01*
X011017Y032030D01*
X011015Y032047D01*
X011011Y032064D01*
X011004Y032080D01*
X010994Y032094D01*
X010981Y032107D01*
X010967Y032117D01*
X010951Y032124D01*
X010934Y032128D01*
X010917Y032130D01*
X010767Y032130D01*
X010767Y031130D02*
X010717Y031080D01*
X008817Y031080D01*
X008767Y031130D01*
X008617Y031130D01*
X008600Y031128D01*
X008583Y031124D01*
X008567Y031117D01*
X008553Y031107D01*
X008540Y031094D01*
X008530Y031080D01*
X008523Y031064D01*
X008519Y031047D01*
X008517Y031030D01*
X008517Y030330D01*
X008519Y030313D01*
X008523Y030296D01*
X008530Y030280D01*
X008540Y030266D01*
X008553Y030253D01*
X008567Y030243D01*
X008583Y030236D01*
X008600Y030232D01*
X008617Y030230D01*
X008767Y030230D01*
X008817Y030280D01*
X010717Y030280D01*
X010767Y030230D01*
X010917Y030230D01*
X010934Y030232D01*
X010951Y030236D01*
X010967Y030243D01*
X010981Y030253D01*
X010994Y030266D01*
X011004Y030280D01*
X011011Y030296D01*
X011015Y030313D01*
X011017Y030330D01*
X011017Y031030D01*
X011015Y031047D01*
X011011Y031064D01*
X011004Y031080D01*
X010994Y031094D01*
X010981Y031107D01*
X010967Y031117D01*
X010951Y031124D01*
X010934Y031128D01*
X010917Y031130D01*
X010767Y031130D01*
X010417Y030130D02*
X009117Y030130D01*
X009091Y030128D01*
X009065Y030123D01*
X009040Y030115D01*
X009017Y030103D01*
X008995Y030089D01*
X008976Y030071D01*
X008958Y030052D01*
X008944Y030030D01*
X008932Y030007D01*
X008924Y029982D01*
X008919Y029956D01*
X008917Y029930D01*
X008917Y029430D01*
X008919Y029404D01*
X008924Y029378D01*
X008932Y029353D01*
X008944Y029330D01*
X008958Y029308D01*
X008976Y029289D01*
X008995Y029271D01*
X009017Y029257D01*
X009040Y029245D01*
X009065Y029237D01*
X009091Y029232D01*
X009117Y029230D01*
X010417Y029230D01*
X010443Y029232D01*
X010469Y029237D01*
X010494Y029245D01*
X010517Y029257D01*
X010539Y029271D01*
X010558Y029289D01*
X010576Y029308D01*
X010590Y029330D01*
X010602Y029353D01*
X010610Y029378D01*
X010615Y029404D01*
X010617Y029430D01*
X010617Y029930D01*
X010615Y029956D01*
X010610Y029982D01*
X010602Y030007D01*
X010590Y030030D01*
X010576Y030052D01*
X010558Y030071D01*
X010539Y030089D01*
X010517Y030103D01*
X010494Y030115D01*
X010469Y030123D01*
X010443Y030128D01*
X010417Y030130D01*
X010567Y028180D02*
X012867Y028180D01*
X012867Y018180D01*
X012117Y018180D01*
X012115Y018219D01*
X012109Y018258D01*
X012100Y018296D01*
X012087Y018333D01*
X012070Y018369D01*
X012050Y018402D01*
X012026Y018434D01*
X012000Y018463D01*
X011971Y018489D01*
X011939Y018513D01*
X011906Y018533D01*
X011870Y018550D01*
X011833Y018563D01*
X011795Y018572D01*
X011756Y018578D01*
X011717Y018580D01*
X011678Y018578D01*
X011639Y018572D01*
X011601Y018563D01*
X011564Y018550D01*
X011528Y018533D01*
X011495Y018513D01*
X011463Y018489D01*
X011434Y018463D01*
X011408Y018434D01*
X011384Y018402D01*
X011364Y018369D01*
X011347Y018333D01*
X011334Y018296D01*
X011325Y018258D01*
X011319Y018219D01*
X011317Y018180D01*
X010567Y018180D01*
X010567Y028180D01*
X008767Y027180D02*
X008767Y026680D01*
X008867Y026680D01*
X008867Y026180D01*
X008767Y026180D01*
X008767Y023430D01*
X008867Y023430D01*
X008867Y022930D01*
X008767Y022930D01*
X008767Y020180D01*
X008867Y020180D01*
X008867Y019680D01*
X008767Y019680D01*
X008767Y019180D01*
X005267Y019180D01*
X005267Y021030D01*
X005467Y021180D01*
X005467Y021380D01*
X005467Y021980D01*
X005467Y022180D01*
X005267Y022330D01*
X005267Y022380D01*
X005667Y022380D01*
X005767Y022380D01*
X005767Y021980D01*
X005767Y021380D01*
X005667Y021380D01*
X005467Y021380D01*
X005767Y021380D02*
X005767Y019680D01*
X008267Y019680D01*
X008267Y026680D01*
X005767Y026680D01*
X005767Y023980D01*
X005667Y023980D01*
X005267Y023980D01*
X005267Y024930D01*
X005317Y024930D01*
X005317Y025430D01*
X005267Y025430D01*
X005267Y027180D01*
X008767Y027180D01*
X008517Y027680D02*
X008267Y027430D01*
X007767Y027430D01*
X007517Y027680D01*
X007517Y028180D01*
X007767Y028430D01*
X008267Y028430D01*
X008517Y028180D01*
X008517Y027680D01*
X006067Y023980D02*
X005767Y023980D01*
X006067Y023980D02*
X006067Y022380D01*
X005767Y022380D01*
X005767Y021980D02*
X005667Y021980D01*
X005467Y021980D01*
X005267Y022380D02*
X005267Y023980D01*
X001697Y023910D02*
X001697Y023810D01*
X001597Y023710D01*
X001697Y023610D01*
X001697Y023510D01*
X001597Y023410D01*
X001397Y023410D01*
X001297Y023510D01*
X001497Y023710D02*
X001597Y023710D01*
X001697Y023910D02*
X001597Y024011D01*
X001397Y024011D01*
X001297Y023910D01*
X001297Y024400D02*
X001697Y024800D01*
X001697Y024900D01*
X001597Y025001D01*
X001397Y025001D01*
X001297Y024900D01*
X001297Y025390D02*
X001697Y025390D01*
X001497Y025390D02*
X001497Y025991D01*
X001297Y025790D01*
X001397Y026380D02*
X001297Y026480D01*
X001697Y026880D01*
X001697Y026480D01*
X001597Y026380D01*
X001397Y026380D01*
X001297Y026480D02*
X001297Y026880D01*
X001397Y026981D01*
X001597Y026981D01*
X001697Y026880D01*
X001597Y027370D02*
X001697Y027470D01*
X001697Y027670D01*
X001497Y027670D01*
X001297Y027870D02*
X001297Y027470D01*
X001397Y027370D01*
X001597Y027370D01*
X001904Y027370D02*
X001904Y027971D01*
X002305Y027370D01*
X002305Y027971D01*
X002512Y027971D02*
X002812Y027971D01*
X002912Y027870D01*
X002912Y027470D01*
X002812Y027370D01*
X002512Y027370D01*
X002512Y027971D01*
X001697Y027870D02*
X001597Y027971D01*
X001397Y027971D01*
X001297Y027870D01*
X001584Y030430D02*
X003887Y029930D01*
X003887Y031430D02*
X001584Y030930D01*
X001584Y030430D01*
X001584Y032930D02*
X003887Y032430D01*
X003887Y033930D02*
X001584Y033430D01*
X001584Y032930D01*
X002423Y036794D02*
X002425Y036867D01*
X002431Y036940D01*
X002441Y037012D01*
X002455Y037084D01*
X002472Y037155D01*
X002494Y037225D01*
X002519Y037294D01*
X002548Y037361D01*
X002580Y037426D01*
X002616Y037490D01*
X002656Y037552D01*
X002698Y037611D01*
X002744Y037668D01*
X002793Y037722D01*
X002845Y037774D01*
X002899Y037823D01*
X002956Y037869D01*
X003015Y037911D01*
X003077Y037951D01*
X003141Y037987D01*
X003206Y038019D01*
X003273Y038048D01*
X003342Y038073D01*
X003412Y038095D01*
X003483Y038112D01*
X003555Y038126D01*
X003627Y038136D01*
X003700Y038142D01*
X003773Y038144D01*
X003846Y038142D01*
X003919Y038136D01*
X003991Y038126D01*
X004063Y038112D01*
X004134Y038095D01*
X004204Y038073D01*
X004273Y038048D01*
X004340Y038019D01*
X004405Y037987D01*
X004469Y037951D01*
X004531Y037911D01*
X004590Y037869D01*
X004647Y037823D01*
X004701Y037774D01*
X004753Y037722D01*
X004802Y037668D01*
X004848Y037611D01*
X004890Y037552D01*
X004930Y037490D01*
X004966Y037426D01*
X004998Y037361D01*
X005027Y037294D01*
X005052Y037225D01*
X005074Y037155D01*
X005091Y037084D01*
X005105Y037012D01*
X005115Y036940D01*
X005121Y036867D01*
X005123Y036794D01*
X005121Y036721D01*
X005115Y036648D01*
X005105Y036576D01*
X005091Y036504D01*
X005074Y036433D01*
X005052Y036363D01*
X005027Y036294D01*
X004998Y036227D01*
X004966Y036162D01*
X004930Y036098D01*
X004890Y036036D01*
X004848Y035977D01*
X004802Y035920D01*
X004753Y035866D01*
X004701Y035814D01*
X004647Y035765D01*
X004590Y035719D01*
X004531Y035677D01*
X004469Y035637D01*
X004405Y035601D01*
X004340Y035569D01*
X004273Y035540D01*
X004204Y035515D01*
X004134Y035493D01*
X004063Y035476D01*
X003991Y035462D01*
X003919Y035452D01*
X003846Y035446D01*
X003773Y035444D01*
X003700Y035446D01*
X003627Y035452D01*
X003555Y035462D01*
X003483Y035476D01*
X003412Y035493D01*
X003342Y035515D01*
X003273Y035540D01*
X003206Y035569D01*
X003141Y035601D01*
X003077Y035637D01*
X003015Y035677D01*
X002956Y035719D01*
X002899Y035765D01*
X002845Y035814D01*
X002793Y035866D01*
X002744Y035920D01*
X002698Y035977D01*
X002656Y036036D01*
X002616Y036098D01*
X002580Y036162D01*
X002548Y036227D01*
X002519Y036294D01*
X002494Y036363D01*
X002472Y036433D01*
X002455Y036504D01*
X002441Y036576D01*
X002431Y036648D01*
X002425Y036721D01*
X002423Y036794D01*
X005917Y037880D02*
X006217Y037880D01*
X006067Y037730D02*
X006067Y038030D01*
X005667Y037430D02*
X005669Y037510D01*
X005675Y037589D01*
X005685Y037668D01*
X005699Y037747D01*
X005716Y037825D01*
X005738Y037902D01*
X005763Y037977D01*
X005793Y038051D01*
X005825Y038124D01*
X005862Y038195D01*
X005902Y038264D01*
X005945Y038331D01*
X005992Y038396D01*
X006041Y038458D01*
X006094Y038518D01*
X006150Y038575D01*
X006208Y038630D01*
X006269Y038681D01*
X006333Y038729D01*
X006399Y038774D01*
X006467Y038816D01*
X006537Y038854D01*
X006609Y038888D01*
X006682Y038919D01*
X006757Y038947D01*
X006834Y038970D01*
X006911Y038990D01*
X006989Y039006D01*
X007068Y039018D01*
X007147Y039026D01*
X007227Y039030D01*
X007307Y039030D01*
X007387Y039026D01*
X007466Y039018D01*
X007545Y039006D01*
X007623Y038990D01*
X007700Y038970D01*
X007777Y038947D01*
X007852Y038919D01*
X007925Y038888D01*
X007997Y038854D01*
X008067Y038816D01*
X008135Y038774D01*
X008201Y038729D01*
X008265Y038681D01*
X008326Y038630D01*
X008384Y038575D01*
X008440Y038518D01*
X008493Y038458D01*
X008542Y038396D01*
X008589Y038331D01*
X008632Y038264D01*
X008672Y038195D01*
X008709Y038124D01*
X008741Y038051D01*
X008771Y037977D01*
X008796Y037902D01*
X008818Y037825D01*
X008835Y037747D01*
X008849Y037668D01*
X008859Y037589D01*
X008865Y037510D01*
X008867Y037430D01*
X008865Y037350D01*
X008859Y037271D01*
X008849Y037192D01*
X008835Y037113D01*
X008818Y037035D01*
X008796Y036958D01*
X008771Y036883D01*
X008741Y036809D01*
X008709Y036736D01*
X008672Y036665D01*
X008632Y036596D01*
X008589Y036529D01*
X008542Y036464D01*
X008493Y036402D01*
X008440Y036342D01*
X008384Y036285D01*
X008326Y036230D01*
X008265Y036179D01*
X008201Y036131D01*
X008135Y036086D01*
X008067Y036044D01*
X007997Y036006D01*
X007925Y035972D01*
X007852Y035941D01*
X007777Y035913D01*
X007700Y035890D01*
X007623Y035870D01*
X007545Y035854D01*
X007466Y035842D01*
X007387Y035834D01*
X007307Y035830D01*
X007227Y035830D01*
X007147Y035834D01*
X007068Y035842D01*
X006989Y035854D01*
X006911Y035870D01*
X006834Y035890D01*
X006757Y035913D01*
X006682Y035941D01*
X006609Y035972D01*
X006537Y036006D01*
X006467Y036044D01*
X006399Y036086D01*
X006333Y036131D01*
X006269Y036179D01*
X006208Y036230D01*
X006150Y036285D01*
X006094Y036342D01*
X006041Y036402D01*
X005992Y036464D01*
X005945Y036529D01*
X005902Y036596D01*
X005862Y036665D01*
X005825Y036736D01*
X005793Y036809D01*
X005763Y036883D01*
X005738Y036958D01*
X005716Y037035D01*
X005699Y037113D01*
X005685Y037192D01*
X005675Y037271D01*
X005669Y037350D01*
X005667Y037430D01*
X013867Y033180D02*
X013867Y029180D01*
X014617Y029180D01*
X014619Y029219D01*
X014625Y029258D01*
X014634Y029296D01*
X014647Y029333D01*
X014664Y029369D01*
X014684Y029402D01*
X014708Y029434D01*
X014734Y029463D01*
X014763Y029489D01*
X014795Y029513D01*
X014828Y029533D01*
X014864Y029550D01*
X014901Y029563D01*
X014939Y029572D01*
X014978Y029578D01*
X015017Y029580D01*
X015056Y029578D01*
X015095Y029572D01*
X015133Y029563D01*
X015170Y029550D01*
X015206Y029533D01*
X015239Y029513D01*
X015271Y029489D01*
X015300Y029463D01*
X015326Y029434D01*
X015350Y029402D01*
X015370Y029369D01*
X015387Y029333D01*
X015400Y029296D01*
X015409Y029258D01*
X015415Y029219D01*
X015417Y029180D01*
X016167Y029180D01*
X016167Y033180D01*
X013867Y033180D01*
X016017Y033830D02*
X016017Y034530D01*
X016019Y034547D01*
X016023Y034564D01*
X016030Y034580D01*
X016040Y034594D01*
X016053Y034607D01*
X016067Y034617D01*
X016083Y034624D01*
X016100Y034628D01*
X016117Y034630D01*
X016267Y034630D01*
X016317Y034580D01*
X018217Y034580D01*
X018267Y034630D01*
X018417Y034630D01*
X018434Y034628D01*
X018451Y034624D01*
X018467Y034617D01*
X018481Y034607D01*
X018494Y034594D01*
X018504Y034580D01*
X018511Y034564D01*
X018515Y034547D01*
X018517Y034530D01*
X018517Y033830D01*
X018515Y033813D01*
X018511Y033796D01*
X018504Y033780D01*
X018494Y033766D01*
X018481Y033753D01*
X018467Y033743D01*
X018451Y033736D01*
X018434Y033732D01*
X018417Y033730D01*
X018267Y033730D01*
X018217Y033780D01*
X016317Y033780D01*
X016267Y033730D01*
X016117Y033730D01*
X016100Y033732D01*
X016083Y033736D01*
X016067Y033743D01*
X016053Y033753D01*
X016040Y033766D01*
X016030Y033780D01*
X016023Y033796D01*
X016019Y033813D01*
X016017Y033830D01*
X016617Y034730D02*
X017917Y034730D01*
X017943Y034732D01*
X017969Y034737D01*
X017994Y034745D01*
X018017Y034757D01*
X018039Y034771D01*
X018058Y034789D01*
X018076Y034808D01*
X018090Y034830D01*
X018102Y034853D01*
X018110Y034878D01*
X018115Y034904D01*
X018117Y034930D01*
X018117Y035430D01*
X018115Y035456D01*
X018110Y035482D01*
X018102Y035507D01*
X018090Y035530D01*
X018076Y035552D01*
X018058Y035571D01*
X018039Y035589D01*
X018017Y035603D01*
X017994Y035615D01*
X017969Y035623D01*
X017943Y035628D01*
X017917Y035630D01*
X016617Y035630D01*
X016591Y035628D01*
X016565Y035623D01*
X016540Y035615D01*
X016517Y035603D01*
X016495Y035589D01*
X016476Y035571D01*
X016458Y035552D01*
X016444Y035530D01*
X016432Y035507D01*
X016424Y035482D01*
X016419Y035456D01*
X016417Y035430D01*
X016417Y034930D01*
X016419Y034904D01*
X016424Y034878D01*
X016432Y034853D01*
X016444Y034830D01*
X016458Y034808D01*
X016476Y034789D01*
X016495Y034771D01*
X016517Y034757D01*
X016540Y034745D01*
X016565Y034737D01*
X016591Y034732D01*
X016617Y034730D01*
X016267Y035730D02*
X016317Y035780D01*
X018217Y035780D01*
X018267Y035730D01*
X018417Y035730D01*
X018434Y035732D01*
X018451Y035736D01*
X018467Y035743D01*
X018481Y035753D01*
X018494Y035766D01*
X018504Y035780D01*
X018511Y035796D01*
X018515Y035813D01*
X018517Y035830D01*
X018517Y036530D01*
X018515Y036547D01*
X018511Y036564D01*
X018504Y036580D01*
X018494Y036594D01*
X018481Y036607D01*
X018467Y036617D01*
X018451Y036624D01*
X018434Y036628D01*
X018417Y036630D01*
X018267Y036630D01*
X018217Y036580D01*
X016317Y036580D01*
X016267Y036630D01*
X016117Y036630D01*
X016100Y036628D01*
X016083Y036624D01*
X016067Y036617D01*
X016053Y036607D01*
X016040Y036594D01*
X016030Y036580D01*
X016023Y036564D01*
X016019Y036547D01*
X016017Y036530D01*
X016017Y035830D01*
X016019Y035813D01*
X016023Y035796D01*
X016030Y035780D01*
X016040Y035766D01*
X016053Y035753D01*
X016067Y035743D01*
X016083Y035736D01*
X016100Y035732D01*
X016117Y035730D01*
X016267Y035730D01*
X017917Y037930D02*
X017919Y037975D01*
X017924Y038021D01*
X017932Y038065D01*
X017944Y038109D01*
X017960Y038152D01*
X017978Y038194D01*
X018000Y038234D01*
X018024Y038272D01*
X018051Y038308D01*
X018081Y038343D01*
X018114Y038374D01*
X018149Y038404D01*
X019117Y037930D02*
X019115Y037883D01*
X019109Y037835D01*
X019100Y037789D01*
X019087Y037743D01*
X019071Y037699D01*
X019050Y037655D01*
X019027Y037614D01*
X019001Y037575D01*
X018971Y037538D01*
X018938Y037503D01*
X018903Y037471D01*
X018866Y037442D01*
X019117Y037930D02*
X019115Y037976D01*
X019110Y038022D01*
X019101Y038068D01*
X019089Y038113D01*
X019073Y038156D01*
X019054Y038198D01*
X019031Y038239D01*
X019006Y038278D01*
X018978Y038314D01*
X018947Y038349D01*
X018913Y038381D01*
X018877Y038410D01*
X017917Y037930D02*
X017919Y037885D01*
X017924Y037839D01*
X017932Y037795D01*
X017944Y037751D01*
X017960Y037708D01*
X017978Y037666D01*
X018000Y037626D01*
X018024Y037588D01*
X018051Y037552D01*
X018081Y037517D01*
X018114Y037486D01*
X018149Y037456D01*
X021117Y038680D02*
X021117Y034680D01*
X021867Y034680D01*
X021617Y034380D02*
X022917Y034380D01*
X022943Y034378D01*
X022969Y034373D01*
X022994Y034365D01*
X023017Y034353D01*
X023039Y034339D01*
X023058Y034321D01*
X023076Y034302D01*
X023090Y034280D01*
X023102Y034257D01*
X023110Y034232D01*
X023115Y034206D01*
X023117Y034180D01*
X023117Y033680D01*
X023115Y033654D01*
X023110Y033628D01*
X023102Y033603D01*
X023090Y033580D01*
X023076Y033558D01*
X023058Y033539D01*
X023039Y033521D01*
X023017Y033507D01*
X022994Y033495D01*
X022969Y033487D01*
X022943Y033482D01*
X022917Y033480D01*
X021617Y033480D01*
X021591Y033482D01*
X021565Y033487D01*
X021540Y033495D01*
X021517Y033507D01*
X021495Y033521D01*
X021476Y033539D01*
X021458Y033558D01*
X021444Y033580D01*
X021432Y033603D01*
X021424Y033628D01*
X021419Y033654D01*
X021417Y033680D01*
X021417Y034180D01*
X021419Y034206D01*
X021424Y034232D01*
X021432Y034257D01*
X021444Y034280D01*
X021458Y034302D01*
X021476Y034321D01*
X021495Y034339D01*
X021517Y034353D01*
X021540Y034365D01*
X021565Y034373D01*
X021591Y034378D01*
X021617Y034380D01*
X021867Y034680D02*
X021869Y034719D01*
X021875Y034758D01*
X021884Y034796D01*
X021897Y034833D01*
X021914Y034869D01*
X021934Y034902D01*
X021958Y034934D01*
X021984Y034963D01*
X022013Y034989D01*
X022045Y035013D01*
X022078Y035033D01*
X022114Y035050D01*
X022151Y035063D01*
X022189Y035072D01*
X022228Y035078D01*
X022267Y035080D01*
X022306Y035078D01*
X022345Y035072D01*
X022383Y035063D01*
X022420Y035050D01*
X022456Y035033D01*
X022489Y035013D01*
X022521Y034989D01*
X022550Y034963D01*
X022576Y034934D01*
X022600Y034902D01*
X022620Y034869D01*
X022637Y034833D01*
X022650Y034796D01*
X022659Y034758D01*
X022665Y034719D01*
X022667Y034680D01*
X023417Y034680D01*
X023417Y038680D01*
X021117Y038680D01*
X026117Y038680D02*
X026117Y034680D01*
X028417Y034680D01*
X028417Y038680D01*
X027667Y038680D01*
X027665Y038641D01*
X027659Y038602D01*
X027650Y038564D01*
X027637Y038527D01*
X027620Y038491D01*
X027600Y038458D01*
X027576Y038426D01*
X027550Y038397D01*
X027521Y038371D01*
X027489Y038347D01*
X027456Y038327D01*
X027420Y038310D01*
X027383Y038297D01*
X027345Y038288D01*
X027306Y038282D01*
X027267Y038280D01*
X027228Y038282D01*
X027189Y038288D01*
X027151Y038297D01*
X027114Y038310D01*
X027078Y038327D01*
X027045Y038347D01*
X027013Y038371D01*
X026984Y038397D01*
X026958Y038426D01*
X026934Y038458D01*
X026914Y038491D01*
X026897Y038527D01*
X026884Y038564D01*
X026875Y038602D01*
X026869Y038641D01*
X026867Y038680D01*
X026117Y038680D01*
X026617Y034380D02*
X027917Y034380D01*
X027943Y034378D01*
X027969Y034373D01*
X027994Y034365D01*
X028017Y034353D01*
X028039Y034339D01*
X028058Y034321D01*
X028076Y034302D01*
X028090Y034280D01*
X028102Y034257D01*
X028110Y034232D01*
X028115Y034206D01*
X028117Y034180D01*
X028117Y033680D01*
X028115Y033654D01*
X028110Y033628D01*
X028102Y033603D01*
X028090Y033580D01*
X028076Y033558D01*
X028058Y033539D01*
X028039Y033521D01*
X028017Y033507D01*
X027994Y033495D01*
X027969Y033487D01*
X027943Y033482D01*
X027917Y033480D01*
X026617Y033480D01*
X026591Y033482D01*
X026565Y033487D01*
X026540Y033495D01*
X026517Y033507D01*
X026495Y033521D01*
X026476Y033539D01*
X026458Y033558D01*
X026444Y033580D01*
X026432Y033603D01*
X026424Y033628D01*
X026419Y033654D01*
X026417Y033680D01*
X026417Y034180D01*
X026419Y034206D01*
X026424Y034232D01*
X026432Y034257D01*
X026444Y034280D01*
X026458Y034302D01*
X026476Y034321D01*
X026495Y034339D01*
X026517Y034353D01*
X026540Y034365D01*
X026565Y034373D01*
X026591Y034378D01*
X026617Y034380D01*
X026267Y033130D02*
X026317Y033080D01*
X028217Y033080D01*
X028267Y033130D01*
X028417Y033130D01*
X028434Y033128D01*
X028451Y033124D01*
X028467Y033117D01*
X028481Y033107D01*
X028494Y033094D01*
X028504Y033080D01*
X028511Y033064D01*
X028515Y033047D01*
X028517Y033030D01*
X028517Y032330D01*
X028515Y032313D01*
X028511Y032296D01*
X028504Y032280D01*
X028494Y032266D01*
X028481Y032253D01*
X028467Y032243D01*
X028451Y032236D01*
X028434Y032232D01*
X028417Y032230D01*
X028267Y032230D01*
X028217Y032280D01*
X026317Y032280D01*
X026267Y032230D01*
X026117Y032230D01*
X026100Y032232D01*
X026083Y032236D01*
X026067Y032243D01*
X026053Y032253D01*
X026040Y032266D01*
X026030Y032280D01*
X026023Y032296D01*
X026019Y032313D01*
X026017Y032330D01*
X026017Y033030D01*
X026019Y033047D01*
X026023Y033064D01*
X026030Y033080D01*
X026040Y033094D01*
X026053Y033107D01*
X026067Y033117D01*
X026083Y033124D01*
X026100Y033128D01*
X026117Y033130D01*
X026267Y033130D01*
X026267Y032130D02*
X026317Y032080D01*
X028217Y032080D01*
X028267Y032130D01*
X028417Y032130D01*
X028434Y032128D01*
X028451Y032124D01*
X028467Y032117D01*
X028481Y032107D01*
X028494Y032094D01*
X028504Y032080D01*
X028511Y032064D01*
X028515Y032047D01*
X028517Y032030D01*
X028517Y031330D01*
X028515Y031313D01*
X028511Y031296D01*
X028504Y031280D01*
X028494Y031266D01*
X028481Y031253D01*
X028467Y031243D01*
X028451Y031236D01*
X028434Y031232D01*
X028417Y031230D01*
X028267Y031230D01*
X028217Y031280D01*
X026317Y031280D01*
X026267Y031230D01*
X026117Y031230D01*
X026100Y031232D01*
X026083Y031236D01*
X026067Y031243D01*
X026053Y031253D01*
X026040Y031266D01*
X026030Y031280D01*
X026023Y031296D01*
X026019Y031313D01*
X026017Y031330D01*
X026017Y032030D01*
X026019Y032047D01*
X026023Y032064D01*
X026030Y032080D01*
X026040Y032094D01*
X026053Y032107D01*
X026067Y032117D01*
X026083Y032124D01*
X026100Y032128D01*
X026117Y032130D01*
X026267Y032130D01*
X026267Y031130D02*
X026317Y031080D01*
X028217Y031080D01*
X028267Y031130D01*
X028417Y031130D01*
X028434Y031128D01*
X028451Y031124D01*
X028467Y031117D01*
X028481Y031107D01*
X028494Y031094D01*
X028504Y031080D01*
X028511Y031064D01*
X028515Y031047D01*
X028517Y031030D01*
X028517Y030330D01*
X028515Y030313D01*
X028511Y030296D01*
X028504Y030280D01*
X028494Y030266D01*
X028481Y030253D01*
X028467Y030243D01*
X028451Y030236D01*
X028434Y030232D01*
X028417Y030230D01*
X028267Y030230D01*
X028217Y030280D01*
X026317Y030280D01*
X026267Y030230D01*
X026117Y030230D01*
X026100Y030232D01*
X026083Y030236D01*
X026067Y030243D01*
X026053Y030253D01*
X026040Y030266D01*
X026030Y030280D01*
X026023Y030296D01*
X026019Y030313D01*
X026017Y030330D01*
X026017Y031030D01*
X026019Y031047D01*
X026023Y031064D01*
X026030Y031080D01*
X026040Y031094D01*
X026053Y031107D01*
X026067Y031117D01*
X026083Y031124D01*
X026100Y031128D01*
X026117Y031130D01*
X026267Y031130D01*
X026267Y030130D02*
X026117Y030130D01*
X026100Y030128D01*
X026083Y030124D01*
X026067Y030117D01*
X026053Y030107D01*
X026040Y030094D01*
X026030Y030080D01*
X026023Y030064D01*
X026019Y030047D01*
X026017Y030030D01*
X026017Y029330D01*
X026019Y029313D01*
X026023Y029296D01*
X026030Y029280D01*
X026040Y029266D01*
X026053Y029253D01*
X026067Y029243D01*
X026083Y029236D01*
X026100Y029232D01*
X026117Y029230D01*
X026267Y029230D01*
X026317Y029280D01*
X028217Y029280D01*
X028267Y029230D01*
X028417Y029230D01*
X028434Y029232D01*
X028451Y029236D01*
X028467Y029243D01*
X028481Y029253D01*
X028494Y029266D01*
X028504Y029280D01*
X028511Y029296D01*
X028515Y029313D01*
X028517Y029330D01*
X028517Y030030D01*
X028515Y030047D01*
X028511Y030064D01*
X028504Y030080D01*
X028494Y030094D01*
X028481Y030107D01*
X028467Y030117D01*
X028451Y030124D01*
X028434Y030128D01*
X028417Y030130D01*
X028267Y030130D01*
X028217Y030080D01*
X026317Y030080D01*
X026267Y030130D01*
X023417Y029180D02*
X022667Y029180D01*
X022665Y029219D01*
X022659Y029258D01*
X022650Y029296D01*
X022637Y029333D01*
X022620Y029369D01*
X022600Y029402D01*
X022576Y029434D01*
X022550Y029463D01*
X022521Y029489D01*
X022489Y029513D01*
X022456Y029533D01*
X022420Y029550D01*
X022383Y029563D01*
X022345Y029572D01*
X022306Y029578D01*
X022267Y029580D01*
X022228Y029578D01*
X022189Y029572D01*
X022151Y029563D01*
X022114Y029550D01*
X022078Y029533D01*
X022045Y029513D01*
X022013Y029489D01*
X021984Y029463D01*
X021958Y029434D01*
X021934Y029402D01*
X021914Y029369D01*
X021897Y029333D01*
X021884Y029296D01*
X021875Y029258D01*
X021869Y029219D01*
X021867Y029180D01*
X021117Y029180D01*
X021117Y033180D01*
X023417Y033180D01*
X023417Y029180D01*
X022117Y028180D02*
X022117Y027680D01*
X022115Y027654D01*
X022110Y027628D01*
X022102Y027603D01*
X022090Y027580D01*
X022076Y027558D01*
X022058Y027539D01*
X022039Y027521D01*
X022017Y027507D01*
X021994Y027495D01*
X021969Y027487D01*
X021943Y027482D01*
X021917Y027480D01*
X020617Y027480D01*
X020591Y027482D01*
X020565Y027487D01*
X020540Y027495D01*
X020517Y027507D01*
X020495Y027521D01*
X020476Y027539D01*
X020458Y027558D01*
X020444Y027580D01*
X020432Y027603D01*
X020424Y027628D01*
X020419Y027654D01*
X020417Y027680D01*
X020417Y028180D01*
X020419Y028206D01*
X020424Y028232D01*
X020432Y028257D01*
X020444Y028280D01*
X020458Y028302D01*
X020476Y028321D01*
X020495Y028339D01*
X020517Y028353D01*
X020540Y028365D01*
X020565Y028373D01*
X020591Y028378D01*
X020617Y028380D01*
X021917Y028380D01*
X021943Y028378D01*
X021969Y028373D01*
X021994Y028365D01*
X022017Y028353D01*
X022039Y028339D01*
X022058Y028321D01*
X022076Y028302D01*
X022090Y028280D01*
X022102Y028257D01*
X022110Y028232D01*
X022115Y028206D01*
X022117Y028180D01*
X022167Y027180D02*
X019867Y027180D01*
X019867Y019180D01*
X020617Y019180D01*
X020367Y018880D02*
X021667Y018880D01*
X021693Y018878D01*
X021719Y018873D01*
X021744Y018865D01*
X021767Y018853D01*
X021789Y018839D01*
X021808Y018821D01*
X021826Y018802D01*
X021840Y018780D01*
X021852Y018757D01*
X021860Y018732D01*
X021865Y018706D01*
X021867Y018680D01*
X021867Y018180D01*
X021865Y018154D01*
X021860Y018128D01*
X021852Y018103D01*
X021840Y018080D01*
X021826Y018058D01*
X021808Y018039D01*
X021789Y018021D01*
X021767Y018007D01*
X021744Y017995D01*
X021719Y017987D01*
X021693Y017982D01*
X021667Y017980D01*
X020367Y017980D01*
X020341Y017982D01*
X020315Y017987D01*
X020290Y017995D01*
X020267Y018007D01*
X020245Y018021D01*
X020226Y018039D01*
X020208Y018058D01*
X020194Y018080D01*
X020182Y018103D01*
X020174Y018128D01*
X020169Y018154D01*
X020167Y018180D01*
X020167Y018680D01*
X020169Y018706D01*
X020174Y018732D01*
X020182Y018757D01*
X020194Y018780D01*
X020208Y018802D01*
X020226Y018821D01*
X020245Y018839D01*
X020267Y018853D01*
X020290Y018865D01*
X020315Y018873D01*
X020341Y018878D01*
X020367Y018880D01*
X020617Y019180D02*
X020619Y019219D01*
X020625Y019258D01*
X020634Y019296D01*
X020647Y019333D01*
X020664Y019369D01*
X020684Y019402D01*
X020708Y019434D01*
X020734Y019463D01*
X020763Y019489D01*
X020795Y019513D01*
X020828Y019533D01*
X020864Y019550D01*
X020901Y019563D01*
X020939Y019572D01*
X020978Y019578D01*
X021017Y019580D01*
X021056Y019578D01*
X021095Y019572D01*
X021133Y019563D01*
X021170Y019550D01*
X021206Y019533D01*
X021239Y019513D01*
X021271Y019489D01*
X021300Y019463D01*
X021326Y019434D01*
X021350Y019402D01*
X021370Y019369D01*
X021387Y019333D01*
X021400Y019296D01*
X021409Y019258D01*
X021415Y019219D01*
X021417Y019180D01*
X022167Y019180D01*
X022167Y027180D01*
X023617Y026980D02*
X023617Y018380D01*
X023667Y018330D02*
X023667Y019030D01*
X024367Y019030D01*
X024367Y018330D01*
X023667Y018330D01*
X023617Y018380D02*
X023619Y018354D01*
X023624Y018328D01*
X023632Y018303D01*
X023644Y018280D01*
X023658Y018258D01*
X023676Y018239D01*
X023695Y018221D01*
X023717Y018207D01*
X023740Y018195D01*
X023765Y018187D01*
X023791Y018182D01*
X023817Y018180D01*
X024217Y018180D01*
X024243Y018182D01*
X024269Y018187D01*
X024294Y018195D01*
X024317Y018207D01*
X024339Y018221D01*
X024358Y018239D01*
X024376Y018258D01*
X024390Y018280D01*
X024402Y018303D01*
X024410Y018328D01*
X024415Y018354D01*
X024417Y018380D01*
X024417Y026980D01*
X024415Y027006D01*
X024410Y027032D01*
X024402Y027057D01*
X024390Y027080D01*
X024376Y027102D01*
X024358Y027121D01*
X024339Y027139D01*
X024317Y027153D01*
X024294Y027165D01*
X024269Y027173D01*
X024243Y027178D01*
X024217Y027180D01*
X023817Y027180D01*
X023791Y027178D01*
X023765Y027173D01*
X023740Y027165D01*
X023717Y027153D01*
X023695Y027139D01*
X023676Y027121D01*
X023658Y027102D01*
X023644Y027080D01*
X023632Y027057D01*
X023624Y027032D01*
X023619Y027006D01*
X023617Y026980D01*
X025017Y027330D02*
X025017Y026580D01*
X025056Y026578D01*
X025095Y026572D01*
X025133Y026563D01*
X025170Y026550D01*
X025206Y026533D01*
X025239Y026513D01*
X025271Y026489D01*
X025300Y026463D01*
X025326Y026434D01*
X025350Y026402D01*
X025370Y026369D01*
X025387Y026333D01*
X025400Y026296D01*
X025409Y026258D01*
X025415Y026219D01*
X025417Y026180D01*
X025415Y026141D01*
X025409Y026102D01*
X025400Y026064D01*
X025387Y026027D01*
X025370Y025991D01*
X025350Y025958D01*
X025326Y025926D01*
X025300Y025897D01*
X025271Y025871D01*
X025239Y025847D01*
X025206Y025827D01*
X025170Y025810D01*
X025133Y025797D01*
X025095Y025788D01*
X025056Y025782D01*
X025017Y025780D01*
X025017Y025030D01*
X032017Y025030D01*
X032017Y027330D01*
X025017Y027330D01*
X026017Y023780D02*
X026517Y023780D01*
X026543Y023778D01*
X026569Y023773D01*
X026594Y023765D01*
X026617Y023753D01*
X026639Y023739D01*
X026658Y023721D01*
X026676Y023702D01*
X026690Y023680D01*
X026702Y023657D01*
X026710Y023632D01*
X026715Y023606D01*
X026717Y023580D01*
X026717Y022280D01*
X026715Y022254D01*
X026710Y022228D01*
X026702Y022203D01*
X026690Y022180D01*
X026676Y022158D01*
X026658Y022139D01*
X026639Y022121D01*
X026617Y022107D01*
X026594Y022095D01*
X026569Y022087D01*
X026543Y022082D01*
X026517Y022080D01*
X026017Y022080D01*
X025991Y022082D01*
X025965Y022087D01*
X025940Y022095D01*
X025917Y022107D01*
X025895Y022121D01*
X025876Y022139D01*
X025858Y022158D01*
X025844Y022180D01*
X025832Y022203D01*
X025824Y022228D01*
X025819Y022254D01*
X025817Y022280D01*
X025817Y023580D01*
X025819Y023606D01*
X025824Y023632D01*
X025832Y023657D01*
X025844Y023680D01*
X025858Y023702D01*
X025876Y023721D01*
X025895Y023739D01*
X025917Y023753D01*
X025940Y023765D01*
X025965Y023773D01*
X025991Y023778D01*
X026017Y023780D01*
X027067Y023580D02*
X027067Y022280D01*
X027069Y022254D01*
X027074Y022228D01*
X027082Y022203D01*
X027094Y022180D01*
X027108Y022158D01*
X027126Y022139D01*
X027145Y022121D01*
X027167Y022107D01*
X027190Y022095D01*
X027215Y022087D01*
X027241Y022082D01*
X027267Y022080D01*
X027767Y022080D01*
X027793Y022082D01*
X027819Y022087D01*
X027844Y022095D01*
X027867Y022107D01*
X027889Y022121D01*
X027908Y022139D01*
X027926Y022158D01*
X027940Y022180D01*
X027952Y022203D01*
X027960Y022228D01*
X027965Y022254D01*
X027967Y022280D01*
X027967Y023580D01*
X027965Y023606D01*
X027960Y023632D01*
X027952Y023657D01*
X027940Y023680D01*
X027926Y023702D01*
X027908Y023721D01*
X027889Y023739D01*
X027867Y023753D01*
X027844Y023765D01*
X027819Y023773D01*
X027793Y023778D01*
X027767Y023780D01*
X027267Y023780D01*
X027241Y023778D01*
X027215Y023773D01*
X027190Y023765D01*
X027167Y023753D01*
X027145Y023739D01*
X027126Y023721D01*
X027108Y023702D01*
X027094Y023680D01*
X027082Y023657D01*
X027074Y023632D01*
X027069Y023606D01*
X027067Y023580D01*
X028817Y023580D02*
X028817Y022280D01*
X028819Y022254D01*
X028824Y022228D01*
X028832Y022203D01*
X028844Y022180D01*
X028858Y022158D01*
X028876Y022139D01*
X028895Y022121D01*
X028917Y022107D01*
X028940Y022095D01*
X028965Y022087D01*
X028991Y022082D01*
X029017Y022080D01*
X029517Y022080D01*
X029543Y022082D01*
X029569Y022087D01*
X029594Y022095D01*
X029617Y022107D01*
X029639Y022121D01*
X029658Y022139D01*
X029676Y022158D01*
X029690Y022180D01*
X029702Y022203D01*
X029710Y022228D01*
X029715Y022254D01*
X029717Y022280D01*
X029717Y023580D01*
X029715Y023606D01*
X029710Y023632D01*
X029702Y023657D01*
X029690Y023680D01*
X029676Y023702D01*
X029658Y023721D01*
X029639Y023739D01*
X029617Y023753D01*
X029594Y023765D01*
X029569Y023773D01*
X029543Y023778D01*
X029517Y023780D01*
X029017Y023780D01*
X028991Y023778D01*
X028965Y023773D01*
X028940Y023765D01*
X028917Y023753D01*
X028895Y023739D01*
X028876Y023721D01*
X028858Y023702D01*
X028844Y023680D01*
X028832Y023657D01*
X028824Y023632D01*
X028819Y023606D01*
X028817Y023580D01*
X030067Y023580D02*
X030067Y022280D01*
X030069Y022254D01*
X030074Y022228D01*
X030082Y022203D01*
X030094Y022180D01*
X030108Y022158D01*
X030126Y022139D01*
X030145Y022121D01*
X030167Y022107D01*
X030190Y022095D01*
X030215Y022087D01*
X030241Y022082D01*
X030267Y022080D01*
X030767Y022080D01*
X030793Y022082D01*
X030819Y022087D01*
X030844Y022095D01*
X030867Y022107D01*
X030889Y022121D01*
X030908Y022139D01*
X030926Y022158D01*
X030940Y022180D01*
X030952Y022203D01*
X030960Y022228D01*
X030965Y022254D01*
X030967Y022280D01*
X030967Y023580D01*
X030965Y023606D01*
X030960Y023632D01*
X030952Y023657D01*
X030940Y023680D01*
X030926Y023702D01*
X030908Y023721D01*
X030889Y023739D01*
X030867Y023753D01*
X030844Y023765D01*
X030819Y023773D01*
X030793Y023778D01*
X030767Y023780D01*
X030267Y023780D01*
X030241Y023778D01*
X030215Y023773D01*
X030190Y023765D01*
X030167Y023753D01*
X030145Y023739D01*
X030126Y023721D01*
X030108Y023702D01*
X030094Y023680D01*
X030082Y023657D01*
X030074Y023632D01*
X030069Y023606D01*
X030067Y023580D01*
X032667Y023180D02*
X032667Y022680D01*
X032767Y022680D01*
X032767Y019930D01*
X032667Y019930D01*
X032667Y019430D01*
X032767Y019430D01*
X032767Y018930D01*
X036267Y018930D01*
X036267Y020680D01*
X036217Y020680D01*
X036217Y021180D01*
X036267Y021180D01*
X036267Y022130D01*
X035867Y022130D01*
X035767Y022130D01*
X035767Y019430D01*
X033267Y019430D01*
X033267Y026430D01*
X035767Y026430D01*
X035767Y024730D01*
X035767Y024130D01*
X035767Y023730D01*
X035867Y023730D01*
X036267Y023730D01*
X036267Y022130D01*
X035767Y022130D02*
X035467Y022130D01*
X035467Y023730D01*
X035767Y023730D01*
X036067Y023930D02*
X036067Y024130D01*
X036067Y024730D01*
X035867Y024730D01*
X035767Y024730D01*
X036067Y024730D02*
X036067Y024930D01*
X036267Y025080D01*
X036267Y026930D01*
X032767Y026930D01*
X032767Y026430D01*
X032667Y026430D01*
X032667Y025930D01*
X032767Y025930D01*
X032767Y023180D01*
X032667Y023180D01*
X032017Y020830D02*
X032017Y018530D01*
X025017Y018530D01*
X025017Y019280D01*
X025056Y019282D01*
X025095Y019288D01*
X025133Y019297D01*
X025170Y019310D01*
X025206Y019327D01*
X025239Y019347D01*
X025271Y019371D01*
X025300Y019397D01*
X025326Y019426D01*
X025350Y019458D01*
X025370Y019491D01*
X025387Y019527D01*
X025400Y019564D01*
X025409Y019602D01*
X025415Y019641D01*
X025417Y019680D01*
X025415Y019719D01*
X025409Y019758D01*
X025400Y019796D01*
X025387Y019833D01*
X025370Y019869D01*
X025350Y019902D01*
X025326Y019934D01*
X025300Y019963D01*
X025271Y019989D01*
X025239Y020013D01*
X025206Y020033D01*
X025170Y020050D01*
X025133Y020063D01*
X025095Y020072D01*
X025056Y020078D01*
X025017Y020080D01*
X025017Y020830D01*
X032017Y020830D01*
X031017Y017530D02*
X030517Y017530D01*
X030491Y017528D01*
X030465Y017523D01*
X030440Y017515D01*
X030417Y017503D01*
X030395Y017489D01*
X030376Y017471D01*
X030358Y017452D01*
X030344Y017430D01*
X030332Y017407D01*
X030324Y017382D01*
X030319Y017356D01*
X030317Y017330D01*
X030317Y016030D01*
X030319Y016004D01*
X030324Y015978D01*
X030332Y015953D01*
X030344Y015930D01*
X030358Y015908D01*
X030376Y015889D01*
X030395Y015871D01*
X030417Y015857D01*
X030440Y015845D01*
X030465Y015837D01*
X030491Y015832D01*
X030517Y015830D01*
X031017Y015830D01*
X031043Y015832D01*
X031069Y015837D01*
X031094Y015845D01*
X031117Y015857D01*
X031139Y015871D01*
X031158Y015889D01*
X031176Y015908D01*
X031190Y015930D01*
X031202Y015953D01*
X031210Y015978D01*
X031215Y016004D01*
X031217Y016030D01*
X031217Y017330D01*
X031215Y017356D01*
X031210Y017382D01*
X031202Y017407D01*
X031190Y017430D01*
X031176Y017452D01*
X031158Y017471D01*
X031139Y017489D01*
X031117Y017503D01*
X031094Y017515D01*
X031069Y017523D01*
X031043Y017528D01*
X031017Y017530D01*
X029967Y017330D02*
X029967Y016030D01*
X029965Y016004D01*
X029960Y015978D01*
X029952Y015953D01*
X029940Y015930D01*
X029926Y015908D01*
X029908Y015889D01*
X029889Y015871D01*
X029867Y015857D01*
X029844Y015845D01*
X029819Y015837D01*
X029793Y015832D01*
X029767Y015830D01*
X029267Y015830D01*
X029241Y015832D01*
X029215Y015837D01*
X029190Y015845D01*
X029167Y015857D01*
X029145Y015871D01*
X029126Y015889D01*
X029108Y015908D01*
X029094Y015930D01*
X029082Y015953D01*
X029074Y015978D01*
X029069Y016004D01*
X029067Y016030D01*
X029067Y017330D01*
X029069Y017356D01*
X029074Y017382D01*
X029082Y017407D01*
X029094Y017430D01*
X029108Y017452D01*
X029126Y017471D01*
X029145Y017489D01*
X029167Y017503D01*
X029190Y017515D01*
X029215Y017523D01*
X029241Y017528D01*
X029267Y017530D01*
X029767Y017530D01*
X029793Y017528D01*
X029819Y017523D01*
X029844Y017515D01*
X029867Y017503D01*
X029889Y017489D01*
X029908Y017471D01*
X029926Y017452D01*
X029940Y017430D01*
X029952Y017407D01*
X029960Y017382D01*
X029965Y017356D01*
X029967Y017330D01*
X028217Y017330D02*
X028217Y016030D01*
X028215Y016004D01*
X028210Y015978D01*
X028202Y015953D01*
X028190Y015930D01*
X028176Y015908D01*
X028158Y015889D01*
X028139Y015871D01*
X028117Y015857D01*
X028094Y015845D01*
X028069Y015837D01*
X028043Y015832D01*
X028017Y015830D01*
X027517Y015830D01*
X027491Y015832D01*
X027465Y015837D01*
X027440Y015845D01*
X027417Y015857D01*
X027395Y015871D01*
X027376Y015889D01*
X027358Y015908D01*
X027344Y015930D01*
X027332Y015953D01*
X027324Y015978D01*
X027319Y016004D01*
X027317Y016030D01*
X027317Y017330D01*
X027319Y017356D01*
X027324Y017382D01*
X027332Y017407D01*
X027344Y017430D01*
X027358Y017452D01*
X027376Y017471D01*
X027395Y017489D01*
X027417Y017503D01*
X027440Y017515D01*
X027465Y017523D01*
X027491Y017528D01*
X027517Y017530D01*
X028017Y017530D01*
X028043Y017528D01*
X028069Y017523D01*
X028094Y017515D01*
X028117Y017503D01*
X028139Y017489D01*
X028158Y017471D01*
X028176Y017452D01*
X028190Y017430D01*
X028202Y017407D01*
X028210Y017382D01*
X028215Y017356D01*
X028217Y017330D01*
X026967Y017330D02*
X026967Y016030D01*
X026965Y016004D01*
X026960Y015978D01*
X026952Y015953D01*
X026940Y015930D01*
X026926Y015908D01*
X026908Y015889D01*
X026889Y015871D01*
X026867Y015857D01*
X026844Y015845D01*
X026819Y015837D01*
X026793Y015832D01*
X026767Y015830D01*
X026267Y015830D01*
X026241Y015832D01*
X026215Y015837D01*
X026190Y015845D01*
X026167Y015857D01*
X026145Y015871D01*
X026126Y015889D01*
X026108Y015908D01*
X026094Y015930D01*
X026082Y015953D01*
X026074Y015978D01*
X026069Y016004D01*
X026067Y016030D01*
X026067Y017330D01*
X026069Y017356D01*
X026074Y017382D01*
X026082Y017407D01*
X026094Y017430D01*
X026108Y017452D01*
X026126Y017471D01*
X026145Y017489D01*
X026167Y017503D01*
X026190Y017515D01*
X026215Y017523D01*
X026241Y017528D01*
X026267Y017530D01*
X026767Y017530D01*
X026793Y017528D01*
X026819Y017523D01*
X026844Y017515D01*
X026867Y017503D01*
X026889Y017489D01*
X026908Y017471D01*
X026926Y017452D01*
X026940Y017430D01*
X026952Y017407D01*
X026960Y017382D01*
X026965Y017356D01*
X026967Y017330D01*
X025717Y017330D02*
X025717Y016030D01*
X025715Y016004D01*
X025710Y015978D01*
X025702Y015953D01*
X025690Y015930D01*
X025676Y015908D01*
X025658Y015889D01*
X025639Y015871D01*
X025617Y015857D01*
X025594Y015845D01*
X025569Y015837D01*
X025543Y015832D01*
X025517Y015830D01*
X025017Y015830D01*
X024991Y015832D01*
X024965Y015837D01*
X024940Y015845D01*
X024917Y015857D01*
X024895Y015871D01*
X024876Y015889D01*
X024858Y015908D01*
X024844Y015930D01*
X024832Y015953D01*
X024824Y015978D01*
X024819Y016004D01*
X024817Y016030D01*
X024817Y017330D01*
X024819Y017356D01*
X024824Y017382D01*
X024832Y017407D01*
X024844Y017430D01*
X024858Y017452D01*
X024876Y017471D01*
X024895Y017489D01*
X024917Y017503D01*
X024940Y017515D01*
X024965Y017523D01*
X024991Y017528D01*
X025017Y017530D01*
X025517Y017530D01*
X025543Y017528D01*
X025569Y017523D01*
X025594Y017515D01*
X025617Y017503D01*
X025639Y017489D01*
X025658Y017471D01*
X025676Y017452D01*
X025690Y017430D01*
X025702Y017407D01*
X025710Y017382D01*
X025715Y017356D01*
X025717Y017330D01*
X023267Y017080D02*
X023267Y017780D01*
X023265Y017797D01*
X023261Y017814D01*
X023254Y017830D01*
X023244Y017844D01*
X023231Y017857D01*
X023217Y017867D01*
X023201Y017874D01*
X023184Y017878D01*
X023167Y017880D01*
X023017Y017880D01*
X022967Y017830D01*
X021067Y017830D01*
X021017Y017880D01*
X020867Y017880D01*
X020850Y017878D01*
X020833Y017874D01*
X020817Y017867D01*
X020803Y017857D01*
X020790Y017844D01*
X020780Y017830D01*
X020773Y017814D01*
X020769Y017797D01*
X020767Y017780D01*
X020767Y017080D01*
X020769Y017063D01*
X020773Y017046D01*
X020780Y017030D01*
X020790Y017016D01*
X020803Y017003D01*
X020817Y016993D01*
X020833Y016986D01*
X020850Y016982D01*
X020867Y016980D01*
X021017Y016980D01*
X021067Y017030D01*
X022967Y017030D01*
X023017Y016980D01*
X023167Y016980D01*
X023184Y016982D01*
X023201Y016986D01*
X023217Y016993D01*
X023231Y017003D01*
X023244Y017016D01*
X023254Y017030D01*
X023261Y017046D01*
X023265Y017063D01*
X023267Y017080D01*
X023167Y016630D02*
X023017Y016630D01*
X022967Y016580D01*
X021067Y016580D01*
X021017Y016630D01*
X020867Y016630D01*
X020850Y016628D01*
X020833Y016624D01*
X020817Y016617D01*
X020803Y016607D01*
X020790Y016594D01*
X020780Y016580D01*
X020773Y016564D01*
X020769Y016547D01*
X020767Y016530D01*
X020767Y015830D01*
X020769Y015813D01*
X020773Y015796D01*
X020780Y015780D01*
X020790Y015766D01*
X020803Y015753D01*
X020817Y015743D01*
X020833Y015736D01*
X020850Y015732D01*
X020867Y015730D01*
X021017Y015730D01*
X021067Y015780D01*
X022967Y015780D01*
X023017Y015730D01*
X023167Y015730D01*
X023184Y015732D01*
X023201Y015736D01*
X023217Y015743D01*
X023231Y015753D01*
X023244Y015766D01*
X023254Y015780D01*
X023261Y015796D01*
X023265Y015813D01*
X023267Y015830D01*
X023267Y016530D01*
X023265Y016547D01*
X023261Y016564D01*
X023254Y016580D01*
X023244Y016594D01*
X023231Y016607D01*
X023217Y016617D01*
X023201Y016624D01*
X023184Y016628D01*
X023167Y016630D01*
X021867Y015430D02*
X021867Y014930D01*
X021865Y014904D01*
X021860Y014878D01*
X021852Y014853D01*
X021840Y014830D01*
X021826Y014808D01*
X021808Y014789D01*
X021789Y014771D01*
X021767Y014757D01*
X021744Y014745D01*
X021719Y014737D01*
X021693Y014732D01*
X021667Y014730D01*
X020367Y014730D01*
X020341Y014732D01*
X020315Y014737D01*
X020290Y014745D01*
X020267Y014757D01*
X020245Y014771D01*
X020226Y014789D01*
X020208Y014808D01*
X020194Y014830D01*
X020182Y014853D01*
X020174Y014878D01*
X020169Y014904D01*
X020167Y014930D01*
X020167Y015430D01*
X020169Y015456D01*
X020174Y015482D01*
X020182Y015507D01*
X020194Y015530D01*
X020208Y015552D01*
X020226Y015571D01*
X020245Y015589D01*
X020267Y015603D01*
X020290Y015615D01*
X020315Y015623D01*
X020341Y015628D01*
X020367Y015630D01*
X021667Y015630D01*
X021693Y015628D01*
X021719Y015623D01*
X021744Y015615D01*
X021767Y015603D01*
X021789Y015589D01*
X021808Y015571D01*
X021826Y015552D01*
X021840Y015530D01*
X021852Y015507D01*
X021860Y015482D01*
X021865Y015456D01*
X021867Y015430D01*
X022167Y014380D02*
X019867Y014380D01*
X019867Y006380D01*
X020617Y006380D01*
X020367Y006130D02*
X021667Y006130D01*
X021693Y006128D01*
X021719Y006123D01*
X021744Y006115D01*
X021767Y006103D01*
X021789Y006089D01*
X021808Y006071D01*
X021826Y006052D01*
X021840Y006030D01*
X021852Y006007D01*
X021860Y005982D01*
X021865Y005956D01*
X021867Y005930D01*
X021867Y005430D01*
X021865Y005404D01*
X021860Y005378D01*
X021852Y005353D01*
X021840Y005330D01*
X021826Y005308D01*
X021808Y005289D01*
X021789Y005271D01*
X021767Y005257D01*
X021744Y005245D01*
X021719Y005237D01*
X021693Y005232D01*
X021667Y005230D01*
X020367Y005230D01*
X020341Y005232D01*
X020315Y005237D01*
X020290Y005245D01*
X020267Y005257D01*
X020245Y005271D01*
X020226Y005289D01*
X020208Y005308D01*
X020194Y005330D01*
X020182Y005353D01*
X020174Y005378D01*
X020169Y005404D01*
X020167Y005430D01*
X020167Y005930D01*
X020169Y005956D01*
X020174Y005982D01*
X020182Y006007D01*
X020194Y006030D01*
X020208Y006052D01*
X020226Y006071D01*
X020245Y006089D01*
X020267Y006103D01*
X020290Y006115D01*
X020315Y006123D01*
X020341Y006128D01*
X020367Y006130D01*
X020617Y006380D02*
X020619Y006419D01*
X020625Y006458D01*
X020634Y006496D01*
X020647Y006533D01*
X020664Y006569D01*
X020684Y006602D01*
X020708Y006634D01*
X020734Y006663D01*
X020763Y006689D01*
X020795Y006713D01*
X020828Y006733D01*
X020864Y006750D01*
X020901Y006763D01*
X020939Y006772D01*
X020978Y006778D01*
X021017Y006780D01*
X021056Y006778D01*
X021095Y006772D01*
X021133Y006763D01*
X021170Y006750D01*
X021206Y006733D01*
X021239Y006713D01*
X021271Y006689D01*
X021300Y006663D01*
X021326Y006634D01*
X021350Y006602D01*
X021370Y006569D01*
X021387Y006533D01*
X021400Y006496D01*
X021409Y006458D01*
X021415Y006419D01*
X021417Y006380D01*
X022167Y006380D01*
X022167Y014380D01*
X023617Y014230D02*
X023617Y005630D01*
X023667Y005580D02*
X023667Y006280D01*
X024367Y006280D01*
X024367Y005580D01*
X023667Y005580D01*
X023617Y005630D02*
X023619Y005604D01*
X023624Y005578D01*
X023632Y005553D01*
X023644Y005530D01*
X023658Y005508D01*
X023676Y005489D01*
X023695Y005471D01*
X023717Y005457D01*
X023740Y005445D01*
X023765Y005437D01*
X023791Y005432D01*
X023817Y005430D01*
X024217Y005430D01*
X024243Y005432D01*
X024269Y005437D01*
X024294Y005445D01*
X024317Y005457D01*
X024339Y005471D01*
X024358Y005489D01*
X024376Y005508D01*
X024390Y005530D01*
X024402Y005553D01*
X024410Y005578D01*
X024415Y005604D01*
X024417Y005630D01*
X024417Y014230D01*
X024415Y014256D01*
X024410Y014282D01*
X024402Y014307D01*
X024390Y014330D01*
X024376Y014352D01*
X024358Y014371D01*
X024339Y014389D01*
X024317Y014403D01*
X024294Y014415D01*
X024269Y014423D01*
X024243Y014428D01*
X024217Y014430D01*
X023817Y014430D01*
X023791Y014428D01*
X023765Y014423D01*
X023740Y014415D01*
X023717Y014403D01*
X023695Y014389D01*
X023676Y014371D01*
X023658Y014352D01*
X023644Y014330D01*
X023632Y014307D01*
X023624Y014282D01*
X023619Y014256D01*
X023617Y014230D01*
X025017Y014580D02*
X025017Y013830D01*
X025056Y013828D01*
X025095Y013822D01*
X025133Y013813D01*
X025170Y013800D01*
X025206Y013783D01*
X025239Y013763D01*
X025271Y013739D01*
X025300Y013713D01*
X025326Y013684D01*
X025350Y013652D01*
X025370Y013619D01*
X025387Y013583D01*
X025400Y013546D01*
X025409Y013508D01*
X025415Y013469D01*
X025417Y013430D01*
X025415Y013391D01*
X025409Y013352D01*
X025400Y013314D01*
X025387Y013277D01*
X025370Y013241D01*
X025350Y013208D01*
X025326Y013176D01*
X025300Y013147D01*
X025271Y013121D01*
X025239Y013097D01*
X025206Y013077D01*
X025170Y013060D01*
X025133Y013047D01*
X025095Y013038D01*
X025056Y013032D01*
X025017Y013030D01*
X025017Y012280D01*
X032017Y012280D01*
X032017Y014580D01*
X025017Y014580D01*
X026267Y011030D02*
X026767Y011030D01*
X026793Y011028D01*
X026819Y011023D01*
X026844Y011015D01*
X026867Y011003D01*
X026889Y010989D01*
X026908Y010971D01*
X026926Y010952D01*
X026940Y010930D01*
X026952Y010907D01*
X026960Y010882D01*
X026965Y010856D01*
X026967Y010830D01*
X026967Y009530D01*
X026965Y009504D01*
X026960Y009478D01*
X026952Y009453D01*
X026940Y009430D01*
X026926Y009408D01*
X026908Y009389D01*
X026889Y009371D01*
X026867Y009357D01*
X026844Y009345D01*
X026819Y009337D01*
X026793Y009332D01*
X026767Y009330D01*
X026267Y009330D01*
X026241Y009332D01*
X026215Y009337D01*
X026190Y009345D01*
X026167Y009357D01*
X026145Y009371D01*
X026126Y009389D01*
X026108Y009408D01*
X026094Y009430D01*
X026082Y009453D01*
X026074Y009478D01*
X026069Y009504D01*
X026067Y009530D01*
X026067Y010830D01*
X026069Y010856D01*
X026074Y010882D01*
X026082Y010907D01*
X026094Y010930D01*
X026108Y010952D01*
X026126Y010971D01*
X026145Y010989D01*
X026167Y011003D01*
X026190Y011015D01*
X026215Y011023D01*
X026241Y011028D01*
X026267Y011030D01*
X027317Y010830D02*
X027317Y009530D01*
X027319Y009504D01*
X027324Y009478D01*
X027332Y009453D01*
X027344Y009430D01*
X027358Y009408D01*
X027376Y009389D01*
X027395Y009371D01*
X027417Y009357D01*
X027440Y009345D01*
X027465Y009337D01*
X027491Y009332D01*
X027517Y009330D01*
X028017Y009330D01*
X028043Y009332D01*
X028069Y009337D01*
X028094Y009345D01*
X028117Y009357D01*
X028139Y009371D01*
X028158Y009389D01*
X028176Y009408D01*
X028190Y009430D01*
X028202Y009453D01*
X028210Y009478D01*
X028215Y009504D01*
X028217Y009530D01*
X028217Y010830D01*
X028215Y010856D01*
X028210Y010882D01*
X028202Y010907D01*
X028190Y010930D01*
X028176Y010952D01*
X028158Y010971D01*
X028139Y010989D01*
X028117Y011003D01*
X028094Y011015D01*
X028069Y011023D01*
X028043Y011028D01*
X028017Y011030D01*
X027517Y011030D01*
X027491Y011028D01*
X027465Y011023D01*
X027440Y011015D01*
X027417Y011003D01*
X027395Y010989D01*
X027376Y010971D01*
X027358Y010952D01*
X027344Y010930D01*
X027332Y010907D01*
X027324Y010882D01*
X027319Y010856D01*
X027317Y010830D01*
X029067Y010830D02*
X029067Y009530D01*
X029069Y009504D01*
X029074Y009478D01*
X029082Y009453D01*
X029094Y009430D01*
X029108Y009408D01*
X029126Y009389D01*
X029145Y009371D01*
X029167Y009357D01*
X029190Y009345D01*
X029215Y009337D01*
X029241Y009332D01*
X029267Y009330D01*
X029767Y009330D01*
X029793Y009332D01*
X029819Y009337D01*
X029844Y009345D01*
X029867Y009357D01*
X029889Y009371D01*
X029908Y009389D01*
X029926Y009408D01*
X029940Y009430D01*
X029952Y009453D01*
X029960Y009478D01*
X029965Y009504D01*
X029967Y009530D01*
X029967Y010830D01*
X029965Y010856D01*
X029960Y010882D01*
X029952Y010907D01*
X029940Y010930D01*
X029926Y010952D01*
X029908Y010971D01*
X029889Y010989D01*
X029867Y011003D01*
X029844Y011015D01*
X029819Y011023D01*
X029793Y011028D01*
X029767Y011030D01*
X029267Y011030D01*
X029241Y011028D01*
X029215Y011023D01*
X029190Y011015D01*
X029167Y011003D01*
X029145Y010989D01*
X029126Y010971D01*
X029108Y010952D01*
X029094Y010930D01*
X029082Y010907D01*
X029074Y010882D01*
X029069Y010856D01*
X029067Y010830D01*
X030317Y010830D02*
X030317Y009530D01*
X030319Y009504D01*
X030324Y009478D01*
X030332Y009453D01*
X030344Y009430D01*
X030358Y009408D01*
X030376Y009389D01*
X030395Y009371D01*
X030417Y009357D01*
X030440Y009345D01*
X030465Y009337D01*
X030491Y009332D01*
X030517Y009330D01*
X031017Y009330D01*
X031043Y009332D01*
X031069Y009337D01*
X031094Y009345D01*
X031117Y009357D01*
X031139Y009371D01*
X031158Y009389D01*
X031176Y009408D01*
X031190Y009430D01*
X031202Y009453D01*
X031210Y009478D01*
X031215Y009504D01*
X031217Y009530D01*
X031217Y010830D01*
X031215Y010856D01*
X031210Y010882D01*
X031202Y010907D01*
X031190Y010930D01*
X031176Y010952D01*
X031158Y010971D01*
X031139Y010989D01*
X031117Y011003D01*
X031094Y011015D01*
X031069Y011023D01*
X031043Y011028D01*
X031017Y011030D01*
X030517Y011030D01*
X030491Y011028D01*
X030465Y011023D01*
X030440Y011015D01*
X030417Y011003D01*
X030395Y010989D01*
X030376Y010971D01*
X030358Y010952D01*
X030344Y010930D01*
X030332Y010907D01*
X030324Y010882D01*
X030319Y010856D01*
X030317Y010830D01*
X032667Y010630D02*
X032667Y010130D01*
X032767Y010130D01*
X032767Y007380D01*
X032667Y007380D01*
X032667Y006880D01*
X032767Y006880D01*
X032767Y006380D01*
X036267Y006380D01*
X036267Y008130D01*
X036217Y008130D01*
X036217Y008630D01*
X036267Y008630D01*
X036267Y009580D01*
X035867Y009580D01*
X035767Y009580D01*
X035767Y006880D01*
X033267Y006880D01*
X033267Y013880D01*
X035767Y013880D01*
X035767Y012180D01*
X035767Y011580D01*
X035767Y011180D01*
X035867Y011180D01*
X036267Y011180D01*
X036267Y009580D01*
X035767Y009580D02*
X035467Y009580D01*
X035467Y011180D01*
X035767Y011180D01*
X036067Y011380D02*
X036067Y011580D01*
X036067Y012180D01*
X035867Y012180D01*
X035767Y012180D01*
X036067Y012180D02*
X036067Y012380D01*
X036267Y012530D01*
X036267Y014380D01*
X032767Y014380D01*
X032767Y013880D01*
X032667Y013880D01*
X032667Y013380D01*
X032767Y013380D01*
X032767Y010630D01*
X032667Y010630D01*
X032017Y008080D02*
X032017Y005780D01*
X025017Y005780D01*
X025017Y006530D01*
X025056Y006532D01*
X025095Y006538D01*
X025133Y006547D01*
X025170Y006560D01*
X025206Y006577D01*
X025239Y006597D01*
X025271Y006621D01*
X025300Y006647D01*
X025326Y006676D01*
X025350Y006708D01*
X025370Y006741D01*
X025387Y006777D01*
X025400Y006814D01*
X025409Y006852D01*
X025415Y006891D01*
X025417Y006930D01*
X025415Y006969D01*
X025409Y007008D01*
X025400Y007046D01*
X025387Y007083D01*
X025370Y007119D01*
X025350Y007152D01*
X025326Y007184D01*
X025300Y007213D01*
X025271Y007239D01*
X025239Y007263D01*
X025206Y007283D01*
X025170Y007300D01*
X025133Y007313D01*
X025095Y007322D01*
X025056Y007328D01*
X025017Y007330D01*
X025017Y008080D01*
X032017Y008080D01*
X030667Y004630D02*
X029367Y004630D01*
X029341Y004628D01*
X029315Y004623D01*
X029290Y004615D01*
X029267Y004603D01*
X029245Y004589D01*
X029226Y004571D01*
X029208Y004552D01*
X029194Y004530D01*
X029182Y004507D01*
X029174Y004482D01*
X029169Y004456D01*
X029167Y004430D01*
X029167Y003930D01*
X029169Y003904D01*
X029174Y003878D01*
X029182Y003853D01*
X029194Y003830D01*
X029208Y003808D01*
X029226Y003789D01*
X029245Y003771D01*
X029267Y003757D01*
X029290Y003745D01*
X029315Y003737D01*
X029341Y003732D01*
X029367Y003730D01*
X030667Y003730D01*
X030693Y003732D01*
X030719Y003737D01*
X030744Y003745D01*
X030767Y003757D01*
X030789Y003771D01*
X030808Y003789D01*
X030826Y003808D01*
X030840Y003830D01*
X030852Y003853D01*
X030860Y003878D01*
X030865Y003904D01*
X030867Y003930D01*
X030867Y004430D01*
X030865Y004456D01*
X030860Y004482D01*
X030852Y004507D01*
X030840Y004530D01*
X030826Y004552D01*
X030808Y004571D01*
X030789Y004589D01*
X030767Y004603D01*
X030744Y004615D01*
X030719Y004623D01*
X030693Y004628D01*
X030667Y004630D01*
X027867Y004430D02*
X027867Y003930D01*
X027865Y003904D01*
X027860Y003878D01*
X027852Y003853D01*
X027840Y003830D01*
X027826Y003808D01*
X027808Y003789D01*
X027789Y003771D01*
X027767Y003757D01*
X027744Y003745D01*
X027719Y003737D01*
X027693Y003732D01*
X027667Y003730D01*
X026367Y003730D01*
X026341Y003732D01*
X026315Y003737D01*
X026290Y003745D01*
X026267Y003757D01*
X026245Y003771D01*
X026226Y003789D01*
X026208Y003808D01*
X026194Y003830D01*
X026182Y003853D01*
X026174Y003878D01*
X026169Y003904D01*
X026167Y003930D01*
X026167Y004430D01*
X026169Y004456D01*
X026174Y004482D01*
X026182Y004507D01*
X026194Y004530D01*
X026208Y004552D01*
X026226Y004571D01*
X026245Y004589D01*
X026267Y004603D01*
X026290Y004615D01*
X026315Y004623D01*
X026341Y004628D01*
X026367Y004630D01*
X027667Y004630D01*
X027693Y004628D01*
X027719Y004623D01*
X027744Y004615D01*
X027767Y004603D01*
X027789Y004589D01*
X027808Y004571D01*
X027826Y004552D01*
X027840Y004530D01*
X027852Y004507D01*
X027860Y004482D01*
X027865Y004456D01*
X027867Y004430D01*
X035767Y011580D02*
X035867Y011580D01*
X036067Y011580D01*
X036067Y011380D02*
X036267Y011230D01*
X036267Y011180D01*
X039512Y010960D02*
X039912Y010960D01*
X039812Y010660D02*
X039812Y011261D01*
X039512Y010960D01*
X039612Y011650D02*
X039512Y011750D01*
X039612Y011650D02*
X039812Y011650D01*
X039912Y011750D01*
X039912Y011950D01*
X039812Y012050D01*
X039712Y012050D01*
X039512Y011950D01*
X039512Y012251D01*
X039912Y012251D01*
X039812Y012640D02*
X039912Y012740D01*
X039912Y012840D01*
X039812Y012940D01*
X039512Y012940D01*
X039512Y012740D01*
X039612Y012640D01*
X039812Y012640D01*
X039512Y012940D02*
X039712Y013140D01*
X039912Y013241D01*
X039512Y013630D02*
X039512Y013730D01*
X039912Y014130D01*
X039912Y014231D01*
X039512Y014231D01*
X039512Y014620D02*
X039812Y014620D01*
X039912Y014720D01*
X039912Y015120D01*
X039812Y015221D01*
X039512Y015221D01*
X039512Y014620D01*
X039305Y014620D02*
X039305Y015221D01*
X038904Y015221D02*
X038904Y014620D01*
X038697Y014720D02*
X038697Y014920D01*
X038497Y014920D01*
X038697Y014720D02*
X038597Y014620D01*
X038397Y014620D01*
X038297Y014720D01*
X038297Y015120D01*
X038397Y015221D01*
X038597Y015221D01*
X038697Y015120D01*
X038904Y015221D02*
X039305Y014620D01*
X038876Y016210D02*
X038449Y016530D01*
X038876Y016851D01*
X039094Y016530D02*
X039521Y016530D01*
X039512Y018210D02*
X039812Y018210D01*
X039912Y018310D01*
X039912Y018710D01*
X039812Y018811D01*
X039512Y018811D01*
X039512Y018210D01*
X039305Y018210D02*
X039305Y018811D01*
X038904Y018811D02*
X038904Y018210D01*
X038697Y018310D02*
X038697Y018510D01*
X038497Y018510D01*
X038697Y018310D02*
X038597Y018210D01*
X038397Y018210D01*
X038297Y018310D01*
X038297Y018710D01*
X038397Y018811D01*
X038597Y018811D01*
X038697Y018710D01*
X038904Y018811D02*
X039305Y018210D01*
X039612Y019200D02*
X039512Y019300D01*
X039512Y019400D01*
X039612Y019500D01*
X039812Y019500D01*
X039912Y019400D01*
X039912Y019300D01*
X039812Y019200D01*
X039612Y019200D01*
X039612Y019500D02*
X039512Y019600D01*
X039512Y019700D01*
X039612Y019801D01*
X039812Y019801D01*
X039912Y019700D01*
X039912Y019600D01*
X039812Y019500D01*
X039812Y020190D02*
X039912Y020290D01*
X039912Y020690D01*
X039812Y020791D01*
X039612Y020791D01*
X039512Y020690D01*
X039512Y020590D01*
X039612Y020490D01*
X039912Y020490D01*
X039812Y020190D02*
X039612Y020190D01*
X039512Y020290D01*
X039612Y021180D02*
X039512Y021280D01*
X039912Y021680D01*
X039912Y021280D01*
X039812Y021180D01*
X039612Y021180D01*
X039512Y021280D02*
X039512Y021680D01*
X039612Y021781D01*
X039812Y021781D01*
X039912Y021680D01*
X039912Y022170D02*
X039512Y022170D01*
X039712Y022170D02*
X039712Y022771D01*
X039512Y022570D01*
X039305Y022170D02*
X038904Y022170D01*
X039105Y022170D02*
X039105Y022771D01*
X038904Y022570D01*
X038904Y023160D02*
X039305Y023160D01*
X039105Y023160D02*
X039105Y023761D01*
X038904Y023560D01*
X038904Y024150D02*
X039305Y024150D01*
X039105Y024150D02*
X039105Y024751D01*
X038904Y024550D01*
X038904Y025140D02*
X039305Y025140D01*
X039105Y025140D02*
X039105Y025741D01*
X038904Y025540D01*
X038904Y026130D02*
X039305Y026130D01*
X039105Y026130D02*
X039105Y026731D01*
X038904Y026530D01*
X038904Y027120D02*
X038904Y027721D01*
X039305Y027120D01*
X039305Y027721D01*
X039512Y027721D02*
X039512Y027120D01*
X039812Y027120D01*
X039912Y027220D01*
X039912Y027620D01*
X039812Y027721D01*
X039512Y027721D01*
X038697Y027620D02*
X038597Y027721D01*
X038397Y027721D01*
X038297Y027620D01*
X038297Y027220D01*
X038397Y027120D01*
X038597Y027120D01*
X038697Y027220D01*
X038697Y027420D01*
X038497Y027420D01*
X039512Y026731D02*
X039512Y026430D01*
X039712Y026530D01*
X039812Y026530D01*
X039912Y026430D01*
X039912Y026230D01*
X039812Y026130D01*
X039612Y026130D01*
X039512Y026230D01*
X039812Y025741D02*
X039512Y025440D01*
X039912Y025440D01*
X039812Y025140D02*
X039812Y025741D01*
X039812Y024751D02*
X039912Y024650D01*
X039912Y024550D01*
X039812Y024450D01*
X039912Y024350D01*
X039912Y024250D01*
X039812Y024150D01*
X039612Y024150D01*
X039512Y024250D01*
X039712Y024450D02*
X039812Y024450D01*
X039812Y024751D02*
X039612Y024751D01*
X039512Y024650D01*
X039612Y023761D02*
X039512Y023660D01*
X039612Y023761D02*
X039812Y023761D01*
X039912Y023660D01*
X039912Y023560D01*
X039512Y023160D01*
X039912Y023160D01*
X039105Y021781D02*
X038904Y021580D01*
X039105Y021781D02*
X039105Y021180D01*
X039305Y021180D02*
X038904Y021180D01*
X036267Y023730D02*
X036267Y023780D01*
X036067Y023930D01*
X036067Y024130D02*
X035867Y024130D01*
X035767Y024130D01*
X035917Y027230D02*
X034617Y027230D01*
X034591Y027232D01*
X034565Y027237D01*
X034540Y027245D01*
X034517Y027257D01*
X034495Y027271D01*
X034476Y027289D01*
X034458Y027308D01*
X034444Y027330D01*
X034432Y027353D01*
X034424Y027378D01*
X034419Y027404D01*
X034417Y027430D01*
X034417Y027930D01*
X034419Y027956D01*
X034424Y027982D01*
X034432Y028007D01*
X034444Y028030D01*
X034458Y028052D01*
X034476Y028071D01*
X034495Y028089D01*
X034517Y028103D01*
X034540Y028115D01*
X034565Y028123D01*
X034591Y028128D01*
X034617Y028130D01*
X035917Y028130D01*
X035943Y028128D01*
X035969Y028123D01*
X035994Y028115D01*
X036017Y028103D01*
X036039Y028089D01*
X036058Y028071D01*
X036076Y028052D01*
X036090Y028030D01*
X036102Y028007D01*
X036110Y027982D01*
X036115Y027956D01*
X036117Y027930D01*
X036117Y027430D01*
X036115Y027404D01*
X036110Y027378D01*
X036102Y027353D01*
X036090Y027330D01*
X036076Y027308D01*
X036058Y027289D01*
X036039Y027271D01*
X036017Y027257D01*
X035994Y027245D01*
X035969Y027237D01*
X035943Y027232D01*
X035917Y027230D01*
X037084Y027988D02*
X037084Y017972D01*
X037160Y016851D02*
X037587Y016851D01*
X037374Y016851D02*
X037374Y016210D01*
X036942Y016317D02*
X036942Y016851D01*
X036515Y016851D02*
X036515Y016317D01*
X036622Y016210D01*
X036836Y016210D01*
X036942Y016317D01*
X036298Y016530D02*
X036298Y016744D01*
X036191Y016851D01*
X035871Y016851D01*
X035871Y016210D01*
X035871Y016424D02*
X036191Y016424D01*
X036298Y016530D01*
X035653Y016210D02*
X035653Y016851D01*
X035226Y016851D02*
X035226Y016210D01*
X035010Y016210D02*
X034797Y016210D01*
X034903Y016210D02*
X034903Y016851D01*
X034797Y016851D02*
X035010Y016851D01*
X035226Y016851D02*
X035653Y016210D01*
X037084Y015388D02*
X037084Y005372D01*
X038297Y005810D02*
X038397Y005710D01*
X038597Y005710D01*
X038697Y005810D01*
X038697Y006010D01*
X038497Y006010D01*
X038297Y006210D02*
X038297Y005810D01*
X038297Y006210D02*
X038397Y006311D01*
X038597Y006311D01*
X038697Y006210D01*
X038904Y006311D02*
X039305Y005710D01*
X039305Y006311D01*
X039512Y006311D02*
X039512Y005710D01*
X039812Y005710D01*
X039912Y005810D01*
X039912Y006210D01*
X039812Y006311D01*
X039512Y006311D01*
X039612Y006700D02*
X039512Y006800D01*
X039912Y007200D01*
X039912Y006800D01*
X039812Y006700D01*
X039612Y006700D01*
X039512Y006800D02*
X039512Y007200D01*
X039612Y007301D01*
X039812Y007301D01*
X039912Y007200D01*
X039912Y007690D02*
X039512Y007690D01*
X039712Y007690D02*
X039712Y008291D01*
X039512Y008090D01*
X039512Y008680D02*
X039912Y009080D01*
X039912Y009180D01*
X039812Y009281D01*
X039612Y009281D01*
X039512Y009180D01*
X039512Y008680D02*
X039912Y008680D01*
X039812Y009670D02*
X039612Y009670D01*
X039512Y009770D01*
X039712Y009970D02*
X039812Y009970D01*
X039912Y009870D01*
X039912Y009770D01*
X039812Y009670D01*
X039812Y009970D02*
X039912Y010070D01*
X039912Y010170D01*
X039812Y010271D01*
X039612Y010271D01*
X039512Y010170D01*
X038904Y006311D02*
X038904Y005710D01*
X036281Y002936D02*
X036283Y003009D01*
X036289Y003082D01*
X036299Y003154D01*
X036313Y003226D01*
X036330Y003297D01*
X036352Y003367D01*
X036377Y003436D01*
X036406Y003503D01*
X036438Y003568D01*
X036474Y003632D01*
X036514Y003694D01*
X036556Y003753D01*
X036602Y003810D01*
X036651Y003864D01*
X036703Y003916D01*
X036757Y003965D01*
X036814Y004011D01*
X036873Y004053D01*
X036935Y004093D01*
X036999Y004129D01*
X037064Y004161D01*
X037131Y004190D01*
X037200Y004215D01*
X037270Y004237D01*
X037341Y004254D01*
X037413Y004268D01*
X037485Y004278D01*
X037558Y004284D01*
X037631Y004286D01*
X037704Y004284D01*
X037777Y004278D01*
X037849Y004268D01*
X037921Y004254D01*
X037992Y004237D01*
X038062Y004215D01*
X038131Y004190D01*
X038198Y004161D01*
X038263Y004129D01*
X038327Y004093D01*
X038389Y004053D01*
X038448Y004011D01*
X038505Y003965D01*
X038559Y003916D01*
X038611Y003864D01*
X038660Y003810D01*
X038706Y003753D01*
X038748Y003694D01*
X038788Y003632D01*
X038824Y003568D01*
X038856Y003503D01*
X038885Y003436D01*
X038910Y003367D01*
X038932Y003297D01*
X038949Y003226D01*
X038963Y003154D01*
X038973Y003082D01*
X038979Y003009D01*
X038981Y002936D01*
X038979Y002863D01*
X038973Y002790D01*
X038963Y002718D01*
X038949Y002646D01*
X038932Y002575D01*
X038910Y002505D01*
X038885Y002436D01*
X038856Y002369D01*
X038824Y002304D01*
X038788Y002240D01*
X038748Y002178D01*
X038706Y002119D01*
X038660Y002062D01*
X038611Y002008D01*
X038559Y001956D01*
X038505Y001907D01*
X038448Y001861D01*
X038389Y001819D01*
X038327Y001779D01*
X038263Y001743D01*
X038198Y001711D01*
X038131Y001682D01*
X038062Y001657D01*
X037992Y001635D01*
X037921Y001618D01*
X037849Y001604D01*
X037777Y001594D01*
X037704Y001588D01*
X037631Y001586D01*
X037558Y001588D01*
X037485Y001594D01*
X037413Y001604D01*
X037341Y001618D01*
X037270Y001635D01*
X037200Y001657D01*
X037131Y001682D01*
X037064Y001711D01*
X036999Y001743D01*
X036935Y001779D01*
X036873Y001819D01*
X036814Y001861D01*
X036757Y001907D01*
X036703Y001956D01*
X036651Y002008D01*
X036602Y002062D01*
X036556Y002119D01*
X036514Y002178D01*
X036474Y002240D01*
X036438Y002304D01*
X036406Y002369D01*
X036377Y002436D01*
X036352Y002505D01*
X036330Y002575D01*
X036313Y002646D01*
X036299Y002718D01*
X036289Y002790D01*
X036283Y002863D01*
X036281Y002936D01*
X017567Y006380D02*
X015267Y006380D01*
X015267Y014380D01*
X016017Y014380D01*
X016019Y014341D01*
X016025Y014302D01*
X016034Y014264D01*
X016047Y014227D01*
X016064Y014191D01*
X016084Y014158D01*
X016108Y014126D01*
X016134Y014097D01*
X016163Y014071D01*
X016195Y014047D01*
X016228Y014027D01*
X016264Y014010D01*
X016301Y013997D01*
X016339Y013988D01*
X016378Y013982D01*
X016417Y013980D01*
X016456Y013982D01*
X016495Y013988D01*
X016533Y013997D01*
X016570Y014010D01*
X016606Y014027D01*
X016639Y014047D01*
X016671Y014071D01*
X016700Y014097D01*
X016726Y014126D01*
X016750Y014158D01*
X016770Y014191D01*
X016787Y014227D01*
X016800Y014264D01*
X016809Y014302D01*
X016815Y014341D01*
X016817Y014380D01*
X017567Y014380D01*
X017567Y006380D01*
X017117Y005930D02*
X017117Y005430D01*
X017115Y005404D01*
X017110Y005378D01*
X017102Y005353D01*
X017090Y005330D01*
X017076Y005308D01*
X017058Y005289D01*
X017039Y005271D01*
X017017Y005257D01*
X016994Y005245D01*
X016969Y005237D01*
X016943Y005232D01*
X016917Y005230D01*
X015617Y005230D01*
X015591Y005232D01*
X015565Y005237D01*
X015540Y005245D01*
X015517Y005257D01*
X015495Y005271D01*
X015476Y005289D01*
X015458Y005308D01*
X015444Y005330D01*
X015432Y005353D01*
X015424Y005378D01*
X015419Y005404D01*
X015417Y005430D01*
X015417Y005930D01*
X015419Y005956D01*
X015424Y005982D01*
X015432Y006007D01*
X015444Y006030D01*
X015458Y006052D01*
X015476Y006071D01*
X015495Y006089D01*
X015517Y006103D01*
X015540Y006115D01*
X015565Y006123D01*
X015591Y006128D01*
X015617Y006130D01*
X016917Y006130D01*
X016943Y006128D01*
X016969Y006123D01*
X016994Y006115D01*
X017017Y006103D01*
X017039Y006089D01*
X017058Y006071D01*
X017076Y006052D01*
X017090Y006030D01*
X017102Y006007D01*
X017110Y005982D01*
X017115Y005956D01*
X017117Y005930D01*
X012867Y005380D02*
X012117Y005380D01*
X012167Y005130D02*
X010867Y005130D01*
X010841Y005128D01*
X010815Y005123D01*
X010790Y005115D01*
X010767Y005103D01*
X010745Y005089D01*
X010726Y005071D01*
X010708Y005052D01*
X010694Y005030D01*
X010682Y005007D01*
X010674Y004982D01*
X010669Y004956D01*
X010667Y004930D01*
X010667Y004430D01*
X010669Y004404D01*
X010674Y004378D01*
X010682Y004353D01*
X010694Y004330D01*
X010708Y004308D01*
X010726Y004289D01*
X010745Y004271D01*
X010767Y004257D01*
X010790Y004245D01*
X010815Y004237D01*
X010841Y004232D01*
X010867Y004230D01*
X012167Y004230D01*
X012193Y004232D01*
X012219Y004237D01*
X012244Y004245D01*
X012267Y004257D01*
X012289Y004271D01*
X012308Y004289D01*
X012326Y004308D01*
X012340Y004330D01*
X012352Y004353D01*
X012360Y004378D01*
X012365Y004404D01*
X012367Y004430D01*
X012367Y004930D01*
X012365Y004956D01*
X012360Y004982D01*
X012352Y005007D01*
X012340Y005030D01*
X012326Y005052D01*
X012308Y005071D01*
X012289Y005089D01*
X012267Y005103D01*
X012244Y005115D01*
X012219Y005123D01*
X012193Y005128D01*
X012167Y005130D01*
X012117Y005380D02*
X012115Y005419D01*
X012109Y005458D01*
X012100Y005496D01*
X012087Y005533D01*
X012070Y005569D01*
X012050Y005602D01*
X012026Y005634D01*
X012000Y005663D01*
X011971Y005689D01*
X011939Y005713D01*
X011906Y005733D01*
X011870Y005750D01*
X011833Y005763D01*
X011795Y005772D01*
X011756Y005778D01*
X011717Y005780D01*
X011678Y005778D01*
X011639Y005772D01*
X011601Y005763D01*
X011564Y005750D01*
X011528Y005733D01*
X011495Y005713D01*
X011463Y005689D01*
X011434Y005663D01*
X011408Y005634D01*
X011384Y005602D01*
X011364Y005569D01*
X011347Y005533D01*
X011334Y005496D01*
X011325Y005458D01*
X011319Y005419D01*
X011317Y005380D01*
X010567Y005380D01*
X010567Y015380D01*
X012867Y015380D01*
X012867Y005380D01*
X008767Y006380D02*
X008767Y006880D01*
X008867Y006880D01*
X008867Y007380D01*
X008767Y007380D01*
X008767Y010130D01*
X008867Y010130D01*
X008867Y010630D01*
X008767Y010630D01*
X008767Y013380D01*
X008867Y013380D01*
X008867Y013880D01*
X008767Y013880D01*
X008767Y014380D01*
X005267Y014380D01*
X005267Y012630D01*
X005317Y012630D01*
X005317Y012130D01*
X005267Y012130D01*
X005267Y011180D01*
X005667Y011180D01*
X005767Y011180D01*
X005767Y013880D01*
X008267Y013880D01*
X008267Y006880D01*
X005767Y006880D01*
X005767Y008580D01*
X005767Y009180D01*
X005767Y009580D01*
X005667Y009580D01*
X005267Y009580D01*
X005267Y011180D01*
X005767Y011180D02*
X006067Y011180D01*
X006067Y009580D01*
X005767Y009580D01*
X005467Y009380D02*
X005467Y009180D01*
X005467Y008580D01*
X005667Y008580D01*
X005767Y008580D01*
X005467Y008580D02*
X005467Y008380D01*
X005267Y008230D01*
X005267Y006380D01*
X008767Y006380D01*
X005767Y009180D02*
X005667Y009180D01*
X005467Y009180D01*
X005467Y009380D02*
X005267Y009530D01*
X005267Y009580D01*
X002305Y009670D02*
X001904Y009670D01*
X002305Y010070D01*
X002305Y010170D01*
X002205Y010271D01*
X002004Y010271D01*
X001904Y010170D01*
X001497Y010271D02*
X001297Y010070D01*
X001497Y010271D02*
X001497Y009670D01*
X001297Y009670D02*
X001697Y009670D01*
X001497Y009281D02*
X001497Y008680D01*
X001297Y008680D02*
X001697Y008680D01*
X001904Y008780D02*
X002004Y008680D01*
X002205Y008680D01*
X002305Y008780D01*
X002305Y008880D01*
X002205Y008980D01*
X002105Y008980D01*
X002205Y008980D02*
X002305Y009080D01*
X002305Y009180D01*
X002205Y009281D01*
X002004Y009281D01*
X001904Y009180D01*
X001497Y009281D02*
X001297Y009080D01*
X001497Y008291D02*
X001497Y007690D01*
X001297Y007690D02*
X001697Y007690D01*
X001904Y007990D02*
X002305Y007990D01*
X002205Y007690D02*
X002205Y008291D01*
X001904Y007990D01*
X001497Y008291D02*
X001297Y008090D01*
X001497Y007301D02*
X001497Y006700D01*
X001297Y006700D02*
X001697Y006700D01*
X001904Y006800D02*
X002004Y006700D01*
X002205Y006700D01*
X002305Y006800D01*
X002305Y007000D01*
X002205Y007100D01*
X002105Y007100D01*
X001904Y007000D01*
X001904Y007301D01*
X002305Y007301D01*
X001497Y007301D02*
X001297Y007100D01*
X001397Y006311D02*
X001297Y006210D01*
X001297Y005810D01*
X001397Y005710D01*
X001597Y005710D01*
X001697Y005810D01*
X001697Y006010D01*
X001497Y006010D01*
X001697Y006210D02*
X001597Y006311D01*
X001397Y006311D01*
X001904Y006311D02*
X001904Y005710D01*
X002305Y005710D02*
X001904Y006311D01*
X002305Y006311D02*
X002305Y005710D01*
X002512Y005710D02*
X002512Y006311D01*
X002812Y006311D01*
X002912Y006210D01*
X002912Y005810D01*
X002812Y005710D01*
X002512Y005710D01*
X004150Y005372D02*
X004150Y015388D01*
X004232Y016460D02*
X004445Y016460D01*
X004552Y016567D01*
X004552Y017101D01*
X004769Y017101D02*
X005196Y017101D01*
X004983Y017101D02*
X004983Y016460D01*
X005414Y016460D02*
X005414Y017101D01*
X005734Y017101D01*
X005841Y016994D01*
X005841Y016780D01*
X005734Y016674D01*
X005414Y016674D01*
X006059Y016567D02*
X006165Y016460D01*
X006379Y016460D01*
X006486Y016567D01*
X006486Y017101D01*
X006703Y017101D02*
X007130Y017101D01*
X006917Y017101D02*
X006917Y016460D01*
X006059Y016567D02*
X006059Y017101D01*
X004125Y017101D02*
X004125Y016567D01*
X004232Y016460D01*
X003907Y016567D02*
X003907Y016994D01*
X003801Y017101D01*
X003587Y017101D01*
X003480Y016994D01*
X003480Y016567D01*
X003587Y016460D01*
X003801Y016460D01*
X003907Y016567D01*
X002618Y016780D02*
X002191Y016780D01*
X001974Y016460D02*
X001547Y016780D01*
X001974Y017101D01*
X001904Y018460D02*
X001904Y019061D01*
X002305Y018460D01*
X002305Y019061D01*
X002512Y019061D02*
X002812Y019061D01*
X002912Y018960D01*
X002912Y018560D01*
X002812Y018460D01*
X002512Y018460D01*
X002512Y019061D01*
X001697Y018960D02*
X001597Y019061D01*
X001397Y019061D01*
X001297Y018960D01*
X001297Y018560D01*
X001397Y018460D01*
X001597Y018460D01*
X001697Y018560D01*
X001697Y018760D01*
X001497Y018760D01*
X001297Y019450D02*
X001297Y019550D01*
X001697Y019950D01*
X001697Y020051D01*
X001297Y020051D01*
X001397Y020440D02*
X001597Y020440D01*
X001697Y020540D01*
X001697Y020640D01*
X001597Y020740D01*
X001297Y020740D01*
X001297Y020540D01*
X001397Y020440D01*
X001297Y020740D02*
X001497Y020940D01*
X001697Y021041D01*
X001597Y021430D02*
X001697Y021530D01*
X001697Y021730D01*
X001597Y021830D01*
X001497Y021830D01*
X001297Y021730D01*
X001297Y022031D01*
X001697Y022031D01*
X001597Y022420D02*
X001597Y023021D01*
X001297Y022720D01*
X001697Y022720D01*
X001297Y021530D02*
X001397Y021430D01*
X001597Y021430D01*
X001697Y024400D02*
X001297Y024400D01*
X004150Y028188D02*
X004150Y018172D01*
X002812Y015221D02*
X002512Y015221D01*
X002512Y014620D01*
X002812Y014620D01*
X002912Y014720D01*
X002912Y015120D01*
X002812Y015221D01*
X002305Y015221D02*
X002305Y014620D01*
X001904Y015221D01*
X001904Y014620D01*
X001697Y014720D02*
X001697Y014920D01*
X001497Y014920D01*
X001697Y014720D02*
X001597Y014620D01*
X001397Y014620D01*
X001297Y014720D01*
X001297Y015120D01*
X001397Y015221D01*
X001597Y015221D01*
X001697Y015120D01*
X001597Y014231D02*
X001697Y014130D01*
X001697Y014030D01*
X001597Y013930D01*
X001397Y013930D01*
X001297Y014030D01*
X001297Y014130D01*
X001397Y014231D01*
X001597Y014231D01*
X001597Y013930D02*
X001697Y013830D01*
X001697Y013730D01*
X001597Y013630D01*
X001397Y013630D01*
X001297Y013730D01*
X001297Y013830D01*
X001397Y013930D01*
X001397Y013241D02*
X001297Y013140D01*
X001297Y013040D01*
X001397Y012940D01*
X001697Y012940D01*
X001697Y012740D02*
X001697Y013140D01*
X001597Y013241D01*
X001397Y013241D01*
X001297Y012740D02*
X001397Y012640D01*
X001597Y012640D01*
X001697Y012740D01*
X001497Y012251D02*
X001497Y011650D01*
X001297Y011650D02*
X001697Y011650D01*
X001904Y011750D02*
X002004Y011650D01*
X002205Y011650D01*
X002305Y011750D01*
X002305Y012150D01*
X001904Y011750D01*
X001904Y012150D01*
X002004Y012251D01*
X002205Y012251D01*
X002305Y012150D01*
X001497Y012251D02*
X001297Y012050D01*
X001497Y011261D02*
X001497Y010660D01*
X001297Y010660D02*
X001697Y010660D01*
X001904Y010660D02*
X002305Y010660D01*
X002105Y010660D02*
X002105Y011261D01*
X001904Y011060D01*
X001497Y011261D02*
X001297Y011060D01*
X009317Y016280D02*
X009317Y017580D01*
X009319Y017606D01*
X009324Y017632D01*
X009332Y017657D01*
X009344Y017680D01*
X009358Y017702D01*
X009376Y017721D01*
X009395Y017739D01*
X009417Y017753D01*
X009440Y017765D01*
X009465Y017773D01*
X009491Y017778D01*
X009517Y017780D01*
X010017Y017780D01*
X010043Y017778D01*
X010069Y017773D01*
X010094Y017765D01*
X010117Y017753D01*
X010139Y017739D01*
X010158Y017721D01*
X010176Y017702D01*
X010190Y017680D01*
X010202Y017657D01*
X010210Y017632D01*
X010215Y017606D01*
X010217Y017580D01*
X010217Y016280D01*
X010215Y016254D01*
X010210Y016228D01*
X010202Y016203D01*
X010190Y016180D01*
X010176Y016158D01*
X010158Y016139D01*
X010139Y016121D01*
X010117Y016107D01*
X010094Y016095D01*
X010069Y016087D01*
X010043Y016082D01*
X010017Y016080D01*
X009517Y016080D01*
X009491Y016082D01*
X009465Y016087D01*
X009440Y016095D01*
X009417Y016107D01*
X009395Y016121D01*
X009376Y016139D01*
X009358Y016158D01*
X009344Y016180D01*
X009332Y016203D01*
X009324Y016228D01*
X009319Y016254D01*
X009317Y016280D01*
X010917Y016430D02*
X010917Y015930D01*
X010919Y015904D01*
X010924Y015878D01*
X010932Y015853D01*
X010944Y015830D01*
X010958Y015808D01*
X010976Y015789D01*
X010995Y015771D01*
X011017Y015757D01*
X011040Y015745D01*
X011065Y015737D01*
X011091Y015732D01*
X011117Y015730D01*
X012417Y015730D01*
X012443Y015732D01*
X012469Y015737D01*
X012494Y015745D01*
X012517Y015757D01*
X012539Y015771D01*
X012558Y015789D01*
X012576Y015808D01*
X012590Y015830D01*
X012602Y015853D01*
X012610Y015878D01*
X012615Y015904D01*
X012617Y015930D01*
X012617Y016430D01*
X012615Y016456D01*
X012610Y016482D01*
X012602Y016507D01*
X012590Y016530D01*
X012576Y016552D01*
X012558Y016571D01*
X012539Y016589D01*
X012517Y016603D01*
X012494Y016615D01*
X012469Y016623D01*
X012443Y016628D01*
X012417Y016630D01*
X011117Y016630D01*
X011091Y016628D01*
X011065Y016623D01*
X011040Y016615D01*
X011017Y016603D01*
X010995Y016589D01*
X010976Y016571D01*
X010958Y016552D01*
X010944Y016530D01*
X010932Y016507D01*
X010924Y016482D01*
X010919Y016456D01*
X010917Y016430D01*
X011117Y016980D02*
X012417Y016980D01*
X012443Y016982D01*
X012469Y016987D01*
X012494Y016995D01*
X012517Y017007D01*
X012539Y017021D01*
X012558Y017039D01*
X012576Y017058D01*
X012590Y017080D01*
X012602Y017103D01*
X012610Y017128D01*
X012615Y017154D01*
X012617Y017180D01*
X012617Y017680D01*
X012615Y017706D01*
X012610Y017732D01*
X012602Y017757D01*
X012590Y017780D01*
X012576Y017802D01*
X012558Y017821D01*
X012539Y017839D01*
X012517Y017853D01*
X012494Y017865D01*
X012469Y017873D01*
X012443Y017878D01*
X012417Y017880D01*
X011117Y017880D01*
X011091Y017878D01*
X011065Y017873D01*
X011040Y017865D01*
X011017Y017853D01*
X010995Y017839D01*
X010976Y017821D01*
X010958Y017802D01*
X010944Y017780D01*
X010932Y017757D01*
X010924Y017732D01*
X010919Y017706D01*
X010917Y017680D01*
X010917Y017180D01*
X010919Y017154D01*
X010924Y017128D01*
X010932Y017103D01*
X010944Y017080D01*
X010958Y017058D01*
X010976Y017039D01*
X010995Y017021D01*
X011017Y017007D01*
X011040Y016995D01*
X011065Y016987D01*
X011091Y016982D01*
X011117Y016980D01*
X014667Y016930D02*
X014667Y016430D01*
X014669Y016404D01*
X014674Y016378D01*
X014682Y016353D01*
X014694Y016330D01*
X014708Y016308D01*
X014726Y016289D01*
X014745Y016271D01*
X014767Y016257D01*
X014790Y016245D01*
X014815Y016237D01*
X014841Y016232D01*
X014867Y016230D01*
X016167Y016230D01*
X016193Y016232D01*
X016219Y016237D01*
X016244Y016245D01*
X016267Y016257D01*
X016289Y016271D01*
X016308Y016289D01*
X016326Y016308D01*
X016340Y016330D01*
X016352Y016353D01*
X016360Y016378D01*
X016365Y016404D01*
X016367Y016430D01*
X016367Y016930D01*
X016365Y016956D01*
X016360Y016982D01*
X016352Y017007D01*
X016340Y017030D01*
X016326Y017052D01*
X016308Y017071D01*
X016289Y017089D01*
X016267Y017103D01*
X016244Y017115D01*
X016219Y017123D01*
X016193Y017128D01*
X016167Y017130D01*
X014867Y017130D01*
X014841Y017128D01*
X014815Y017123D01*
X014790Y017115D01*
X014767Y017103D01*
X014745Y017089D01*
X014726Y017071D01*
X014708Y017052D01*
X014694Y017030D01*
X014682Y017007D01*
X014674Y016982D01*
X014669Y016956D01*
X014667Y016930D01*
X015617Y017980D02*
X016917Y017980D01*
X016943Y017982D01*
X016969Y017987D01*
X016994Y017995D01*
X017017Y018007D01*
X017039Y018021D01*
X017058Y018039D01*
X017076Y018058D01*
X017090Y018080D01*
X017102Y018103D01*
X017110Y018128D01*
X017115Y018154D01*
X017117Y018180D01*
X017117Y018680D01*
X017115Y018706D01*
X017110Y018732D01*
X017102Y018757D01*
X017090Y018780D01*
X017076Y018802D01*
X017058Y018821D01*
X017039Y018839D01*
X017017Y018853D01*
X016994Y018865D01*
X016969Y018873D01*
X016943Y018878D01*
X016917Y018880D01*
X015617Y018880D01*
X015591Y018878D01*
X015565Y018873D01*
X015540Y018865D01*
X015517Y018853D01*
X015495Y018839D01*
X015476Y018821D01*
X015458Y018802D01*
X015444Y018780D01*
X015432Y018757D01*
X015424Y018732D01*
X015419Y018706D01*
X015417Y018680D01*
X015417Y018180D01*
X015419Y018154D01*
X015424Y018128D01*
X015432Y018103D01*
X015444Y018080D01*
X015458Y018058D01*
X015476Y018039D01*
X015495Y018021D01*
X015517Y018007D01*
X015540Y017995D01*
X015565Y017987D01*
X015591Y017982D01*
X015617Y017980D01*
X015267Y019180D02*
X017567Y019180D01*
X017567Y027180D01*
X016817Y027180D01*
X017167Y027230D02*
X015867Y027230D01*
X016017Y027180D02*
X015267Y027180D01*
X015267Y019180D01*
X015617Y015630D02*
X016917Y015630D01*
X016943Y015628D01*
X016969Y015623D01*
X016994Y015615D01*
X017017Y015603D01*
X017039Y015589D01*
X017058Y015571D01*
X017076Y015552D01*
X017090Y015530D01*
X017102Y015507D01*
X017110Y015482D01*
X017115Y015456D01*
X017117Y015430D01*
X017117Y014930D01*
X017115Y014904D01*
X017110Y014878D01*
X017102Y014853D01*
X017090Y014830D01*
X017076Y014808D01*
X017058Y014789D01*
X017039Y014771D01*
X017017Y014757D01*
X016994Y014745D01*
X016969Y014737D01*
X016943Y014732D01*
X016917Y014730D01*
X015617Y014730D01*
X015591Y014732D01*
X015565Y014737D01*
X015540Y014745D01*
X015517Y014757D01*
X015495Y014771D01*
X015476Y014789D01*
X015458Y014808D01*
X015444Y014830D01*
X015432Y014853D01*
X015424Y014878D01*
X015419Y014904D01*
X015417Y014930D01*
X015417Y015430D01*
X015419Y015456D01*
X015424Y015482D01*
X015432Y015507D01*
X015444Y015530D01*
X015458Y015552D01*
X015476Y015571D01*
X015495Y015589D01*
X015517Y015603D01*
X015540Y015615D01*
X015565Y015623D01*
X015591Y015628D01*
X015617Y015630D01*
X016017Y027180D02*
X016019Y027141D01*
X016025Y027102D01*
X016034Y027064D01*
X016047Y027027D01*
X016064Y026991D01*
X016084Y026958D01*
X016108Y026926D01*
X016134Y026897D01*
X016163Y026871D01*
X016195Y026847D01*
X016228Y026827D01*
X016264Y026810D01*
X016301Y026797D01*
X016339Y026788D01*
X016378Y026782D01*
X016417Y026780D01*
X016456Y026782D01*
X016495Y026788D01*
X016533Y026797D01*
X016570Y026810D01*
X016606Y026827D01*
X016639Y026847D01*
X016671Y026871D01*
X016700Y026897D01*
X016726Y026926D01*
X016750Y026958D01*
X016770Y026991D01*
X016787Y027027D01*
X016800Y027064D01*
X016809Y027102D01*
X016815Y027141D01*
X016817Y027180D01*
X017167Y027230D02*
X017193Y027232D01*
X017219Y027237D01*
X017244Y027245D01*
X017267Y027257D01*
X017289Y027271D01*
X017308Y027289D01*
X017326Y027308D01*
X017340Y027330D01*
X017352Y027353D01*
X017360Y027378D01*
X017365Y027404D01*
X017367Y027430D01*
X017367Y027930D01*
X017365Y027956D01*
X017360Y027982D01*
X017352Y028007D01*
X017340Y028030D01*
X017326Y028052D01*
X017308Y028071D01*
X017289Y028089D01*
X017267Y028103D01*
X017244Y028115D01*
X017219Y028123D01*
X017193Y028128D01*
X017167Y028130D01*
X015867Y028130D01*
X015841Y028128D01*
X015815Y028123D01*
X015790Y028115D01*
X015767Y028103D01*
X015745Y028089D01*
X015726Y028071D01*
X015708Y028052D01*
X015694Y028030D01*
X015682Y028007D01*
X015674Y027982D01*
X015669Y027956D01*
X015667Y027930D01*
X015667Y027430D01*
X015669Y027404D01*
X015674Y027378D01*
X015682Y027353D01*
X015694Y027330D01*
X015708Y027308D01*
X015726Y027289D01*
X015745Y027271D01*
X015767Y027257D01*
X015790Y027245D01*
X015815Y027237D01*
X015841Y027232D01*
X015867Y027230D01*
X017917Y029930D02*
X018617Y029930D01*
X018634Y029932D01*
X018651Y029936D01*
X018667Y029943D01*
X018681Y029953D01*
X018694Y029966D01*
X018704Y029980D01*
X018711Y029996D01*
X018715Y030013D01*
X018717Y030030D01*
X018717Y030180D01*
X018667Y030230D01*
X018667Y032130D01*
X018717Y032180D01*
X018717Y032330D01*
X018715Y032347D01*
X018711Y032364D01*
X018704Y032380D01*
X018694Y032394D01*
X018681Y032407D01*
X018667Y032417D01*
X018651Y032424D01*
X018634Y032428D01*
X018617Y032430D01*
X017917Y032430D01*
X017900Y032428D01*
X017883Y032424D01*
X017867Y032417D01*
X017853Y032407D01*
X017840Y032394D01*
X017830Y032380D01*
X017823Y032364D01*
X017819Y032347D01*
X017817Y032330D01*
X017817Y032180D01*
X017867Y032130D01*
X017867Y030230D01*
X017817Y030180D01*
X017817Y030030D01*
X017819Y030013D01*
X017823Y029996D01*
X017830Y029980D01*
X017840Y029966D01*
X017853Y029953D01*
X017867Y029943D01*
X017883Y029936D01*
X017900Y029932D01*
X017917Y029930D01*
X018817Y030530D02*
X018817Y031830D01*
X018819Y031856D01*
X018824Y031882D01*
X018832Y031907D01*
X018844Y031930D01*
X018858Y031952D01*
X018876Y031971D01*
X018895Y031989D01*
X018917Y032003D01*
X018940Y032015D01*
X018965Y032023D01*
X018991Y032028D01*
X019017Y032030D01*
X019517Y032030D01*
X019543Y032028D01*
X019569Y032023D01*
X019594Y032015D01*
X019617Y032003D01*
X019639Y031989D01*
X019658Y031971D01*
X019676Y031952D01*
X019690Y031930D01*
X019702Y031907D01*
X019710Y031882D01*
X019715Y031856D01*
X019717Y031830D01*
X019717Y030530D01*
X019715Y030504D01*
X019710Y030478D01*
X019702Y030453D01*
X019690Y030430D01*
X019676Y030408D01*
X019658Y030389D01*
X019639Y030371D01*
X019617Y030357D01*
X019594Y030345D01*
X019569Y030337D01*
X019543Y030332D01*
X019517Y030330D01*
X019017Y030330D01*
X018991Y030332D01*
X018965Y030337D01*
X018940Y030345D01*
X018917Y030357D01*
X018895Y030371D01*
X018876Y030389D01*
X018858Y030408D01*
X018844Y030430D01*
X018832Y030453D01*
X018824Y030478D01*
X018819Y030504D01*
X018817Y030530D01*
X030867Y029180D02*
X031617Y029180D01*
X031619Y029219D01*
X031625Y029258D01*
X031634Y029296D01*
X031647Y029333D01*
X031664Y029369D01*
X031684Y029402D01*
X031708Y029434D01*
X031734Y029463D01*
X031763Y029489D01*
X031795Y029513D01*
X031828Y029533D01*
X031864Y029550D01*
X031901Y029563D01*
X031939Y029572D01*
X031978Y029578D01*
X032017Y029580D01*
X032056Y029578D01*
X032095Y029572D01*
X032133Y029563D01*
X032170Y029550D01*
X032206Y029533D01*
X032239Y029513D01*
X032271Y029489D01*
X032300Y029463D01*
X032326Y029434D01*
X032350Y029402D01*
X032370Y029369D01*
X032387Y029333D01*
X032400Y029296D01*
X032409Y029258D01*
X032415Y029219D01*
X032417Y029180D01*
X033167Y029180D01*
X033167Y036180D01*
X030867Y036180D01*
X030867Y029180D01*
X032417Y027930D02*
X032417Y027430D01*
X032419Y027404D01*
X032424Y027378D01*
X032432Y027353D01*
X032444Y027330D01*
X032458Y027308D01*
X032476Y027289D01*
X032495Y027271D01*
X032517Y027257D01*
X032540Y027245D01*
X032565Y027237D01*
X032591Y027232D01*
X032617Y027230D01*
X033917Y027230D01*
X033943Y027232D01*
X033969Y027237D01*
X033994Y027245D01*
X034017Y027257D01*
X034039Y027271D01*
X034058Y027289D01*
X034076Y027308D01*
X034090Y027330D01*
X034102Y027353D01*
X034110Y027378D01*
X034115Y027404D01*
X034117Y027430D01*
X034117Y027930D01*
X034115Y027956D01*
X034110Y027982D01*
X034102Y028007D01*
X034090Y028030D01*
X034076Y028052D01*
X034058Y028071D01*
X034039Y028089D01*
X034017Y028103D01*
X033994Y028115D01*
X033969Y028123D01*
X033943Y028128D01*
X033917Y028130D01*
X032617Y028130D01*
X032591Y028128D01*
X032565Y028123D01*
X032540Y028115D01*
X032517Y028103D01*
X032495Y028089D01*
X032476Y028071D01*
X032458Y028052D01*
X032444Y028030D01*
X032432Y028007D01*
X032424Y027982D01*
X032419Y027956D01*
X032417Y027930D01*
X034450Y028676D02*
X037950Y028676D01*
X037950Y030176D01*
X037900Y030176D01*
X037900Y030676D01*
X037950Y030676D01*
X037950Y030876D01*
X037550Y030876D01*
X037450Y030876D01*
X037450Y029176D01*
X034950Y029176D01*
X034950Y034176D01*
X037450Y034176D01*
X037450Y032476D01*
X037550Y032476D01*
X037950Y032476D01*
X037950Y030876D01*
X037450Y030876D02*
X037150Y030876D01*
X037150Y032476D01*
X037450Y032476D01*
X037950Y032476D02*
X037950Y034676D01*
X034450Y034676D01*
X034450Y034176D01*
X034350Y034176D01*
X034350Y033676D01*
X034450Y033676D01*
X034450Y031926D01*
X034350Y031926D01*
X034350Y031426D01*
X034450Y031426D01*
X034450Y029676D01*
X034350Y029676D01*
X034350Y029176D01*
X034450Y029176D01*
X034450Y028676D01*
X038773Y028672D02*
X038773Y034688D01*
X036281Y036794D02*
X036283Y036867D01*
X036289Y036940D01*
X036299Y037012D01*
X036313Y037084D01*
X036330Y037155D01*
X036352Y037225D01*
X036377Y037294D01*
X036406Y037361D01*
X036438Y037426D01*
X036474Y037490D01*
X036514Y037552D01*
X036556Y037611D01*
X036602Y037668D01*
X036651Y037722D01*
X036703Y037774D01*
X036757Y037823D01*
X036814Y037869D01*
X036873Y037911D01*
X036935Y037951D01*
X036999Y037987D01*
X037064Y038019D01*
X037131Y038048D01*
X037200Y038073D01*
X037270Y038095D01*
X037341Y038112D01*
X037413Y038126D01*
X037485Y038136D01*
X037558Y038142D01*
X037631Y038144D01*
X037704Y038142D01*
X037777Y038136D01*
X037849Y038126D01*
X037921Y038112D01*
X037992Y038095D01*
X038062Y038073D01*
X038131Y038048D01*
X038198Y038019D01*
X038263Y037987D01*
X038327Y037951D01*
X038389Y037911D01*
X038448Y037869D01*
X038505Y037823D01*
X038559Y037774D01*
X038611Y037722D01*
X038660Y037668D01*
X038706Y037611D01*
X038748Y037552D01*
X038788Y037490D01*
X038824Y037426D01*
X038856Y037361D01*
X038885Y037294D01*
X038910Y037225D01*
X038932Y037155D01*
X038949Y037084D01*
X038963Y037012D01*
X038973Y036940D01*
X038979Y036867D01*
X038981Y036794D01*
X038979Y036721D01*
X038973Y036648D01*
X038963Y036576D01*
X038949Y036504D01*
X038932Y036433D01*
X038910Y036363D01*
X038885Y036294D01*
X038856Y036227D01*
X038824Y036162D01*
X038788Y036098D01*
X038748Y036036D01*
X038706Y035977D01*
X038660Y035920D01*
X038611Y035866D01*
X038559Y035814D01*
X038505Y035765D01*
X038448Y035719D01*
X038389Y035677D01*
X038327Y035637D01*
X038263Y035601D01*
X038198Y035569D01*
X038131Y035540D01*
X038062Y035515D01*
X037992Y035493D01*
X037921Y035476D01*
X037849Y035462D01*
X037777Y035452D01*
X037704Y035446D01*
X037631Y035444D01*
X037558Y035446D01*
X037485Y035452D01*
X037413Y035462D01*
X037341Y035476D01*
X037270Y035493D01*
X037200Y035515D01*
X037131Y035540D01*
X037064Y035569D01*
X036999Y035601D01*
X036935Y035637D01*
X036873Y035677D01*
X036814Y035719D01*
X036757Y035765D01*
X036703Y035814D01*
X036651Y035866D01*
X036602Y035920D01*
X036556Y035977D01*
X036514Y036036D01*
X036474Y036098D01*
X036438Y036162D01*
X036406Y036227D01*
X036377Y036294D01*
X036352Y036363D01*
X036330Y036433D01*
X036313Y036504D01*
X036299Y036576D01*
X036289Y036648D01*
X036283Y036721D01*
X036281Y036794D01*
X035217Y036580D02*
X035217Y035280D01*
X035215Y035254D01*
X035210Y035228D01*
X035202Y035203D01*
X035190Y035180D01*
X035176Y035158D01*
X035158Y035139D01*
X035139Y035121D01*
X035117Y035107D01*
X035094Y035095D01*
X035069Y035087D01*
X035043Y035082D01*
X035017Y035080D01*
X034517Y035080D01*
X034491Y035082D01*
X034465Y035087D01*
X034440Y035095D01*
X034417Y035107D01*
X034395Y035121D01*
X034376Y035139D01*
X034358Y035158D01*
X034344Y035180D01*
X034332Y035203D01*
X034324Y035228D01*
X034319Y035254D01*
X034317Y035280D01*
X034317Y036580D01*
X034319Y036606D01*
X034324Y036632D01*
X034332Y036657D01*
X034344Y036680D01*
X034358Y036702D01*
X034376Y036721D01*
X034395Y036739D01*
X034417Y036753D01*
X034440Y036765D01*
X034465Y036773D01*
X034491Y036778D01*
X034517Y036780D01*
X035017Y036780D01*
X035043Y036778D01*
X035069Y036773D01*
X035094Y036765D01*
X035117Y036753D01*
X035139Y036739D01*
X035158Y036721D01*
X035176Y036702D01*
X035190Y036680D01*
X035202Y036657D01*
X035210Y036632D01*
X035215Y036606D01*
X035217Y036580D01*
X033517Y037830D02*
X033517Y038530D01*
X033515Y038547D01*
X033511Y038564D01*
X033504Y038580D01*
X033494Y038594D01*
X033481Y038607D01*
X033467Y038617D01*
X033451Y038624D01*
X033434Y038628D01*
X033417Y038630D01*
X033267Y038630D01*
X033217Y038580D01*
X031317Y038580D01*
X031267Y038630D01*
X031117Y038630D01*
X031100Y038628D01*
X031083Y038624D01*
X031067Y038617D01*
X031053Y038607D01*
X031040Y038594D01*
X031030Y038580D01*
X031023Y038564D01*
X031019Y038547D01*
X031017Y038530D01*
X031017Y037830D01*
X031019Y037813D01*
X031023Y037796D01*
X031030Y037780D01*
X031040Y037766D01*
X031053Y037753D01*
X031067Y037743D01*
X031083Y037736D01*
X031100Y037732D01*
X031117Y037730D01*
X031267Y037730D01*
X031317Y037780D01*
X033217Y037780D01*
X033267Y037730D01*
X033417Y037730D01*
X033434Y037732D01*
X033451Y037736D01*
X033467Y037743D01*
X033481Y037753D01*
X033494Y037766D01*
X033504Y037780D01*
X033511Y037796D01*
X033515Y037813D01*
X033517Y037830D01*
X032867Y037180D02*
X032867Y036680D01*
X032865Y036654D01*
X032860Y036628D01*
X032852Y036603D01*
X032840Y036580D01*
X032826Y036558D01*
X032808Y036539D01*
X032789Y036521D01*
X032767Y036507D01*
X032744Y036495D01*
X032719Y036487D01*
X032693Y036482D01*
X032667Y036480D01*
X031367Y036480D01*
X031341Y036482D01*
X031315Y036487D01*
X031290Y036495D01*
X031267Y036507D01*
X031245Y036521D01*
X031226Y036539D01*
X031208Y036558D01*
X031194Y036580D01*
X031182Y036603D01*
X031174Y036628D01*
X031169Y036654D01*
X031167Y036680D01*
X031167Y037180D01*
X031169Y037206D01*
X031174Y037232D01*
X031182Y037257D01*
X031194Y037280D01*
X031208Y037302D01*
X031226Y037321D01*
X031245Y037339D01*
X031267Y037353D01*
X031290Y037365D01*
X031315Y037373D01*
X031341Y037378D01*
X031367Y037380D01*
X032667Y037380D01*
X032693Y037378D01*
X032719Y037373D01*
X032744Y037365D01*
X032767Y037353D01*
X032789Y037339D01*
X032808Y037321D01*
X032826Y037302D01*
X032840Y037280D01*
X032852Y037257D01*
X032860Y037232D01*
X032865Y037206D01*
X032867Y037180D01*
X039512Y026731D02*
X039912Y026731D01*
X002423Y002936D02*
X002425Y003009D01*
X002431Y003082D01*
X002441Y003154D01*
X002455Y003226D01*
X002472Y003297D01*
X002494Y003367D01*
X002519Y003436D01*
X002548Y003503D01*
X002580Y003568D01*
X002616Y003632D01*
X002656Y003694D01*
X002698Y003753D01*
X002744Y003810D01*
X002793Y003864D01*
X002845Y003916D01*
X002899Y003965D01*
X002956Y004011D01*
X003015Y004053D01*
X003077Y004093D01*
X003141Y004129D01*
X003206Y004161D01*
X003273Y004190D01*
X003342Y004215D01*
X003412Y004237D01*
X003483Y004254D01*
X003555Y004268D01*
X003627Y004278D01*
X003700Y004284D01*
X003773Y004286D01*
X003846Y004284D01*
X003919Y004278D01*
X003991Y004268D01*
X004063Y004254D01*
X004134Y004237D01*
X004204Y004215D01*
X004273Y004190D01*
X004340Y004161D01*
X004405Y004129D01*
X004469Y004093D01*
X004531Y004053D01*
X004590Y004011D01*
X004647Y003965D01*
X004701Y003916D01*
X004753Y003864D01*
X004802Y003810D01*
X004848Y003753D01*
X004890Y003694D01*
X004930Y003632D01*
X004966Y003568D01*
X004998Y003503D01*
X005027Y003436D01*
X005052Y003367D01*
X005074Y003297D01*
X005091Y003226D01*
X005105Y003154D01*
X005115Y003082D01*
X005121Y003009D01*
X005123Y002936D01*
X005121Y002863D01*
X005115Y002790D01*
X005105Y002718D01*
X005091Y002646D01*
X005074Y002575D01*
X005052Y002505D01*
X005027Y002436D01*
X004998Y002369D01*
X004966Y002304D01*
X004930Y002240D01*
X004890Y002178D01*
X004848Y002119D01*
X004802Y002062D01*
X004753Y002008D01*
X004701Y001956D01*
X004647Y001907D01*
X004590Y001861D01*
X004531Y001819D01*
X004469Y001779D01*
X004405Y001743D01*
X004340Y001711D01*
X004273Y001682D01*
X004204Y001657D01*
X004134Y001635D01*
X004063Y001618D01*
X003991Y001604D01*
X003919Y001594D01*
X003846Y001588D01*
X003773Y001586D01*
X003700Y001588D01*
X003627Y001594D01*
X003555Y001604D01*
X003483Y001618D01*
X003412Y001635D01*
X003342Y001657D01*
X003273Y001682D01*
X003206Y001711D01*
X003141Y001743D01*
X003077Y001779D01*
X003015Y001819D01*
X002956Y001861D01*
X002899Y001907D01*
X002845Y001956D01*
X002793Y002008D01*
X002744Y002062D01*
X002698Y002119D01*
X002656Y002178D01*
X002616Y002240D01*
X002580Y002304D01*
X002548Y002369D01*
X002519Y002436D01*
X002494Y002505D01*
X002472Y002575D01*
X002455Y002646D01*
X002441Y002718D01*
X002431Y002790D01*
X002425Y002863D01*
X002423Y002936D01*
D13*
X013282Y001565D02*
X013282Y001195D01*
X013529Y001195D01*
X013650Y001195D02*
X013773Y001195D01*
X013712Y001195D02*
X013712Y001442D01*
X013650Y001442D01*
X013712Y001565D02*
X013712Y001627D01*
X013957Y001442D02*
X013896Y001380D01*
X013896Y001257D01*
X013957Y001195D01*
X014142Y001195D01*
X014264Y001257D02*
X014264Y001380D01*
X014326Y001442D01*
X014449Y001442D01*
X014511Y001380D01*
X014511Y001318D01*
X014264Y001318D01*
X014264Y001257D02*
X014326Y001195D01*
X014449Y001195D01*
X014632Y001195D02*
X014632Y001442D01*
X014817Y001442D01*
X014879Y001380D01*
X014879Y001195D01*
X015000Y001195D02*
X015186Y001195D01*
X015247Y001257D01*
X015186Y001318D01*
X015062Y001318D01*
X015000Y001380D01*
X015062Y001442D01*
X015247Y001442D01*
X015369Y001380D02*
X015430Y001442D01*
X015554Y001442D01*
X015616Y001380D01*
X015616Y001318D01*
X015369Y001318D01*
X015369Y001257D02*
X015369Y001380D01*
X015369Y001257D02*
X015430Y001195D01*
X015554Y001195D01*
X015737Y001195D02*
X015737Y001257D01*
X015799Y001257D01*
X015799Y001195D01*
X015737Y001195D01*
X015737Y001380D02*
X015737Y001442D01*
X015799Y001442D01*
X015799Y001380D01*
X015737Y001380D01*
X016290Y001257D02*
X016351Y001195D01*
X016475Y001195D01*
X016536Y001257D01*
X016658Y001195D02*
X016658Y001565D01*
X016905Y001565D01*
X017026Y001565D02*
X017211Y001565D01*
X017273Y001504D01*
X017273Y001380D01*
X017211Y001318D01*
X017026Y001318D01*
X017026Y001195D02*
X017026Y001565D01*
X017150Y001318D02*
X017273Y001195D01*
X017395Y001195D02*
X017395Y001565D01*
X017641Y001195D01*
X017641Y001565D01*
X017763Y001380D02*
X018010Y001380D01*
X018131Y001257D02*
X018193Y001195D01*
X018316Y001195D01*
X018378Y001257D01*
X018378Y001504D01*
X018316Y001565D01*
X018193Y001565D01*
X018131Y001504D01*
X018131Y001257D01*
X018499Y001195D02*
X018499Y001565D01*
X018499Y001380D02*
X018746Y001380D01*
X018746Y001565D02*
X018746Y001195D01*
X018868Y001195D02*
X019115Y001195D01*
X019236Y001380D02*
X019483Y001380D01*
X019604Y001318D02*
X019790Y001318D01*
X019851Y001380D01*
X019851Y001504D01*
X019790Y001565D01*
X019604Y001565D01*
X019604Y001195D01*
X020341Y001318D02*
X020464Y001195D01*
X020588Y001318D01*
X020588Y001565D01*
X020709Y001504D02*
X020771Y001565D01*
X020894Y001565D01*
X020956Y001504D01*
X020956Y001442D01*
X020709Y001195D01*
X020956Y001195D01*
X020341Y001318D02*
X020341Y001565D01*
X018868Y001565D02*
X018868Y001195D01*
X016905Y001195D02*
X016658Y001195D01*
X016658Y001380D02*
X016781Y001380D01*
X016536Y001504D02*
X016475Y001565D01*
X016351Y001565D01*
X016290Y001504D01*
X016290Y001257D01*
X014142Y001442D02*
X013957Y001442D01*
X022551Y001442D02*
X022613Y001442D01*
X022613Y001195D01*
X022674Y001195D02*
X022551Y001195D01*
X022796Y001195D02*
X022796Y001442D01*
X022982Y001442D01*
X023043Y001380D01*
X023043Y001195D01*
X023226Y001195D02*
X023226Y001504D01*
X023288Y001565D01*
X023288Y001380D02*
X023165Y001380D01*
X023410Y001380D02*
X023410Y001257D01*
X023472Y001195D01*
X023595Y001195D01*
X023657Y001257D01*
X023657Y001380D01*
X023595Y001442D01*
X023472Y001442D01*
X023410Y001380D01*
X023779Y001257D02*
X023840Y001195D01*
X023964Y001195D01*
X024026Y001257D01*
X023964Y001318D02*
X024026Y001380D01*
X024026Y001504D01*
X023964Y001565D01*
X023840Y001565D01*
X023779Y001504D01*
X023779Y001257D01*
X023840Y001318D02*
X023840Y001442D01*
X023964Y001442D01*
X023964Y001318D01*
X023840Y001318D01*
X024147Y001442D02*
X024270Y001195D01*
X024394Y001442D01*
X024515Y001442D02*
X024577Y001442D01*
X024577Y001195D01*
X024515Y001195D02*
X024639Y001195D01*
X024761Y001195D02*
X024761Y001442D01*
X024884Y001442D02*
X024761Y001318D01*
X024884Y001442D02*
X024946Y001442D01*
X025068Y001442D02*
X025191Y001442D01*
X025129Y001504D02*
X025129Y001257D01*
X025191Y001195D01*
X025313Y001257D02*
X025375Y001195D01*
X025560Y001195D01*
X025560Y001442D01*
X025743Y001442D02*
X025867Y001442D01*
X025928Y001380D01*
X025928Y001195D01*
X025743Y001195D01*
X025682Y001257D01*
X025743Y001318D01*
X025928Y001318D01*
X026050Y001195D02*
X026173Y001195D01*
X026112Y001195D02*
X026112Y001565D01*
X026050Y001565D01*
X026295Y001380D02*
X026357Y001442D01*
X026542Y001442D01*
X026664Y001442D02*
X026725Y001442D01*
X026725Y001195D01*
X026664Y001195D02*
X026787Y001195D01*
X026909Y001195D02*
X027033Y001195D01*
X026971Y001195D02*
X026971Y001565D01*
X026909Y001565D01*
X026725Y001565D02*
X026725Y001627D01*
X026481Y001318D02*
X026357Y001318D01*
X026295Y001380D01*
X026295Y001195D02*
X026481Y001195D01*
X026542Y001257D01*
X026481Y001318D01*
X027155Y001195D02*
X027278Y001195D01*
X027217Y001195D02*
X027217Y001442D01*
X027155Y001442D01*
X027217Y001565D02*
X027217Y001627D01*
X027462Y001442D02*
X027400Y001380D01*
X027400Y001257D01*
X027462Y001195D01*
X027647Y001195D01*
X027769Y001257D02*
X027830Y001195D01*
X027954Y001195D01*
X028016Y001257D01*
X028016Y001380D01*
X027954Y001442D01*
X027830Y001442D01*
X027769Y001380D01*
X027769Y001257D01*
X027647Y001442D02*
X027462Y001442D01*
X028137Y001442D02*
X028137Y001195D01*
X028137Y001442D02*
X028322Y001442D01*
X028384Y001380D01*
X028384Y001195D01*
X028505Y001195D02*
X028505Y001257D01*
X028567Y001257D01*
X028567Y001195D01*
X028505Y001195D01*
X028689Y001257D02*
X028751Y001195D01*
X028936Y001195D01*
X029058Y001195D02*
X029058Y001565D01*
X029120Y001442D02*
X029243Y001442D01*
X029305Y001380D01*
X029305Y001195D01*
X029058Y001380D02*
X029120Y001442D01*
X028936Y001442D02*
X028751Y001442D01*
X028689Y001380D01*
X028689Y001257D01*
X025313Y001257D02*
X025313Y001442D01*
X024577Y001565D02*
X024577Y001627D01*
X022613Y001627D02*
X022613Y001565D01*
D14*
X036962Y002936D02*
X036964Y002987D01*
X036970Y003038D01*
X036980Y003088D01*
X036993Y003138D01*
X037011Y003186D01*
X037031Y003233D01*
X037056Y003278D01*
X037084Y003321D01*
X037115Y003362D01*
X037149Y003400D01*
X037186Y003435D01*
X037225Y003468D01*
X037267Y003498D01*
X037311Y003524D01*
X037357Y003546D01*
X037405Y003566D01*
X037454Y003581D01*
X037504Y003593D01*
X037554Y003601D01*
X037605Y003605D01*
X037657Y003605D01*
X037708Y003601D01*
X037758Y003593D01*
X037808Y003581D01*
X037857Y003566D01*
X037905Y003546D01*
X037951Y003524D01*
X037995Y003498D01*
X038037Y003468D01*
X038076Y003435D01*
X038113Y003400D01*
X038147Y003362D01*
X038178Y003321D01*
X038206Y003278D01*
X038231Y003233D01*
X038251Y003186D01*
X038269Y003138D01*
X038282Y003088D01*
X038292Y003038D01*
X038298Y002987D01*
X038300Y002936D01*
X038298Y002885D01*
X038292Y002834D01*
X038282Y002784D01*
X038269Y002734D01*
X038251Y002686D01*
X038231Y002639D01*
X038206Y002594D01*
X038178Y002551D01*
X038147Y002510D01*
X038113Y002472D01*
X038076Y002437D01*
X038037Y002404D01*
X037995Y002374D01*
X037951Y002348D01*
X037905Y002326D01*
X037857Y002306D01*
X037808Y002291D01*
X037758Y002279D01*
X037708Y002271D01*
X037657Y002267D01*
X037605Y002267D01*
X037554Y002271D01*
X037504Y002279D01*
X037454Y002291D01*
X037405Y002306D01*
X037357Y002326D01*
X037311Y002348D01*
X037267Y002374D01*
X037225Y002404D01*
X037186Y002437D01*
X037149Y002472D01*
X037115Y002510D01*
X037084Y002551D01*
X037056Y002594D01*
X037031Y002639D01*
X037011Y002686D01*
X036993Y002734D01*
X036980Y002784D01*
X036970Y002834D01*
X036964Y002885D01*
X036962Y002936D01*
X004111Y029922D02*
X003993Y029922D01*
X003993Y033922D01*
X004111Y033922D01*
X004111Y029922D01*
X003993Y029922D02*
X003827Y029922D01*
X003748Y029922D01*
X003748Y033922D01*
X003993Y033922D01*
X003748Y033922D02*
X003480Y033922D01*
X003287Y033922D01*
X001713Y033922D01*
X001523Y033922D01*
X000922Y033922D01*
X000922Y029922D01*
X001523Y029922D01*
X001713Y029922D01*
X003287Y029922D01*
X003480Y029922D01*
X003480Y033922D01*
X001753Y032922D02*
X001755Y032976D01*
X001761Y033031D01*
X001771Y033084D01*
X001784Y033137D01*
X001802Y033188D01*
X001823Y033239D01*
X001847Y033287D01*
X001875Y033334D01*
X001907Y033378D01*
X001941Y033420D01*
X001979Y033460D01*
X002019Y033497D01*
X002062Y033530D01*
X002107Y033561D01*
X002154Y033588D01*
X002203Y033612D01*
X002253Y033632D01*
X002305Y033649D01*
X002358Y033661D01*
X002412Y033670D01*
X002466Y033675D01*
X002521Y033676D01*
X002575Y033673D01*
X002629Y033666D01*
X002682Y033655D01*
X002735Y033641D01*
X002786Y033622D01*
X002836Y033600D01*
X002884Y033575D01*
X002930Y033546D01*
X002974Y033514D01*
X003016Y033479D01*
X003054Y033441D01*
X003090Y033400D01*
X003123Y033356D01*
X003153Y033311D01*
X003179Y033263D01*
X003202Y033214D01*
X003222Y033163D01*
X003237Y033111D01*
X003249Y033057D01*
X003257Y033004D01*
X003261Y032949D01*
X003261Y032895D01*
X003257Y032840D01*
X003249Y032787D01*
X003237Y032733D01*
X003222Y032681D01*
X003202Y032630D01*
X003179Y032581D01*
X003153Y032533D01*
X003123Y032488D01*
X003090Y032444D01*
X003054Y032403D01*
X003016Y032365D01*
X002974Y032330D01*
X002930Y032298D01*
X002884Y032269D01*
X002836Y032244D01*
X002786Y032222D01*
X002735Y032203D01*
X002682Y032189D01*
X002629Y032178D01*
X002575Y032171D01*
X002521Y032168D01*
X002466Y032169D01*
X002412Y032174D01*
X002358Y032183D01*
X002305Y032195D01*
X002253Y032212D01*
X002203Y032232D01*
X002154Y032256D01*
X002107Y032283D01*
X002062Y032314D01*
X002019Y032347D01*
X001979Y032384D01*
X001941Y032424D01*
X001907Y032466D01*
X001875Y032510D01*
X001847Y032557D01*
X001823Y032605D01*
X001802Y032656D01*
X001784Y032707D01*
X001771Y032760D01*
X001761Y032813D01*
X001755Y032868D01*
X001753Y032922D01*
X001523Y033922D02*
X001523Y029922D01*
X001753Y030922D02*
X001755Y030976D01*
X001761Y031031D01*
X001771Y031084D01*
X001784Y031137D01*
X001802Y031188D01*
X001823Y031239D01*
X001847Y031287D01*
X001875Y031334D01*
X001907Y031378D01*
X001941Y031420D01*
X001979Y031460D01*
X002019Y031497D01*
X002062Y031530D01*
X002107Y031561D01*
X002154Y031588D01*
X002203Y031612D01*
X002253Y031632D01*
X002305Y031649D01*
X002358Y031661D01*
X002412Y031670D01*
X002466Y031675D01*
X002521Y031676D01*
X002575Y031673D01*
X002629Y031666D01*
X002682Y031655D01*
X002735Y031641D01*
X002786Y031622D01*
X002836Y031600D01*
X002884Y031575D01*
X002930Y031546D01*
X002974Y031514D01*
X003016Y031479D01*
X003054Y031441D01*
X003090Y031400D01*
X003123Y031356D01*
X003153Y031311D01*
X003179Y031263D01*
X003202Y031214D01*
X003222Y031163D01*
X003237Y031111D01*
X003249Y031057D01*
X003257Y031004D01*
X003261Y030949D01*
X003261Y030895D01*
X003257Y030840D01*
X003249Y030787D01*
X003237Y030733D01*
X003222Y030681D01*
X003202Y030630D01*
X003179Y030581D01*
X003153Y030533D01*
X003123Y030488D01*
X003090Y030444D01*
X003054Y030403D01*
X003016Y030365D01*
X002974Y030330D01*
X002930Y030298D01*
X002884Y030269D01*
X002836Y030244D01*
X002786Y030222D01*
X002735Y030203D01*
X002682Y030189D01*
X002629Y030178D01*
X002575Y030171D01*
X002521Y030168D01*
X002466Y030169D01*
X002412Y030174D01*
X002358Y030183D01*
X002305Y030195D01*
X002253Y030212D01*
X002203Y030232D01*
X002154Y030256D01*
X002107Y030283D01*
X002062Y030314D01*
X002019Y030347D01*
X001979Y030384D01*
X001941Y030424D01*
X001907Y030466D01*
X001875Y030510D01*
X001847Y030557D01*
X001823Y030605D01*
X001802Y030656D01*
X001784Y030707D01*
X001771Y030760D01*
X001761Y030813D01*
X001755Y030868D01*
X001753Y030922D01*
X003480Y029922D02*
X003664Y029922D01*
X003748Y029922D01*
X003827Y029922D02*
X003827Y029871D01*
X003886Y029801D01*
X003886Y029697D01*
X003604Y029697D01*
X003604Y029801D01*
X003664Y029871D01*
X003664Y029922D01*
X003104Y036794D02*
X003106Y036845D01*
X003112Y036896D01*
X003122Y036946D01*
X003135Y036996D01*
X003153Y037044D01*
X003173Y037091D01*
X003198Y037136D01*
X003226Y037179D01*
X003257Y037220D01*
X003291Y037258D01*
X003328Y037293D01*
X003367Y037326D01*
X003409Y037356D01*
X003453Y037382D01*
X003499Y037404D01*
X003547Y037424D01*
X003596Y037439D01*
X003646Y037451D01*
X003696Y037459D01*
X003747Y037463D01*
X003799Y037463D01*
X003850Y037459D01*
X003900Y037451D01*
X003950Y037439D01*
X003999Y037424D01*
X004047Y037404D01*
X004093Y037382D01*
X004137Y037356D01*
X004179Y037326D01*
X004218Y037293D01*
X004255Y037258D01*
X004289Y037220D01*
X004320Y037179D01*
X004348Y037136D01*
X004373Y037091D01*
X004393Y037044D01*
X004411Y036996D01*
X004424Y036946D01*
X004434Y036896D01*
X004440Y036845D01*
X004442Y036794D01*
X004440Y036743D01*
X004434Y036692D01*
X004424Y036642D01*
X004411Y036592D01*
X004393Y036544D01*
X004373Y036497D01*
X004348Y036452D01*
X004320Y036409D01*
X004289Y036368D01*
X004255Y036330D01*
X004218Y036295D01*
X004179Y036262D01*
X004137Y036232D01*
X004093Y036206D01*
X004047Y036184D01*
X003999Y036164D01*
X003950Y036149D01*
X003900Y036137D01*
X003850Y036129D01*
X003799Y036125D01*
X003747Y036125D01*
X003696Y036129D01*
X003646Y036137D01*
X003596Y036149D01*
X003547Y036164D01*
X003499Y036184D01*
X003453Y036206D01*
X003409Y036232D01*
X003367Y036262D01*
X003328Y036295D01*
X003291Y036330D01*
X003257Y036368D01*
X003226Y036409D01*
X003198Y036452D01*
X003173Y036497D01*
X003153Y036544D01*
X003135Y036592D01*
X003122Y036642D01*
X003112Y036692D01*
X003106Y036743D01*
X003104Y036794D01*
X012503Y036977D02*
X012503Y038867D01*
X017030Y038867D01*
X017030Y036977D01*
X012503Y036977D01*
X036962Y036794D02*
X036964Y036845D01*
X036970Y036896D01*
X036980Y036946D01*
X036993Y036996D01*
X037011Y037044D01*
X037031Y037091D01*
X037056Y037136D01*
X037084Y037179D01*
X037115Y037220D01*
X037149Y037258D01*
X037186Y037293D01*
X037225Y037326D01*
X037267Y037356D01*
X037311Y037382D01*
X037357Y037404D01*
X037405Y037424D01*
X037454Y037439D01*
X037504Y037451D01*
X037554Y037459D01*
X037605Y037463D01*
X037657Y037463D01*
X037708Y037459D01*
X037758Y037451D01*
X037808Y037439D01*
X037857Y037424D01*
X037905Y037404D01*
X037951Y037382D01*
X037995Y037356D01*
X038037Y037326D01*
X038076Y037293D01*
X038113Y037258D01*
X038147Y037220D01*
X038178Y037179D01*
X038206Y037136D01*
X038231Y037091D01*
X038251Y037044D01*
X038269Y036996D01*
X038282Y036946D01*
X038292Y036896D01*
X038298Y036845D01*
X038300Y036794D01*
X038298Y036743D01*
X038292Y036692D01*
X038282Y036642D01*
X038269Y036592D01*
X038251Y036544D01*
X038231Y036497D01*
X038206Y036452D01*
X038178Y036409D01*
X038147Y036368D01*
X038113Y036330D01*
X038076Y036295D01*
X038037Y036262D01*
X037995Y036232D01*
X037951Y036206D01*
X037905Y036184D01*
X037857Y036164D01*
X037808Y036149D01*
X037758Y036137D01*
X037708Y036129D01*
X037657Y036125D01*
X037605Y036125D01*
X037554Y036129D01*
X037504Y036137D01*
X037454Y036149D01*
X037405Y036164D01*
X037357Y036184D01*
X037311Y036206D01*
X037267Y036232D01*
X037225Y036262D01*
X037186Y036295D01*
X037149Y036330D01*
X037115Y036368D01*
X037084Y036409D01*
X037056Y036452D01*
X037031Y036497D01*
X037011Y036544D01*
X036993Y036592D01*
X036980Y036642D01*
X036970Y036692D01*
X036964Y036743D01*
X036962Y036794D01*
X003104Y002936D02*
X003106Y002987D01*
X003112Y003038D01*
X003122Y003088D01*
X003135Y003138D01*
X003153Y003186D01*
X003173Y003233D01*
X003198Y003278D01*
X003226Y003321D01*
X003257Y003362D01*
X003291Y003400D01*
X003328Y003435D01*
X003367Y003468D01*
X003409Y003498D01*
X003453Y003524D01*
X003499Y003546D01*
X003547Y003566D01*
X003596Y003581D01*
X003646Y003593D01*
X003696Y003601D01*
X003747Y003605D01*
X003799Y003605D01*
X003850Y003601D01*
X003900Y003593D01*
X003950Y003581D01*
X003999Y003566D01*
X004047Y003546D01*
X004093Y003524D01*
X004137Y003498D01*
X004179Y003468D01*
X004218Y003435D01*
X004255Y003400D01*
X004289Y003362D01*
X004320Y003321D01*
X004348Y003278D01*
X004373Y003233D01*
X004393Y003186D01*
X004411Y003138D01*
X004424Y003088D01*
X004434Y003038D01*
X004440Y002987D01*
X004442Y002936D01*
X004440Y002885D01*
X004434Y002834D01*
X004424Y002784D01*
X004411Y002734D01*
X004393Y002686D01*
X004373Y002639D01*
X004348Y002594D01*
X004320Y002551D01*
X004289Y002510D01*
X004255Y002472D01*
X004218Y002437D01*
X004179Y002404D01*
X004137Y002374D01*
X004093Y002348D01*
X004047Y002326D01*
X003999Y002306D01*
X003950Y002291D01*
X003900Y002279D01*
X003850Y002271D01*
X003799Y002267D01*
X003747Y002267D01*
X003696Y002271D01*
X003646Y002279D01*
X003596Y002291D01*
X003547Y002306D01*
X003499Y002326D01*
X003453Y002348D01*
X003409Y002374D01*
X003367Y002404D01*
X003328Y002437D01*
X003291Y002472D01*
X003257Y002510D01*
X003226Y002551D01*
X003198Y002594D01*
X003173Y002639D01*
X003153Y002686D01*
X003135Y002734D01*
X003122Y002784D01*
X003112Y002834D01*
X003106Y002885D01*
X003104Y002936D01*
D15*
X003143Y002936D02*
X003145Y002986D01*
X003151Y003036D01*
X003161Y003085D01*
X003175Y003133D01*
X003192Y003180D01*
X003213Y003225D01*
X003238Y003269D01*
X003266Y003310D01*
X003298Y003349D01*
X003332Y003386D01*
X003369Y003420D01*
X003409Y003450D01*
X003451Y003477D01*
X003495Y003501D01*
X003541Y003522D01*
X003588Y003538D01*
X003636Y003551D01*
X003686Y003560D01*
X003735Y003565D01*
X003786Y003566D01*
X003836Y003563D01*
X003885Y003556D01*
X003934Y003545D01*
X003982Y003530D01*
X004028Y003512D01*
X004073Y003490D01*
X004116Y003464D01*
X004157Y003435D01*
X004196Y003403D01*
X004232Y003368D01*
X004264Y003330D01*
X004294Y003290D01*
X004321Y003247D01*
X004344Y003203D01*
X004363Y003157D01*
X004379Y003109D01*
X004391Y003060D01*
X004399Y003011D01*
X004403Y002961D01*
X004403Y002911D01*
X004399Y002861D01*
X004391Y002812D01*
X004379Y002763D01*
X004363Y002715D01*
X004344Y002669D01*
X004321Y002625D01*
X004294Y002582D01*
X004264Y002542D01*
X004232Y002504D01*
X004196Y002469D01*
X004157Y002437D01*
X004116Y002408D01*
X004073Y002382D01*
X004028Y002360D01*
X003982Y002342D01*
X003934Y002327D01*
X003885Y002316D01*
X003836Y002309D01*
X003786Y002306D01*
X003735Y002307D01*
X003686Y002312D01*
X003636Y002321D01*
X003588Y002334D01*
X003541Y002350D01*
X003495Y002371D01*
X003451Y002395D01*
X003409Y002422D01*
X003369Y002452D01*
X003332Y002486D01*
X003298Y002523D01*
X003266Y002562D01*
X003238Y002603D01*
X003213Y002647D01*
X003192Y002692D01*
X003175Y002739D01*
X003161Y002787D01*
X003151Y002836D01*
X003145Y002886D01*
X003143Y002936D01*
X004564Y029343D02*
X004566Y029385D01*
X004572Y029427D01*
X004582Y029469D01*
X004595Y029509D01*
X004613Y029548D01*
X004634Y029585D01*
X004658Y029619D01*
X004686Y029652D01*
X004716Y029682D01*
X004749Y029708D01*
X004784Y029732D01*
X004822Y029752D01*
X004861Y029768D01*
X004901Y029781D01*
X004943Y029790D01*
X004985Y029795D01*
X005028Y029796D01*
X005070Y029793D01*
X005112Y029786D01*
X005153Y029775D01*
X005193Y029760D01*
X005231Y029742D01*
X005268Y029720D01*
X005302Y029695D01*
X005334Y029667D01*
X005362Y029636D01*
X005388Y029602D01*
X005411Y029566D01*
X005430Y029529D01*
X005446Y029489D01*
X005458Y029448D01*
X005466Y029407D01*
X005470Y029364D01*
X005470Y029322D01*
X005466Y029279D01*
X005458Y029238D01*
X005446Y029197D01*
X005430Y029157D01*
X005411Y029120D01*
X005388Y029084D01*
X005362Y029050D01*
X005334Y029019D01*
X005302Y028991D01*
X005268Y028966D01*
X005231Y028944D01*
X005193Y028926D01*
X005153Y028911D01*
X005112Y028900D01*
X005070Y028893D01*
X005028Y028890D01*
X004985Y028891D01*
X004943Y028896D01*
X004901Y028905D01*
X004861Y028918D01*
X004822Y028934D01*
X004784Y028954D01*
X004749Y028978D01*
X004716Y029004D01*
X004686Y029034D01*
X004658Y029067D01*
X004634Y029101D01*
X004613Y029138D01*
X004595Y029177D01*
X004582Y029217D01*
X004572Y029259D01*
X004566Y029301D01*
X004564Y029343D01*
X004564Y034517D02*
X004566Y034559D01*
X004572Y034601D01*
X004582Y034643D01*
X004595Y034683D01*
X004613Y034722D01*
X004634Y034759D01*
X004658Y034793D01*
X004686Y034826D01*
X004716Y034856D01*
X004749Y034882D01*
X004784Y034906D01*
X004822Y034926D01*
X004861Y034942D01*
X004901Y034955D01*
X004943Y034964D01*
X004985Y034969D01*
X005028Y034970D01*
X005070Y034967D01*
X005112Y034960D01*
X005153Y034949D01*
X005193Y034934D01*
X005231Y034916D01*
X005268Y034894D01*
X005302Y034869D01*
X005334Y034841D01*
X005362Y034810D01*
X005388Y034776D01*
X005411Y034740D01*
X005430Y034703D01*
X005446Y034663D01*
X005458Y034622D01*
X005466Y034581D01*
X005470Y034538D01*
X005470Y034496D01*
X005466Y034453D01*
X005458Y034412D01*
X005446Y034371D01*
X005430Y034331D01*
X005411Y034294D01*
X005388Y034258D01*
X005362Y034224D01*
X005334Y034193D01*
X005302Y034165D01*
X005268Y034140D01*
X005231Y034118D01*
X005193Y034100D01*
X005153Y034085D01*
X005112Y034074D01*
X005070Y034067D01*
X005028Y034064D01*
X004985Y034065D01*
X004943Y034070D01*
X004901Y034079D01*
X004861Y034092D01*
X004822Y034108D01*
X004784Y034128D01*
X004749Y034152D01*
X004716Y034178D01*
X004686Y034208D01*
X004658Y034241D01*
X004634Y034275D01*
X004613Y034312D01*
X004595Y034351D01*
X004582Y034391D01*
X004572Y034433D01*
X004566Y034475D01*
X004564Y034517D01*
X003143Y036794D02*
X003145Y036844D01*
X003151Y036894D01*
X003161Y036943D01*
X003175Y036991D01*
X003192Y037038D01*
X003213Y037083D01*
X003238Y037127D01*
X003266Y037168D01*
X003298Y037207D01*
X003332Y037244D01*
X003369Y037278D01*
X003409Y037308D01*
X003451Y037335D01*
X003495Y037359D01*
X003541Y037380D01*
X003588Y037396D01*
X003636Y037409D01*
X003686Y037418D01*
X003735Y037423D01*
X003786Y037424D01*
X003836Y037421D01*
X003885Y037414D01*
X003934Y037403D01*
X003982Y037388D01*
X004028Y037370D01*
X004073Y037348D01*
X004116Y037322D01*
X004157Y037293D01*
X004196Y037261D01*
X004232Y037226D01*
X004264Y037188D01*
X004294Y037148D01*
X004321Y037105D01*
X004344Y037061D01*
X004363Y037015D01*
X004379Y036967D01*
X004391Y036918D01*
X004399Y036869D01*
X004403Y036819D01*
X004403Y036769D01*
X004399Y036719D01*
X004391Y036670D01*
X004379Y036621D01*
X004363Y036573D01*
X004344Y036527D01*
X004321Y036483D01*
X004294Y036440D01*
X004264Y036400D01*
X004232Y036362D01*
X004196Y036327D01*
X004157Y036295D01*
X004116Y036266D01*
X004073Y036240D01*
X004028Y036218D01*
X003982Y036200D01*
X003934Y036185D01*
X003885Y036174D01*
X003836Y036167D01*
X003786Y036164D01*
X003735Y036165D01*
X003686Y036170D01*
X003636Y036179D01*
X003588Y036192D01*
X003541Y036208D01*
X003495Y036229D01*
X003451Y036253D01*
X003409Y036280D01*
X003369Y036310D01*
X003332Y036344D01*
X003298Y036381D01*
X003266Y036420D01*
X003238Y036461D01*
X003213Y036505D01*
X003192Y036550D01*
X003175Y036597D01*
X003161Y036645D01*
X003151Y036694D01*
X003145Y036744D01*
X003143Y036794D01*
X037001Y036794D02*
X037003Y036844D01*
X037009Y036894D01*
X037019Y036943D01*
X037033Y036991D01*
X037050Y037038D01*
X037071Y037083D01*
X037096Y037127D01*
X037124Y037168D01*
X037156Y037207D01*
X037190Y037244D01*
X037227Y037278D01*
X037267Y037308D01*
X037309Y037335D01*
X037353Y037359D01*
X037399Y037380D01*
X037446Y037396D01*
X037494Y037409D01*
X037544Y037418D01*
X037593Y037423D01*
X037644Y037424D01*
X037694Y037421D01*
X037743Y037414D01*
X037792Y037403D01*
X037840Y037388D01*
X037886Y037370D01*
X037931Y037348D01*
X037974Y037322D01*
X038015Y037293D01*
X038054Y037261D01*
X038090Y037226D01*
X038122Y037188D01*
X038152Y037148D01*
X038179Y037105D01*
X038202Y037061D01*
X038221Y037015D01*
X038237Y036967D01*
X038249Y036918D01*
X038257Y036869D01*
X038261Y036819D01*
X038261Y036769D01*
X038257Y036719D01*
X038249Y036670D01*
X038237Y036621D01*
X038221Y036573D01*
X038202Y036527D01*
X038179Y036483D01*
X038152Y036440D01*
X038122Y036400D01*
X038090Y036362D01*
X038054Y036327D01*
X038015Y036295D01*
X037974Y036266D01*
X037931Y036240D01*
X037886Y036218D01*
X037840Y036200D01*
X037792Y036185D01*
X037743Y036174D01*
X037694Y036167D01*
X037644Y036164D01*
X037593Y036165D01*
X037544Y036170D01*
X037494Y036179D01*
X037446Y036192D01*
X037399Y036208D01*
X037353Y036229D01*
X037309Y036253D01*
X037267Y036280D01*
X037227Y036310D01*
X037190Y036344D01*
X037156Y036381D01*
X037124Y036420D01*
X037096Y036461D01*
X037071Y036505D01*
X037050Y036550D01*
X037033Y036597D01*
X037019Y036645D01*
X037009Y036694D01*
X037003Y036744D01*
X037001Y036794D01*
X037001Y002936D02*
X037003Y002986D01*
X037009Y003036D01*
X037019Y003085D01*
X037033Y003133D01*
X037050Y003180D01*
X037071Y003225D01*
X037096Y003269D01*
X037124Y003310D01*
X037156Y003349D01*
X037190Y003386D01*
X037227Y003420D01*
X037267Y003450D01*
X037309Y003477D01*
X037353Y003501D01*
X037399Y003522D01*
X037446Y003538D01*
X037494Y003551D01*
X037544Y003560D01*
X037593Y003565D01*
X037644Y003566D01*
X037694Y003563D01*
X037743Y003556D01*
X037792Y003545D01*
X037840Y003530D01*
X037886Y003512D01*
X037931Y003490D01*
X037974Y003464D01*
X038015Y003435D01*
X038054Y003403D01*
X038090Y003368D01*
X038122Y003330D01*
X038152Y003290D01*
X038179Y003247D01*
X038202Y003203D01*
X038221Y003157D01*
X038237Y003109D01*
X038249Y003060D01*
X038257Y003011D01*
X038261Y002961D01*
X038261Y002911D01*
X038257Y002861D01*
X038249Y002812D01*
X038237Y002763D01*
X038221Y002715D01*
X038202Y002669D01*
X038179Y002625D01*
X038152Y002582D01*
X038122Y002542D01*
X038090Y002504D01*
X038054Y002469D01*
X038015Y002437D01*
X037974Y002408D01*
X037931Y002382D01*
X037886Y002360D01*
X037840Y002342D01*
X037792Y002327D01*
X037743Y002316D01*
X037694Y002309D01*
X037644Y002306D01*
X037593Y002307D01*
X037544Y002312D01*
X037494Y002321D01*
X037446Y002334D01*
X037399Y002350D01*
X037353Y002371D01*
X037309Y002395D01*
X037267Y002422D01*
X037227Y002452D01*
X037190Y002486D01*
X037156Y002523D01*
X037124Y002562D01*
X037096Y002603D01*
X037071Y002647D01*
X037050Y002692D01*
X037033Y002739D01*
X037019Y002787D01*
X037009Y002836D01*
X037003Y002886D01*
X037001Y002936D01*
D16*
X035242Y007405D02*
X035242Y007705D01*
X035242Y007555D02*
X034791Y007555D01*
X034941Y007405D01*
X034242Y007405D02*
X034242Y007705D01*
X034242Y007405D02*
X033941Y007705D01*
X033866Y007705D01*
X033791Y007630D01*
X033791Y007480D01*
X033866Y007405D01*
X035791Y010005D02*
X035641Y010155D01*
X036092Y010155D01*
X036092Y010005D02*
X036092Y010305D01*
X036017Y010465D02*
X035716Y010766D01*
X036017Y010766D01*
X036092Y010691D01*
X036092Y010540D01*
X036017Y010465D01*
X035716Y010465D01*
X035641Y010540D01*
X035641Y010691D01*
X035716Y010766D01*
X029722Y013430D02*
X029647Y013355D01*
X029421Y013355D01*
X029421Y013205D02*
X029421Y013655D01*
X029647Y013655D01*
X029722Y013580D01*
X029722Y013430D01*
X029265Y013205D02*
X029114Y013205D01*
X029189Y013205D02*
X029189Y013655D01*
X029114Y013655D02*
X029265Y013655D01*
X028954Y013580D02*
X028879Y013655D01*
X028654Y013655D01*
X028654Y013205D01*
X028879Y013205D01*
X028954Y013280D01*
X028954Y013580D01*
X028494Y013580D02*
X028494Y013280D01*
X028419Y013205D01*
X028269Y013205D01*
X028194Y013280D01*
X028033Y013280D02*
X028033Y013355D01*
X027958Y013430D01*
X027808Y013430D01*
X027733Y013505D01*
X027733Y013580D01*
X027808Y013655D01*
X027958Y013655D01*
X028033Y013580D01*
X028033Y013505D01*
X027958Y013430D01*
X027808Y013430D02*
X027733Y013355D01*
X027733Y013280D01*
X027808Y013205D01*
X027958Y013205D01*
X028033Y013280D01*
X028194Y013505D02*
X028269Y013430D01*
X028494Y013430D01*
X028494Y013580D02*
X028419Y013655D01*
X028269Y013655D01*
X028194Y013580D01*
X028194Y013505D01*
X027573Y013430D02*
X027273Y013430D01*
X027498Y013655D01*
X027498Y013205D01*
X027113Y013205D02*
X026812Y013205D01*
X026963Y013205D02*
X026963Y013655D01*
X026812Y013505D01*
X026652Y013580D02*
X026577Y013655D01*
X026427Y013655D01*
X026352Y013580D01*
X026352Y013280D01*
X026427Y013205D01*
X026577Y013205D01*
X026652Y013280D01*
X026192Y013205D02*
X026192Y013655D01*
X026042Y013505D01*
X025892Y013655D01*
X025892Y013205D01*
X023116Y009676D02*
X023417Y009376D01*
X023492Y009376D01*
X023492Y009216D02*
X023266Y008990D01*
X023342Y008915D02*
X023041Y009216D01*
X023041Y009376D02*
X023041Y009676D01*
X023116Y009676D01*
X023041Y008915D02*
X023492Y008915D01*
X023492Y008755D02*
X023492Y008455D01*
X023191Y008755D01*
X023116Y008755D01*
X023041Y008680D01*
X023041Y008530D01*
X023116Y008455D01*
X021242Y008376D02*
X020791Y008376D01*
X021016Y008376D02*
X021016Y008676D01*
X020866Y008836D02*
X021167Y008836D01*
X021242Y008911D01*
X021242Y009061D01*
X021167Y009136D01*
X021167Y009297D02*
X021242Y009372D01*
X021242Y009522D01*
X021167Y009597D01*
X021016Y009597D01*
X020941Y009522D01*
X020941Y009447D01*
X021016Y009297D01*
X020791Y009297D01*
X020791Y009597D01*
X020866Y009757D02*
X020941Y009757D01*
X021016Y009832D01*
X021016Y010057D01*
X020866Y010057D02*
X020791Y009982D01*
X020791Y009832D01*
X020866Y009757D01*
X020866Y010057D02*
X021167Y010057D01*
X021242Y009982D01*
X021242Y009832D01*
X021167Y009757D01*
X021167Y010217D02*
X020866Y010518D01*
X020791Y010518D01*
X020791Y010217D01*
X021167Y010217D02*
X021242Y010217D01*
X021242Y010678D02*
X020791Y010678D01*
X021242Y010978D01*
X020791Y010978D01*
X020866Y009136D02*
X020791Y009061D01*
X020791Y008911D01*
X020866Y008836D01*
X020791Y008676D02*
X021242Y008676D01*
X021016Y008216D02*
X021016Y007915D01*
X020791Y008141D01*
X021242Y008141D01*
X020866Y007755D02*
X021167Y007455D01*
X021242Y007455D01*
X020791Y007455D02*
X020791Y007755D01*
X020866Y007755D01*
X023851Y005168D02*
X024192Y005168D01*
X024192Y005055D02*
X024192Y005282D01*
X023965Y005055D02*
X023851Y005168D01*
X025892Y006705D02*
X025892Y007155D01*
X026042Y007005D01*
X026192Y007155D01*
X026192Y006705D01*
X026352Y006780D02*
X026427Y006705D01*
X026577Y006705D01*
X026652Y006780D01*
X026812Y006705D02*
X027113Y006705D01*
X026963Y006705D02*
X026963Y007155D01*
X026812Y007005D01*
X026652Y007080D02*
X026577Y007155D01*
X026427Y007155D01*
X026352Y007080D01*
X026352Y006780D01*
X027273Y006930D02*
X027573Y006930D01*
X027733Y006855D02*
X027808Y006930D01*
X027958Y006930D01*
X028033Y006855D01*
X028033Y006780D01*
X027958Y006705D01*
X027808Y006705D01*
X027733Y006780D01*
X027733Y006855D01*
X027808Y006930D02*
X027733Y007005D01*
X027733Y007080D01*
X027808Y007155D01*
X027958Y007155D01*
X028033Y007080D01*
X028033Y007005D01*
X027958Y006930D01*
X028194Y007005D02*
X028269Y006930D01*
X028494Y006930D01*
X028494Y006780D02*
X028494Y007080D01*
X028419Y007155D01*
X028269Y007155D01*
X028194Y007080D01*
X028194Y007005D01*
X028194Y006780D02*
X028269Y006705D01*
X028419Y006705D01*
X028494Y006780D01*
X028654Y006705D02*
X028879Y006705D01*
X028954Y006780D01*
X028954Y007080D01*
X028879Y007155D01*
X028654Y007155D01*
X028654Y006705D01*
X029114Y006705D02*
X029265Y006705D01*
X029189Y006705D02*
X029189Y007155D01*
X029114Y007155D02*
X029265Y007155D01*
X029421Y007155D02*
X029421Y006705D01*
X029421Y006855D02*
X029647Y006855D01*
X029722Y006930D01*
X029722Y007080D01*
X029647Y007155D01*
X029421Y007155D01*
X027498Y007155D02*
X027498Y006705D01*
X027273Y006930D02*
X027498Y007155D01*
X022296Y015955D02*
X021996Y015955D01*
X022296Y016255D01*
X022296Y016330D01*
X022221Y016405D01*
X022071Y016405D01*
X021996Y016330D01*
X021837Y016255D02*
X021612Y016105D01*
X021837Y015955D01*
X021612Y015955D02*
X021612Y016405D01*
X021452Y016330D02*
X021377Y016405D01*
X021227Y016405D01*
X021152Y016330D01*
X021452Y016330D02*
X021452Y016255D01*
X021152Y015955D01*
X021452Y015955D01*
X021377Y017205D02*
X021377Y017655D01*
X021152Y017430D01*
X021452Y017430D01*
X021612Y017280D02*
X021612Y017205D01*
X021612Y017280D02*
X021912Y017580D01*
X021912Y017655D01*
X021612Y017655D01*
X022072Y017655D02*
X022072Y017205D01*
X022072Y017355D02*
X022373Y017655D01*
X022148Y017430D02*
X022373Y017205D01*
X023851Y017918D02*
X024192Y017918D01*
X024192Y017805D02*
X024192Y018032D01*
X023965Y017805D02*
X023851Y017918D01*
X025892Y019455D02*
X025892Y019905D01*
X026042Y019755D01*
X026192Y019905D01*
X026192Y019455D01*
X026352Y019530D02*
X026427Y019455D01*
X026577Y019455D01*
X026652Y019530D01*
X026812Y019455D02*
X027113Y019455D01*
X026963Y019455D02*
X026963Y019905D01*
X026812Y019755D01*
X026652Y019830D02*
X026577Y019905D01*
X026427Y019905D01*
X026352Y019830D01*
X026352Y019530D01*
X027273Y019680D02*
X027573Y019680D01*
X027733Y019605D02*
X027808Y019680D01*
X027958Y019680D01*
X028033Y019605D01*
X028033Y019530D01*
X027958Y019455D01*
X027808Y019455D01*
X027733Y019530D01*
X027733Y019605D01*
X027808Y019680D02*
X027733Y019755D01*
X027733Y019830D01*
X027808Y019905D01*
X027958Y019905D01*
X028033Y019830D01*
X028033Y019755D01*
X027958Y019680D01*
X028194Y019755D02*
X028194Y019830D01*
X028269Y019905D01*
X028419Y019905D01*
X028494Y019830D01*
X028494Y019530D01*
X028419Y019455D01*
X028269Y019455D01*
X028194Y019530D01*
X028269Y019680D02*
X028494Y019680D01*
X028269Y019680D02*
X028194Y019755D01*
X028654Y019905D02*
X028879Y019905D01*
X028954Y019830D01*
X028954Y019530D01*
X028879Y019455D01*
X028654Y019455D01*
X028654Y019905D01*
X029114Y019905D02*
X029265Y019905D01*
X029189Y019905D02*
X029189Y019455D01*
X029114Y019455D02*
X029265Y019455D01*
X029421Y019455D02*
X029421Y019905D01*
X029647Y019905D01*
X029722Y019830D01*
X029722Y019680D01*
X029647Y019605D01*
X029421Y019605D01*
X027498Y019455D02*
X027498Y019905D01*
X027273Y019680D01*
X023492Y021205D02*
X023191Y021505D01*
X023116Y021505D01*
X023041Y021430D01*
X023041Y021280D01*
X023116Y021205D01*
X023492Y021205D02*
X023492Y021505D01*
X023492Y021665D02*
X023041Y021665D01*
X023266Y021740D02*
X023492Y021966D01*
X023492Y022126D02*
X023417Y022126D01*
X023116Y022426D01*
X023041Y022426D01*
X023041Y022126D01*
X023041Y021966D02*
X023342Y021665D01*
X021242Y021711D02*
X021242Y021861D01*
X021167Y021936D01*
X021167Y022097D02*
X021242Y022172D01*
X021242Y022322D01*
X021167Y022397D01*
X021016Y022397D01*
X020941Y022322D01*
X020941Y022247D01*
X021016Y022097D01*
X020791Y022097D01*
X020791Y022397D01*
X020866Y022557D02*
X020941Y022557D01*
X021016Y022632D01*
X021016Y022857D01*
X020866Y022857D02*
X020791Y022782D01*
X020791Y022632D01*
X020866Y022557D01*
X020866Y022857D02*
X021167Y022857D01*
X021242Y022782D01*
X021242Y022632D01*
X021167Y022557D01*
X021167Y023017D02*
X021242Y023017D01*
X021167Y023017D02*
X020866Y023318D01*
X020791Y023318D01*
X020791Y023017D01*
X020791Y023478D02*
X021242Y023778D01*
X020791Y023778D01*
X020791Y023478D02*
X021242Y023478D01*
X020866Y021936D02*
X020791Y021861D01*
X020791Y021711D01*
X020866Y021636D01*
X021167Y021636D01*
X021242Y021711D01*
X021242Y021476D02*
X020791Y021476D01*
X021016Y021476D02*
X021016Y021176D01*
X021016Y021016D02*
X021016Y020715D01*
X020791Y020941D01*
X021242Y020941D01*
X021242Y021176D02*
X020791Y021176D01*
X020791Y020555D02*
X020866Y020555D01*
X021167Y020255D01*
X021242Y020255D01*
X020791Y020255D02*
X020791Y020555D01*
X018992Y020047D02*
X018917Y020047D01*
X018616Y020347D01*
X018541Y020347D01*
X018541Y020047D01*
X018541Y019811D02*
X018766Y019586D01*
X018766Y019886D01*
X018541Y019811D02*
X018992Y019811D01*
X018917Y019426D02*
X018992Y019351D01*
X018992Y019201D01*
X018917Y019126D01*
X018766Y019126D02*
X018691Y019276D01*
X018691Y019351D01*
X018766Y019426D01*
X018917Y019426D01*
X018766Y019126D02*
X018541Y019126D01*
X018541Y019426D01*
X018616Y018966D02*
X018541Y018891D01*
X018541Y018740D01*
X018616Y018665D01*
X018917Y018665D01*
X018992Y018740D01*
X018992Y018891D01*
X018917Y018966D01*
X018917Y018505D02*
X018992Y018430D01*
X018992Y018205D01*
X018541Y018205D01*
X018541Y018430D01*
X018616Y018505D01*
X018691Y018505D01*
X018766Y018430D01*
X018766Y018205D01*
X018766Y018430D02*
X018842Y018505D01*
X018917Y018505D01*
X018617Y017975D02*
X018617Y017817D01*
X019167Y017755D02*
X019167Y016105D01*
X018617Y016043D02*
X018617Y015885D01*
X018617Y016817D02*
X018617Y017043D01*
X019167Y016105D02*
X019119Y016070D01*
X019069Y016037D01*
X019017Y016006D01*
X018963Y015979D01*
X018908Y015955D01*
X018851Y015935D01*
X018794Y015917D01*
X018736Y015903D01*
X018677Y015892D01*
X018617Y015885D01*
X018555Y015881D01*
X018492Y015880D01*
X018430Y015884D01*
X018368Y015891D01*
X018307Y015901D01*
X018246Y015916D01*
X018186Y015934D01*
X018127Y015955D01*
X018070Y015980D01*
X018015Y016008D01*
X017961Y016039D01*
X017909Y016074D01*
X017859Y016112D01*
X017812Y016152D01*
X017767Y016196D01*
X017724Y016241D01*
X017685Y016290D01*
X017648Y016340D01*
X017615Y016393D01*
X017584Y016447D01*
X017557Y016504D01*
X017534Y016561D01*
X017514Y016620D01*
X017514Y017240D02*
X017534Y017300D01*
X017558Y017359D01*
X017586Y017416D01*
X017617Y017471D01*
X017652Y017525D01*
X017689Y017576D01*
X017730Y017625D01*
X017774Y017671D01*
X017820Y017715D01*
X017869Y017756D01*
X017920Y017794D01*
X017973Y017828D01*
X018029Y017860D01*
X018086Y017887D01*
X018145Y017912D01*
X018205Y017932D01*
X018266Y017950D01*
X018328Y017963D01*
X018391Y017972D01*
X018454Y017978D01*
X018518Y017980D01*
X018582Y017978D01*
X018645Y017972D01*
X018708Y017963D01*
X018770Y017949D01*
X018831Y017932D01*
X018891Y017911D01*
X018950Y017887D01*
X019007Y017859D01*
X019063Y017827D01*
X019116Y017792D01*
X019167Y017755D01*
X016642Y013195D02*
X016191Y013195D01*
X016191Y012895D02*
X016642Y013195D01*
X016642Y012895D02*
X016191Y012895D01*
X016191Y012734D02*
X016191Y012434D01*
X016416Y012434D01*
X016341Y012584D01*
X016341Y012659D01*
X016416Y012734D01*
X016567Y012734D01*
X016642Y012659D01*
X016642Y012509D01*
X016567Y012434D01*
X016567Y012274D02*
X016266Y012274D01*
X016191Y012199D01*
X016191Y012049D01*
X016266Y011974D01*
X016341Y011974D01*
X016416Y012049D01*
X016416Y012274D01*
X016567Y012274D02*
X016642Y012199D01*
X016642Y012049D01*
X016567Y011974D01*
X016567Y011814D02*
X016642Y011739D01*
X016642Y011588D01*
X016567Y011513D01*
X016416Y011513D02*
X016341Y011664D01*
X016341Y011739D01*
X016416Y011814D01*
X016567Y011814D01*
X016416Y011513D02*
X016191Y011513D01*
X016191Y011814D01*
X016266Y011353D02*
X016191Y011278D01*
X016191Y011128D01*
X016266Y011053D01*
X016567Y011053D01*
X016642Y011128D01*
X016642Y011278D01*
X016567Y011353D01*
X016642Y010893D02*
X016191Y010893D01*
X016416Y010893D02*
X016416Y010593D01*
X016416Y010433D02*
X016416Y010132D01*
X016191Y010357D01*
X016642Y010357D01*
X016642Y010593D02*
X016191Y010593D01*
X016191Y009972D02*
X016266Y009972D01*
X016567Y009672D01*
X016642Y009672D01*
X016191Y009672D02*
X016191Y009972D01*
X014012Y016405D02*
X014012Y016855D01*
X014313Y016855D01*
X014163Y016630D02*
X014012Y016630D01*
X013852Y016630D02*
X013852Y016405D01*
X013852Y016630D02*
X013777Y016705D01*
X013552Y016705D01*
X013552Y016405D01*
X013392Y016405D02*
X013092Y016405D01*
X013242Y016405D02*
X013242Y016855D01*
X013092Y016705D01*
X007742Y013245D02*
X007742Y012945D01*
X007441Y013245D01*
X007366Y013245D01*
X007291Y013170D01*
X007291Y013020D01*
X007366Y012945D01*
X006742Y012945D02*
X006742Y013245D01*
X006742Y013095D02*
X006291Y013095D01*
X006441Y012945D01*
X005817Y010645D02*
X005516Y010645D01*
X005817Y010345D01*
X005892Y010420D01*
X005892Y010570D01*
X005817Y010645D01*
X005817Y010345D02*
X005516Y010345D01*
X005441Y010420D01*
X005441Y010570D01*
X005516Y010645D01*
X005892Y010184D02*
X005892Y009884D01*
X005892Y010034D02*
X005441Y010034D01*
X005591Y009884D01*
X016191Y022472D02*
X016191Y022772D01*
X016266Y022772D01*
X016567Y022472D01*
X016642Y022472D01*
X016416Y022932D02*
X016416Y023233D01*
X016416Y023393D02*
X016416Y023693D01*
X016266Y023853D02*
X016567Y023853D01*
X016642Y023928D01*
X016642Y024078D01*
X016567Y024153D01*
X016567Y024313D02*
X016642Y024388D01*
X016642Y024539D01*
X016567Y024614D01*
X016416Y024614D01*
X016341Y024539D01*
X016341Y024464D01*
X016416Y024313D01*
X016191Y024313D01*
X016191Y024614D01*
X016266Y024774D02*
X016341Y024774D01*
X016416Y024849D01*
X016416Y025074D01*
X016266Y025074D02*
X016567Y025074D01*
X016642Y024999D01*
X016642Y024849D01*
X016567Y024774D01*
X016266Y024774D02*
X016191Y024849D01*
X016191Y024999D01*
X016266Y025074D01*
X016191Y025234D02*
X016416Y025234D01*
X016341Y025384D01*
X016341Y025459D01*
X016416Y025534D01*
X016567Y025534D01*
X016642Y025459D01*
X016642Y025309D01*
X016567Y025234D01*
X016191Y025234D02*
X016191Y025534D01*
X016191Y025695D02*
X016642Y025995D01*
X016191Y025995D01*
X016191Y025695D02*
X016642Y025695D01*
X016266Y024153D02*
X016191Y024078D01*
X016191Y023928D01*
X016266Y023853D01*
X016191Y023693D02*
X016642Y023693D01*
X016642Y023393D02*
X016191Y023393D01*
X016191Y023157D02*
X016416Y022932D01*
X016642Y023157D02*
X016191Y023157D01*
X015167Y029805D02*
X015016Y029805D01*
X015016Y030030D01*
X015092Y030105D01*
X015167Y030105D01*
X015242Y030030D01*
X015242Y029880D01*
X015167Y029805D01*
X015016Y029805D02*
X014866Y029955D01*
X014791Y030105D01*
X014791Y030265D02*
X015242Y030566D01*
X014791Y030566D01*
X014941Y030726D02*
X014791Y030876D01*
X015242Y030876D01*
X015242Y030726D02*
X015242Y031026D01*
X015167Y031186D02*
X015242Y031261D01*
X015242Y031411D01*
X015167Y031486D01*
X015092Y031486D01*
X015016Y031411D01*
X015016Y031336D01*
X015016Y031411D02*
X014941Y031486D01*
X014866Y031486D01*
X014791Y031411D01*
X014791Y031261D01*
X014866Y031186D01*
X014791Y031647D02*
X014791Y031947D01*
X014866Y031947D01*
X015167Y031647D01*
X015242Y031647D01*
X015242Y030265D02*
X014791Y030265D01*
X018041Y030540D02*
X018266Y030315D01*
X018266Y030615D01*
X018417Y030775D02*
X018116Y031076D01*
X018041Y031076D01*
X018041Y030775D01*
X018041Y030540D02*
X018492Y030540D01*
X018492Y030775D02*
X018417Y030775D01*
X018492Y031236D02*
X018041Y031236D01*
X018266Y031311D02*
X018492Y031536D01*
X018342Y031236D02*
X018041Y031536D01*
X018991Y032424D02*
X019442Y032424D01*
X019442Y032274D02*
X019442Y032574D01*
X019442Y032734D02*
X019141Y032734D01*
X019141Y032959D01*
X019216Y033034D01*
X019442Y033034D01*
X019442Y033195D02*
X018991Y033195D01*
X018991Y033495D01*
X019216Y033345D02*
X019216Y033195D01*
X018991Y032424D02*
X019141Y032274D01*
X017548Y033955D02*
X017398Y033955D01*
X017322Y034030D01*
X017623Y034330D01*
X017623Y034030D01*
X017548Y033955D01*
X017322Y034030D02*
X017322Y034330D01*
X017398Y034405D01*
X017548Y034405D01*
X017623Y034330D01*
X017162Y034330D02*
X017162Y034405D01*
X016862Y034405D01*
X016627Y034405D02*
X016402Y034180D01*
X016702Y034180D01*
X016862Y034030D02*
X016862Y033955D01*
X016862Y034030D02*
X017162Y034330D01*
X016627Y034405D02*
X016627Y033955D01*
X016627Y035955D02*
X016702Y036030D01*
X016702Y036105D01*
X016627Y036180D01*
X016402Y036180D01*
X016402Y036030D01*
X016477Y035955D01*
X016627Y035955D01*
X016862Y036030D02*
X016862Y036105D01*
X016937Y036180D01*
X017087Y036180D01*
X017162Y036105D01*
X017162Y036030D01*
X017087Y035955D01*
X016937Y035955D01*
X016862Y036030D01*
X016937Y036180D02*
X016862Y036255D01*
X016862Y036330D01*
X016937Y036405D01*
X017087Y036405D01*
X017162Y036330D01*
X017162Y036255D01*
X017087Y036180D01*
X017322Y036030D02*
X017398Y035955D01*
X017548Y035955D01*
X017623Y036030D01*
X017623Y036330D01*
X017322Y036030D01*
X017322Y036330D01*
X017398Y036405D01*
X017548Y036405D01*
X017623Y036330D01*
X016702Y036405D02*
X016552Y036330D01*
X016402Y036180D01*
X014341Y035330D02*
X012692Y035330D01*
X012433Y034905D02*
X012433Y034830D01*
X012133Y034530D01*
X012133Y034455D01*
X011898Y034455D02*
X011898Y034905D01*
X011673Y034680D01*
X011973Y034680D01*
X012133Y034905D02*
X012433Y034905D01*
X012471Y034780D02*
X012629Y034780D01*
X013404Y034780D02*
X013629Y034780D01*
X014342Y035330D02*
X014377Y035282D01*
X014410Y035232D01*
X014441Y035180D01*
X014468Y035126D01*
X014492Y035071D01*
X014512Y035014D01*
X014530Y034957D01*
X014544Y034899D01*
X014555Y034840D01*
X014562Y034780D01*
X014404Y034780D01*
X014562Y034780D02*
X014566Y034718D01*
X014567Y034655D01*
X014563Y034593D01*
X014556Y034531D01*
X014546Y034470D01*
X014531Y034409D01*
X014513Y034349D01*
X014492Y034290D01*
X014467Y034233D01*
X014439Y034178D01*
X014408Y034124D01*
X014373Y034072D01*
X014335Y034022D01*
X014295Y033975D01*
X014251Y033930D01*
X014206Y033887D01*
X014157Y033848D01*
X014107Y033811D01*
X014054Y033778D01*
X014000Y033747D01*
X013943Y033720D01*
X013886Y033697D01*
X013827Y033677D01*
X013207Y033677D02*
X013147Y033697D01*
X013088Y033721D01*
X013031Y033749D01*
X012976Y033780D01*
X012922Y033815D01*
X012871Y033852D01*
X012822Y033893D01*
X012776Y033937D01*
X012732Y033983D01*
X012691Y034032D01*
X012653Y034083D01*
X012619Y034136D01*
X012587Y034192D01*
X012560Y034249D01*
X012535Y034308D01*
X012515Y034368D01*
X012497Y034429D01*
X012484Y034491D01*
X012475Y034554D01*
X012469Y034617D01*
X012467Y034681D01*
X012469Y034745D01*
X012475Y034808D01*
X012484Y034871D01*
X012498Y034933D01*
X012515Y034994D01*
X012536Y035054D01*
X012560Y035113D01*
X012588Y035170D01*
X012620Y035226D01*
X012655Y035279D01*
X012692Y035330D01*
X011513Y034905D02*
X011212Y034905D01*
X011212Y034680D01*
X011363Y034755D01*
X011438Y034755D01*
X011513Y034680D01*
X011513Y034530D01*
X011438Y034455D01*
X011288Y034455D01*
X011212Y034530D01*
X011052Y034530D02*
X010977Y034455D01*
X010827Y034455D01*
X010752Y034530D01*
X010752Y034830D01*
X010827Y034905D01*
X010977Y034905D01*
X011052Y034830D01*
X010592Y034830D02*
X010592Y034755D01*
X010517Y034680D01*
X010292Y034680D01*
X010517Y034680D02*
X010592Y034605D01*
X010592Y034530D01*
X010517Y034455D01*
X010292Y034455D01*
X010292Y034905D01*
X010517Y034905D01*
X010592Y034830D01*
X010446Y033905D02*
X010522Y033830D01*
X010221Y033530D01*
X010296Y033455D01*
X010446Y033455D01*
X010522Y033530D01*
X010522Y033830D01*
X010446Y033905D02*
X010296Y033905D01*
X010221Y033830D01*
X010221Y033530D01*
X010061Y033530D02*
X010061Y033605D01*
X009986Y033680D01*
X009836Y033680D01*
X009761Y033755D01*
X009761Y033830D01*
X009836Y033905D01*
X009986Y033905D01*
X010061Y033830D01*
X010061Y033755D01*
X009986Y033680D01*
X009836Y033680D02*
X009761Y033605D01*
X009761Y033530D01*
X009836Y033455D01*
X009986Y033455D01*
X010061Y033530D01*
X009601Y033530D02*
X009601Y033605D01*
X009526Y033680D01*
X009300Y033680D01*
X009300Y033530D01*
X009376Y033455D01*
X009526Y033455D01*
X009601Y033530D01*
X009451Y033830D02*
X009300Y033680D01*
X009451Y033830D02*
X009601Y033905D01*
X009602Y032905D02*
X009452Y032905D01*
X009377Y032830D01*
X009602Y032905D02*
X009677Y032830D01*
X009677Y032755D01*
X009377Y032455D01*
X009677Y032455D01*
X009838Y032455D02*
X009838Y032905D01*
X010063Y032755D02*
X009838Y032605D01*
X010063Y032455D01*
X010221Y032455D02*
X010522Y032755D01*
X010522Y032830D01*
X010446Y032905D01*
X010296Y032905D01*
X010221Y032830D01*
X010221Y032455D02*
X010522Y032455D01*
X010446Y031905D02*
X010296Y031905D01*
X010221Y031830D01*
X010063Y031755D02*
X009838Y031605D01*
X010063Y031455D01*
X010221Y031455D02*
X010522Y031755D01*
X010522Y031830D01*
X010446Y031905D01*
X010522Y031455D02*
X010221Y031455D01*
X009838Y031455D02*
X009838Y031905D01*
X009677Y031830D02*
X009602Y031905D01*
X009452Y031905D01*
X009377Y031830D01*
X009677Y031830D02*
X009677Y031755D01*
X009377Y031455D01*
X009677Y031455D01*
X009602Y030905D02*
X009452Y030905D01*
X009377Y030830D01*
X009602Y030905D02*
X009677Y030830D01*
X009677Y030755D01*
X009377Y030455D01*
X009677Y030455D01*
X009838Y030455D02*
X009838Y030905D01*
X010063Y030755D02*
X009838Y030605D01*
X010063Y030455D01*
X010221Y030455D02*
X010522Y030755D01*
X010522Y030830D01*
X010446Y030905D01*
X010296Y030905D01*
X010221Y030830D01*
X010221Y030455D02*
X010522Y030455D01*
X007742Y026045D02*
X007742Y025745D01*
X007441Y026045D01*
X007366Y026045D01*
X007291Y025970D01*
X007291Y025820D01*
X007366Y025745D01*
X006742Y025745D02*
X006742Y026045D01*
X006742Y025895D02*
X006291Y025895D01*
X006441Y025745D01*
X005817Y023445D02*
X005516Y023445D01*
X005817Y023145D01*
X005892Y023220D01*
X005892Y023370D01*
X005817Y023445D01*
X005817Y023145D02*
X005516Y023145D01*
X005441Y023220D01*
X005441Y023370D01*
X005516Y023445D01*
X005892Y022984D02*
X005892Y022684D01*
X005892Y022834D02*
X005441Y022834D01*
X005591Y022684D01*
X022041Y030105D02*
X022116Y029955D01*
X022266Y029805D01*
X022266Y030030D01*
X022342Y030105D01*
X022417Y030105D01*
X022492Y030030D01*
X022492Y029880D01*
X022417Y029805D01*
X022266Y029805D01*
X022041Y030265D02*
X022492Y030566D01*
X022041Y030566D01*
X022191Y030726D02*
X022041Y030876D01*
X022492Y030876D01*
X022492Y030726D02*
X022492Y031026D01*
X022417Y031186D02*
X022492Y031261D01*
X022492Y031411D01*
X022417Y031486D01*
X022342Y031486D01*
X022266Y031411D01*
X022266Y031336D01*
X022266Y031411D02*
X022191Y031486D01*
X022116Y031486D01*
X022041Y031411D01*
X022041Y031261D01*
X022116Y031186D01*
X022041Y031647D02*
X022041Y031947D01*
X022116Y031947D01*
X022417Y031647D01*
X022492Y031647D01*
X022492Y030265D02*
X022041Y030265D01*
X025892Y026405D02*
X026042Y026255D01*
X026192Y026405D01*
X026192Y025955D01*
X026352Y026030D02*
X026427Y025955D01*
X026577Y025955D01*
X026652Y026030D01*
X026812Y025955D02*
X027113Y025955D01*
X026963Y025955D02*
X026963Y026405D01*
X026812Y026255D01*
X026652Y026330D02*
X026577Y026405D01*
X026427Y026405D01*
X026352Y026330D01*
X026352Y026030D01*
X025892Y025955D02*
X025892Y026405D01*
X027273Y026180D02*
X027573Y026180D01*
X027733Y026105D02*
X027808Y026180D01*
X027958Y026180D01*
X028033Y026105D01*
X028033Y026030D01*
X027958Y025955D01*
X027808Y025955D01*
X027733Y026030D01*
X027733Y026105D01*
X027808Y026180D02*
X027733Y026255D01*
X027733Y026330D01*
X027808Y026405D01*
X027958Y026405D01*
X028033Y026330D01*
X028033Y026255D01*
X027958Y026180D01*
X028194Y026255D02*
X028194Y026330D01*
X028269Y026405D01*
X028419Y026405D01*
X028494Y026330D01*
X028494Y026030D01*
X028419Y025955D01*
X028269Y025955D01*
X028194Y026030D01*
X028269Y026180D02*
X028494Y026180D01*
X028269Y026180D02*
X028194Y026255D01*
X028654Y026405D02*
X028879Y026405D01*
X028954Y026330D01*
X028954Y026030D01*
X028879Y025955D01*
X028654Y025955D01*
X028654Y026405D01*
X029114Y026405D02*
X029265Y026405D01*
X029189Y026405D02*
X029189Y025955D01*
X029114Y025955D02*
X029265Y025955D01*
X029421Y025955D02*
X029421Y026405D01*
X029647Y026405D01*
X029722Y026330D01*
X029722Y026180D01*
X029647Y026105D01*
X029421Y026105D01*
X027498Y025955D02*
X027498Y026405D01*
X027273Y026180D01*
X027338Y029455D02*
X027338Y029905D01*
X027177Y029830D02*
X027102Y029905D01*
X026952Y029905D01*
X026877Y029830D01*
X027177Y029830D02*
X027177Y029755D01*
X026877Y029455D01*
X027177Y029455D01*
X027338Y029605D02*
X027563Y029755D01*
X027721Y029830D02*
X027796Y029905D01*
X027946Y029905D01*
X028022Y029830D01*
X028022Y029755D01*
X027721Y029455D01*
X028022Y029455D01*
X027563Y029455D02*
X027338Y029605D01*
X027398Y030455D02*
X027322Y030530D01*
X027623Y030830D01*
X027623Y030530D01*
X027548Y030455D01*
X027398Y030455D01*
X027322Y030530D02*
X027322Y030830D01*
X027398Y030905D01*
X027548Y030905D01*
X027623Y030830D01*
X027162Y030830D02*
X026862Y030530D01*
X026862Y030455D01*
X026627Y030455D02*
X026627Y030905D01*
X026402Y030680D01*
X026702Y030680D01*
X026862Y030905D02*
X027162Y030905D01*
X027162Y030830D01*
X027398Y031455D02*
X027322Y031530D01*
X027623Y031830D01*
X027623Y031530D01*
X027548Y031455D01*
X027398Y031455D01*
X027322Y031530D02*
X027322Y031830D01*
X027398Y031905D01*
X027548Y031905D01*
X027623Y031830D01*
X027162Y031830D02*
X026862Y031530D01*
X026862Y031455D01*
X026627Y031455D02*
X026627Y031905D01*
X026402Y031680D01*
X026702Y031680D01*
X026862Y031905D02*
X027162Y031905D01*
X027162Y031830D01*
X027398Y032455D02*
X027322Y032530D01*
X027623Y032830D01*
X027623Y032530D01*
X027548Y032455D01*
X027398Y032455D01*
X027322Y032530D02*
X027322Y032830D01*
X027398Y032905D01*
X027548Y032905D01*
X027623Y032830D01*
X027162Y032830D02*
X026862Y032530D01*
X026862Y032455D01*
X026627Y032455D02*
X026627Y032905D01*
X026402Y032680D01*
X026702Y032680D01*
X026862Y032905D02*
X027162Y032905D01*
X027162Y032830D01*
X027266Y035803D02*
X027116Y035953D01*
X027041Y036103D01*
X027041Y036263D02*
X027492Y036564D01*
X027041Y036564D01*
X027191Y036724D02*
X027041Y036874D01*
X027492Y036874D01*
X027492Y036724D02*
X027492Y037024D01*
X027417Y037184D02*
X027492Y037259D01*
X027492Y037409D01*
X027417Y037484D01*
X027342Y037484D01*
X027266Y037409D01*
X027266Y037334D01*
X027266Y037409D02*
X027191Y037484D01*
X027116Y037484D01*
X027041Y037409D01*
X027041Y037259D01*
X027116Y037184D01*
X027041Y037645D02*
X027041Y037945D01*
X027116Y037945D01*
X027417Y037645D01*
X027492Y037645D01*
X027492Y036263D02*
X027041Y036263D01*
X027266Y036028D02*
X027266Y035803D01*
X027417Y035803D01*
X027492Y035878D01*
X027492Y036028D01*
X027417Y036103D01*
X027342Y036103D01*
X027266Y036028D01*
X031877Y037955D02*
X032177Y038255D01*
X032177Y038330D01*
X032102Y038405D01*
X031952Y038405D01*
X031877Y038330D01*
X031877Y037955D02*
X032177Y037955D01*
X032338Y037955D02*
X032338Y038405D01*
X032563Y038255D02*
X032338Y038105D01*
X032563Y037955D01*
X032721Y037955D02*
X033022Y038255D01*
X033022Y038330D01*
X032946Y038405D01*
X032796Y038405D01*
X032721Y038330D01*
X032721Y037955D02*
X033022Y037955D01*
X032016Y033885D02*
X032092Y033810D01*
X032092Y033585D01*
X032242Y033585D02*
X031791Y033585D01*
X031791Y033810D01*
X031866Y033885D01*
X032016Y033885D01*
X031791Y033428D02*
X031791Y033278D01*
X031791Y033353D02*
X032242Y033353D01*
X032242Y033278D02*
X032242Y033428D01*
X032167Y033118D02*
X031866Y033118D01*
X031791Y033043D01*
X031791Y032817D01*
X032242Y032817D01*
X032242Y033043D01*
X032167Y033118D01*
X032167Y032657D02*
X031866Y032657D01*
X031791Y032582D01*
X031791Y032432D01*
X031866Y032357D01*
X031941Y032357D01*
X032016Y032432D01*
X032016Y032657D01*
X032167Y032657D02*
X032242Y032582D01*
X032242Y032432D01*
X032167Y032357D01*
X032167Y032197D02*
X032242Y032122D01*
X032242Y031972D01*
X032167Y031897D01*
X032092Y031897D01*
X032016Y031972D01*
X032016Y032122D01*
X032092Y032197D01*
X032167Y032197D01*
X032016Y032122D02*
X031941Y032197D01*
X031866Y032197D01*
X031791Y032122D01*
X031791Y031972D01*
X031866Y031897D01*
X031941Y031897D01*
X032016Y031972D01*
X032016Y031736D02*
X032016Y031436D01*
X031791Y031661D01*
X032242Y031661D01*
X032242Y031276D02*
X032242Y030976D01*
X032242Y031126D02*
X031791Y031126D01*
X031941Y030976D01*
X031866Y030816D02*
X031791Y030741D01*
X031791Y030590D01*
X031866Y030515D01*
X032167Y030515D01*
X032242Y030590D01*
X032242Y030741D01*
X032167Y030816D01*
X032242Y030355D02*
X031791Y030355D01*
X031941Y030205D01*
X031791Y030055D01*
X032242Y030055D01*
X035474Y029926D02*
X035474Y029776D01*
X035549Y029701D01*
X035474Y029926D02*
X035549Y030001D01*
X035624Y030001D01*
X035925Y029701D01*
X035925Y030001D01*
X036474Y029851D02*
X036925Y029851D01*
X036925Y029701D02*
X036925Y030001D01*
X036624Y029701D02*
X036474Y029851D01*
X037550Y031551D02*
X037550Y031776D01*
X037625Y031851D01*
X037700Y031851D01*
X037775Y031776D01*
X037775Y031626D01*
X037700Y031551D01*
X037550Y031551D01*
X037399Y031701D01*
X037324Y031851D01*
X036017Y023316D02*
X035716Y023316D01*
X036017Y023015D01*
X036092Y023090D01*
X036092Y023241D01*
X036017Y023316D01*
X036017Y023015D02*
X035716Y023015D01*
X035641Y023090D01*
X035641Y023241D01*
X035716Y023316D01*
X036092Y022855D02*
X036092Y022555D01*
X036092Y022705D02*
X035641Y022705D01*
X035791Y022555D01*
X035242Y020255D02*
X035242Y019955D01*
X035242Y020105D02*
X034791Y020105D01*
X034941Y019955D01*
X034242Y019955D02*
X034242Y020255D01*
X034242Y019955D02*
X033941Y020255D01*
X033866Y020255D01*
X033791Y020180D01*
X033791Y020030D01*
X033866Y019955D01*
X022417Y035305D02*
X022266Y035305D01*
X022266Y035530D01*
X022342Y035605D01*
X022417Y035605D01*
X022492Y035530D01*
X022492Y035380D01*
X022417Y035305D01*
X022266Y035305D02*
X022116Y035455D01*
X022041Y035605D01*
X022041Y035765D02*
X022492Y036066D01*
X022041Y036066D01*
X022191Y036226D02*
X022041Y036376D01*
X022492Y036376D01*
X022492Y036226D02*
X022492Y036526D01*
X022417Y036686D02*
X022492Y036761D01*
X022492Y036911D01*
X022417Y036986D01*
X022342Y036986D01*
X022266Y036911D01*
X022266Y036836D01*
X022266Y036911D02*
X022191Y036986D01*
X022116Y036986D01*
X022041Y036911D01*
X022041Y036761D01*
X022116Y036686D01*
X022041Y037147D02*
X022041Y037447D01*
X022116Y037447D01*
X022417Y037147D01*
X022492Y037147D01*
X022492Y035765D02*
X022041Y035765D01*
D17*
X022147Y034230D02*
X022147Y033630D01*
X022397Y033630D02*
X022397Y034230D01*
X019567Y031300D02*
X018967Y031300D01*
X018967Y031050D02*
X019567Y031050D01*
X021137Y028230D02*
X021137Y027630D01*
X021387Y027630D02*
X021387Y028230D01*
X016647Y027980D02*
X016647Y027380D01*
X016397Y027380D02*
X016397Y027980D01*
X009887Y029380D02*
X009887Y029980D01*
X009637Y029980D02*
X009637Y029380D01*
X013647Y035880D02*
X013647Y036480D01*
X013897Y036480D02*
X013897Y035880D01*
X017147Y035480D02*
X017147Y034880D01*
X017397Y034880D02*
X017397Y035480D01*
X009817Y037560D02*
X009217Y037560D01*
X009217Y037810D02*
X009817Y037810D01*
X025967Y023060D02*
X026567Y023060D01*
X026567Y022810D02*
X025967Y022810D01*
X027217Y022800D02*
X027817Y022800D01*
X027817Y023050D02*
X027217Y023050D01*
X028967Y023060D02*
X029567Y023060D01*
X029567Y022810D02*
X028967Y022810D01*
X030217Y022800D02*
X030817Y022800D01*
X030817Y023050D02*
X030217Y023050D01*
X033137Y027380D02*
X033137Y027980D01*
X033387Y027980D02*
X033387Y027380D01*
X035137Y027380D02*
X035137Y027980D01*
X035387Y027980D02*
X035387Y027380D01*
X027387Y033630D02*
X027387Y034230D01*
X027137Y034230D02*
X027137Y033630D01*
X031887Y036630D02*
X031887Y037230D01*
X032137Y037230D02*
X032137Y036630D01*
X034467Y036060D02*
X035067Y036060D01*
X035067Y035810D02*
X034467Y035810D01*
X021137Y018730D02*
X021137Y018130D01*
X020887Y018130D02*
X020887Y018730D01*
X020887Y015480D02*
X020887Y014880D01*
X021137Y014880D02*
X021137Y015480D01*
X024967Y016560D02*
X025567Y016560D01*
X025567Y016810D02*
X024967Y016810D01*
X026217Y016810D02*
X026817Y016810D01*
X026817Y016560D02*
X026217Y016560D01*
X027467Y016550D02*
X028067Y016550D01*
X028067Y016800D02*
X027467Y016800D01*
X029217Y016810D02*
X029817Y016810D01*
X029817Y016560D02*
X029217Y016560D01*
X030467Y016550D02*
X031067Y016550D01*
X031067Y016800D02*
X030467Y016800D01*
X030467Y010300D02*
X031067Y010300D01*
X031067Y010050D02*
X030467Y010050D01*
X029817Y010060D02*
X029217Y010060D01*
X029217Y010310D02*
X029817Y010310D01*
X028067Y010300D02*
X027467Y010300D01*
X027467Y010050D02*
X028067Y010050D01*
X026817Y010060D02*
X026217Y010060D01*
X026217Y010310D02*
X026817Y010310D01*
X026887Y004480D02*
X026887Y003880D01*
X027137Y003880D02*
X027137Y004480D01*
X029887Y004480D02*
X029887Y003880D01*
X030137Y003880D02*
X030137Y004480D01*
X021137Y005380D02*
X021137Y005980D01*
X020887Y005980D02*
X020887Y005380D01*
X016397Y005380D02*
X016397Y005980D01*
X016147Y005980D02*
X016147Y005380D01*
X011637Y004980D02*
X011637Y004380D01*
X011387Y004380D02*
X011387Y004980D01*
X016147Y014880D02*
X016147Y015480D01*
X016397Y015480D02*
X016397Y014880D01*
X015647Y016380D02*
X015647Y016980D01*
X015397Y016980D02*
X015397Y016380D01*
X016137Y018130D02*
X016137Y018730D01*
X016387Y018730D02*
X016387Y018130D01*
X011887Y017730D02*
X011887Y017130D01*
X011637Y017130D02*
X011637Y017730D01*
X011637Y016480D02*
X011637Y015880D01*
X011887Y015880D02*
X011887Y016480D01*
X010067Y016810D02*
X009467Y016810D01*
X009467Y017060D02*
X010067Y017060D01*
D18*
X004288Y018129D02*
X004288Y028231D01*
X003146Y028231D01*
X003146Y018129D01*
X004288Y018129D01*
X004288Y015431D02*
X003146Y015431D01*
X003146Y005329D01*
X004288Y005329D01*
X004288Y015431D01*
X006635Y029017D02*
X001005Y029017D01*
X001005Y034843D01*
X006635Y034843D01*
X006635Y029017D01*
X011817Y037930D02*
X011815Y037984D01*
X011810Y038038D01*
X011801Y038091D01*
X011788Y038144D01*
X011772Y038195D01*
X011752Y038245D01*
X011729Y038294D01*
X011703Y038342D01*
X011674Y038387D01*
X011641Y038430D01*
X011606Y038471D01*
X011568Y038510D01*
X011528Y038546D01*
X011485Y038579D01*
X011440Y038609D01*
X011393Y038636D01*
X010620Y038625D02*
X010572Y038595D01*
X010527Y038562D01*
X010484Y038526D01*
X010443Y038488D01*
X010406Y038446D01*
X010371Y038402D01*
X010340Y038356D01*
X010311Y038307D01*
X010287Y038257D01*
X010266Y038205D01*
X010248Y038151D01*
X010235Y038097D01*
X010225Y038042D01*
X010219Y037986D01*
X010217Y037930D01*
X010219Y037877D01*
X010224Y037823D01*
X010233Y037771D01*
X010245Y037719D01*
X010261Y037668D01*
X010280Y037618D01*
X010303Y037569D01*
X010329Y037522D01*
X010357Y037477D01*
X010389Y037434D01*
X010423Y037394D01*
X010461Y037355D01*
X010500Y037319D01*
X011529Y037315D02*
X011569Y037351D01*
X011607Y037390D01*
X011642Y037431D01*
X011674Y037474D01*
X011704Y037519D01*
X011730Y037566D01*
X011752Y037615D01*
X011772Y037666D01*
X011788Y037717D01*
X011801Y037769D01*
X011810Y037823D01*
X011815Y037876D01*
X011817Y037930D01*
X018893Y038636D02*
X018940Y038609D01*
X018985Y038579D01*
X019028Y038546D01*
X019068Y038510D01*
X019106Y038471D01*
X019141Y038430D01*
X019174Y038387D01*
X019203Y038342D01*
X019229Y038294D01*
X019252Y038245D01*
X019272Y038195D01*
X019288Y038144D01*
X019301Y038091D01*
X019310Y038038D01*
X019315Y037984D01*
X019317Y037930D01*
X018120Y038625D02*
X018072Y038595D01*
X018027Y038562D01*
X017984Y038526D01*
X017943Y038488D01*
X017906Y038446D01*
X017871Y038402D01*
X017840Y038356D01*
X017811Y038307D01*
X017787Y038257D01*
X017766Y038205D01*
X017748Y038151D01*
X017735Y038097D01*
X017725Y038042D01*
X017719Y037986D01*
X017717Y037930D01*
X017719Y037877D01*
X017724Y037823D01*
X017733Y037771D01*
X017745Y037719D01*
X017761Y037668D01*
X017780Y037618D01*
X017803Y037569D01*
X017829Y037522D01*
X017857Y037477D01*
X017889Y037434D01*
X017923Y037394D01*
X017961Y037355D01*
X018000Y037319D01*
X019029Y037315D02*
X019069Y037351D01*
X019107Y037390D01*
X019142Y037431D01*
X019174Y037474D01*
X019204Y037519D01*
X019230Y037566D01*
X019252Y037615D01*
X019272Y037666D01*
X019288Y037717D01*
X019301Y037769D01*
X019310Y037823D01*
X019315Y037876D01*
X019317Y037930D01*
X036946Y028031D02*
X036946Y017929D01*
X038088Y017929D01*
X038088Y028031D01*
X036946Y028031D01*
X038635Y028629D02*
X039777Y028629D01*
X039777Y034731D01*
X038635Y034731D01*
X038635Y028629D01*
X038088Y015431D02*
X036946Y015431D01*
X036946Y005329D01*
X038088Y005329D01*
X038088Y015431D01*
D19*
X035867Y013980D02*
X033167Y013980D01*
X033167Y006780D01*
X035867Y006780D01*
X035867Y009580D01*
X035867Y011180D02*
X035867Y011580D01*
X035867Y012180D02*
X035867Y013980D01*
X035867Y019330D02*
X033167Y019330D01*
X033167Y026530D01*
X035867Y026530D01*
X035867Y024730D01*
X035867Y024130D02*
X035867Y023730D01*
X035867Y022130D02*
X035867Y019330D01*
X034850Y029076D02*
X037550Y029076D01*
X037550Y030876D01*
X037550Y032476D02*
X037550Y034276D01*
X034850Y034276D01*
X034850Y029076D01*
X008367Y026780D02*
X008367Y019580D01*
X005667Y019580D01*
X005667Y021380D01*
X005667Y021980D02*
X005667Y022380D01*
X005667Y023980D02*
X005667Y026780D01*
X008367Y026780D01*
X005349Y030292D02*
X005174Y030292D01*
X004977Y030290D02*
X004633Y030290D01*
X005174Y030291D02*
X005179Y030340D01*
X005181Y030389D01*
X005179Y030438D01*
X005174Y030487D01*
X005172Y030514D01*
X005167Y030540D01*
X005158Y030565D01*
X005145Y030589D01*
X005130Y030611D01*
X005111Y030631D01*
X005091Y030648D01*
X005068Y030662D01*
X005043Y030673D01*
X005017Y030680D01*
X004990Y030684D01*
X004964Y030684D01*
X004937Y030680D01*
X004911Y030673D01*
X004886Y030662D01*
X004863Y030648D01*
X004843Y030631D01*
X004824Y030611D01*
X004809Y030589D01*
X004796Y030565D01*
X004787Y030540D01*
X004782Y030514D01*
X004780Y030487D01*
X004977Y030487D01*
X004977Y030290D01*
X005371Y030586D02*
X005369Y030625D01*
X005363Y030663D01*
X005354Y030700D01*
X005341Y030737D01*
X005324Y030772D01*
X005305Y030805D01*
X005282Y030836D01*
X005256Y030865D01*
X005227Y030891D01*
X005196Y030914D01*
X005163Y030933D01*
X005128Y030950D01*
X005091Y030963D01*
X005054Y030972D01*
X005016Y030978D01*
X004977Y030980D01*
X004938Y030978D01*
X004900Y030972D01*
X004863Y030963D01*
X004826Y030950D01*
X004791Y030933D01*
X004758Y030914D01*
X004727Y030891D01*
X004698Y030865D01*
X004672Y030836D01*
X004649Y030805D01*
X004630Y030772D01*
X004613Y030737D01*
X004600Y030700D01*
X004591Y030663D01*
X004585Y030625D01*
X004583Y030586D01*
X004584Y031078D02*
X004879Y031274D01*
X005027Y031422D02*
X005027Y031570D01*
X005174Y031570D01*
X005174Y031422D01*
X005172Y031407D01*
X005168Y031392D01*
X005160Y031379D01*
X005150Y031367D01*
X005137Y031358D01*
X005123Y031352D01*
X005108Y031348D01*
X005092Y031348D01*
X005077Y031352D01*
X005063Y031358D01*
X005050Y031367D01*
X005040Y031379D01*
X005032Y031392D01*
X005028Y031407D01*
X005026Y031422D01*
X004879Y031274D02*
X004881Y031244D01*
X004886Y031215D01*
X004895Y031187D01*
X004907Y031160D01*
X004923Y031134D01*
X004941Y031111D01*
X004962Y031090D01*
X004985Y031072D01*
X005011Y031056D01*
X005038Y031044D01*
X005066Y031035D01*
X005095Y031030D01*
X005125Y031028D01*
X005155Y031030D01*
X005184Y031035D01*
X005212Y031044D01*
X005239Y031056D01*
X005265Y031072D01*
X005288Y031090D01*
X005309Y031111D01*
X005327Y031134D01*
X005343Y031160D01*
X005355Y031187D01*
X005364Y031215D01*
X005369Y031244D01*
X005371Y031274D01*
X005371Y031816D01*
X004584Y031816D01*
X004584Y031570D01*
X004879Y031570D01*
X004584Y031373D01*
X004584Y031078D01*
X004584Y031914D02*
X004780Y031914D01*
X004780Y032357D01*
X004879Y032357D01*
X004879Y031914D01*
X005076Y031914D01*
X005076Y032357D01*
X005174Y032357D01*
X005174Y031914D01*
X005371Y031914D01*
X005371Y032603D01*
X004584Y032603D01*
X004584Y031914D01*
X004584Y032899D02*
X004584Y033194D01*
X004780Y032899D01*
X004583Y032899D02*
X004585Y032872D01*
X004590Y032846D01*
X004599Y032821D01*
X004612Y032797D01*
X004627Y032775D01*
X004646Y032755D01*
X004666Y032738D01*
X004689Y032724D01*
X004714Y032713D01*
X004740Y032706D01*
X004767Y032702D01*
X004793Y032702D01*
X004820Y032706D01*
X004846Y032713D01*
X004871Y032724D01*
X004894Y032738D01*
X004914Y032755D01*
X004933Y032775D01*
X004948Y032797D01*
X004961Y032821D01*
X004970Y032846D01*
X004975Y032872D01*
X004977Y032899D01*
X004780Y032899D02*
X004977Y033194D01*
X005174Y032899D01*
X004977Y032899D02*
X004979Y032872D01*
X004984Y032846D01*
X004993Y032821D01*
X005006Y032797D01*
X005021Y032775D01*
X005040Y032755D01*
X005060Y032738D01*
X005083Y032724D01*
X005108Y032713D01*
X005134Y032706D01*
X005161Y032702D01*
X005187Y032702D01*
X005214Y032706D01*
X005240Y032713D01*
X005265Y032724D01*
X005288Y032738D01*
X005308Y032755D01*
X005327Y032775D01*
X005342Y032797D01*
X005355Y032821D01*
X005364Y032846D01*
X005369Y032872D01*
X005371Y032899D01*
X005371Y033194D01*
X005174Y032899D01*
X004977Y033194D02*
X004584Y033194D01*
X004584Y033440D01*
X005371Y033440D01*
X005371Y033194D01*
X004977Y033194D01*
X004584Y030586D02*
X004586Y030526D01*
X004592Y030466D01*
X004602Y030407D01*
X004616Y030348D01*
X004633Y030291D01*
X005350Y030286D02*
X005361Y030360D01*
X005368Y030435D01*
X005372Y030510D01*
X005371Y030585D01*
X005667Y013980D02*
X005667Y011180D01*
X005667Y009580D02*
X005667Y009180D01*
X005667Y008580D02*
X005667Y006780D01*
X008367Y006780D01*
X008367Y013980D01*
X005667Y013980D01*
D20*
X004369Y030390D02*
X004369Y030490D01*
X004293Y030440D02*
X004293Y030390D01*
X004218Y030390D02*
X004369Y030390D01*
X004218Y030390D02*
X004218Y030490D01*
X004218Y030685D02*
X004369Y030685D01*
X004369Y030785D01*
X004369Y030980D02*
X004369Y031080D01*
X004293Y031030D02*
X004293Y030980D01*
X004218Y030980D02*
X004369Y030980D01*
X004218Y030980D02*
X004218Y031080D01*
X004243Y031274D02*
X004343Y031274D01*
X004369Y031299D01*
X004369Y031349D01*
X004343Y031374D01*
X004243Y031374D02*
X004218Y031349D01*
X004218Y031299D01*
X004243Y031274D01*
X004218Y031569D02*
X004218Y031669D01*
X004218Y031619D02*
X004369Y031619D01*
X004369Y031864D02*
X004218Y031864D01*
X004218Y031939D01*
X004243Y031964D01*
X004293Y031964D01*
X004318Y031939D01*
X004318Y031864D01*
X004318Y031914D02*
X004369Y031964D01*
X004343Y032158D02*
X004369Y032183D01*
X004369Y032233D01*
X004343Y032258D01*
X004243Y032258D01*
X004218Y032233D01*
X004218Y032183D01*
X004243Y032158D01*
X004343Y032158D01*
X004369Y032453D02*
X004218Y032453D01*
X004369Y032553D01*
X004218Y032553D01*
X004218Y032747D02*
X004218Y032798D01*
X004218Y032772D02*
X004369Y032772D01*
X004369Y032747D02*
X004369Y032798D01*
X004343Y032993D02*
X004369Y033018D01*
X004369Y033068D01*
X004343Y033093D01*
X004243Y033093D02*
X004218Y033068D01*
X004218Y033018D01*
X004243Y032993D01*
X004343Y032993D01*
X004343Y033288D02*
X004369Y033313D01*
X004369Y033363D01*
X004343Y033388D01*
X004318Y033388D01*
X004293Y033363D01*
X004293Y033313D01*
X004268Y033288D01*
X004243Y033288D01*
X004218Y033313D01*
X004218Y033363D01*
X004243Y033388D01*
D21*
X008347Y033680D03*
X008347Y032680D03*
X008347Y031680D03*
X008347Y030680D03*
X011187Y030680D03*
X011187Y031680D03*
X011187Y032680D03*
X011187Y033680D03*
X015847Y034180D03*
X015847Y036180D03*
X018687Y036180D03*
X018687Y034180D03*
X025847Y032680D03*
X025847Y031680D03*
X025847Y030680D03*
X025847Y029680D03*
X028687Y029680D03*
X028687Y030680D03*
X028687Y031680D03*
X028687Y032680D03*
X030847Y038180D03*
X033687Y038180D03*
X023437Y017430D03*
X023437Y016180D03*
X020597Y016180D03*
X020597Y017430D03*
D22*
X018267Y029760D03*
X018267Y032600D03*
M02*
