G75*
%MOIN*%
%OFA0B0*%
%FSLAX24Y24*%
%IPPOS*%
%LPD*%
%AMOC8*
5,1,8,0,0,1.08239X$1,22.5*
%
%ADD10C,0.0520*%
%ADD11OC8,0.0520*%
%ADD12C,0.0709*%
%ADD13OC8,0.0560*%
%ADD14C,0.0574*%
%ADD15OC8,0.0630*%
%ADD16C,0.0630*%
%ADD17C,0.0515*%
%ADD18C,0.0787*%
%ADD19OC8,0.0600*%
%ADD20C,0.0100*%
D10*
X009957Y005880D02*
X010477Y005880D01*
X010477Y006880D02*
X009957Y006880D01*
X009957Y007880D02*
X010477Y007880D01*
X010477Y008880D02*
X009957Y008880D01*
X009957Y009880D02*
X010477Y009880D01*
X010477Y010880D02*
X009957Y010880D01*
X009957Y011880D02*
X010477Y011880D01*
X010477Y012880D02*
X009957Y012880D01*
X009957Y013880D02*
X010477Y013880D01*
X010477Y014880D02*
X009957Y014880D01*
X012957Y014880D02*
X013477Y014880D01*
X013477Y013880D02*
X012957Y013880D01*
X012957Y012880D02*
X013477Y012880D01*
X013477Y011880D02*
X012957Y011880D01*
X012957Y010880D02*
X013477Y010880D01*
X013477Y009880D02*
X012957Y009880D01*
X012957Y008880D02*
X013477Y008880D01*
X013477Y007880D02*
X012957Y007880D01*
X012957Y006880D02*
X013477Y006880D01*
X013477Y005880D02*
X012957Y005880D01*
X014657Y006880D02*
X015177Y006880D01*
X015177Y007880D02*
X014657Y007880D01*
X014657Y008880D02*
X015177Y008880D01*
X015177Y009880D02*
X014657Y009880D01*
X014657Y010880D02*
X015177Y010880D01*
X015177Y011880D02*
X014657Y011880D01*
X014657Y012880D02*
X015177Y012880D01*
X015177Y013880D02*
X014657Y013880D01*
X017657Y013880D02*
X018177Y013880D01*
X018177Y012880D02*
X017657Y012880D01*
X017657Y011880D02*
X018177Y011880D01*
X018177Y010880D02*
X017657Y010880D01*
X017657Y009880D02*
X018177Y009880D01*
X018177Y008880D02*
X017657Y008880D01*
X017657Y007880D02*
X018177Y007880D01*
X018177Y006880D02*
X017657Y006880D01*
X019257Y006880D02*
X019777Y006880D01*
X019777Y007880D02*
X019257Y007880D01*
X019257Y008880D02*
X019777Y008880D01*
X019777Y009880D02*
X019257Y009880D01*
X019257Y010880D02*
X019777Y010880D01*
X019777Y011880D02*
X019257Y011880D01*
X019257Y012880D02*
X019777Y012880D01*
X019777Y013880D02*
X019257Y013880D01*
X022257Y013880D02*
X022777Y013880D01*
X023757Y013930D02*
X024277Y013930D01*
X024277Y012930D02*
X023757Y012930D01*
X023757Y011930D02*
X024277Y011930D01*
X024277Y010930D02*
X023757Y010930D01*
X022777Y010880D02*
X022257Y010880D01*
X022257Y009880D02*
X022777Y009880D01*
X023757Y009930D02*
X024277Y009930D01*
X024277Y008930D02*
X023757Y008930D01*
X022777Y008880D02*
X022257Y008880D01*
X022257Y007880D02*
X022777Y007880D01*
X022777Y006880D02*
X022257Y006880D01*
X023757Y006930D02*
X024277Y006930D01*
X024277Y007930D02*
X023757Y007930D01*
X025517Y008170D02*
X025517Y008690D01*
X026517Y008690D02*
X026517Y008170D01*
X027517Y008170D02*
X027517Y008690D01*
X028517Y008690D02*
X028517Y008170D01*
X029517Y008170D02*
X029517Y008690D01*
X030517Y008690D02*
X030517Y008170D01*
X031517Y008170D02*
X031517Y008690D01*
X031517Y011670D02*
X031517Y012190D01*
X030517Y012190D02*
X030517Y011670D01*
X029517Y011670D02*
X029517Y012190D01*
X028517Y012190D02*
X028517Y011670D01*
X027517Y011670D02*
X027517Y012190D01*
X026517Y012190D02*
X026517Y011670D01*
X025517Y011670D02*
X025517Y012190D01*
X025517Y014670D02*
X025517Y015190D01*
X026517Y015190D02*
X026517Y014670D01*
X027517Y014670D02*
X027517Y015190D01*
X028517Y015190D02*
X028517Y014670D01*
X029517Y014670D02*
X029517Y015190D01*
X030517Y015190D02*
X030517Y014670D01*
X031517Y014670D02*
X031517Y015190D01*
X031517Y017920D02*
X031517Y018440D01*
X030517Y018440D02*
X030517Y017920D01*
X029517Y017920D02*
X029517Y018440D01*
X028517Y018440D02*
X028517Y017920D01*
X027517Y017920D02*
X027517Y018440D01*
X026517Y018440D02*
X026517Y017920D01*
X025517Y017920D02*
X025517Y018440D01*
X024277Y018680D02*
X023757Y018680D01*
X023757Y019680D02*
X024277Y019680D01*
X024277Y020680D02*
X023757Y020680D01*
X023757Y021680D02*
X024277Y021680D01*
X024277Y022680D02*
X023757Y022680D01*
X023757Y023680D02*
X024277Y023680D01*
X024277Y024680D02*
X023757Y024680D01*
X022777Y024680D02*
X022257Y024680D01*
X022257Y023680D02*
X022777Y023680D01*
X022777Y022680D02*
X022257Y022680D01*
X022257Y021680D02*
X022777Y021680D01*
X022777Y020680D02*
X022257Y020680D01*
X022257Y019680D02*
X022777Y019680D01*
X019777Y019680D02*
X019257Y019680D01*
X019257Y020680D02*
X019777Y020680D01*
X019777Y021680D02*
X019257Y021680D01*
X019257Y022680D02*
X019777Y022680D01*
X019777Y023680D02*
X019257Y023680D01*
X019257Y024680D02*
X019777Y024680D01*
X019777Y025680D02*
X019257Y025680D01*
X019257Y026680D02*
X019777Y026680D01*
X018177Y026680D02*
X017657Y026680D01*
X017657Y025680D02*
X018177Y025680D01*
X018177Y024680D02*
X017657Y024680D01*
X017657Y023680D02*
X018177Y023680D01*
X018177Y022680D02*
X017657Y022680D01*
X017657Y021680D02*
X018177Y021680D01*
X018177Y020680D02*
X017657Y020680D01*
X017657Y019680D02*
X018177Y019680D01*
X015177Y019680D02*
X014657Y019680D01*
X014657Y020680D02*
X015177Y020680D01*
X015177Y021680D02*
X014657Y021680D01*
X014657Y022680D02*
X015177Y022680D01*
X015177Y023680D02*
X014657Y023680D01*
X014657Y024680D02*
X015177Y024680D01*
X015177Y025680D02*
X014657Y025680D01*
X014657Y026680D02*
X015177Y026680D01*
X013477Y026680D02*
X012957Y026680D01*
X012957Y025680D02*
X013477Y025680D01*
X013477Y024680D02*
X012957Y024680D01*
X012957Y023680D02*
X013477Y023680D01*
X013477Y022680D02*
X012957Y022680D01*
X012957Y021680D02*
X013477Y021680D01*
X013477Y020680D02*
X012957Y020680D01*
X012957Y019680D02*
X013477Y019680D01*
X013477Y018680D02*
X012957Y018680D01*
X010477Y018680D02*
X009957Y018680D01*
X009957Y019680D02*
X010477Y019680D01*
X010477Y020680D02*
X009957Y020680D01*
X009957Y021680D02*
X010477Y021680D01*
X010477Y022680D02*
X009957Y022680D01*
X009957Y023680D02*
X010477Y023680D01*
X010477Y024680D02*
X009957Y024680D01*
X009957Y025680D02*
X010477Y025680D01*
X010477Y026680D02*
X009957Y026680D01*
X009957Y027680D02*
X010477Y027680D01*
X012957Y027680D02*
X013477Y027680D01*
X013517Y029680D02*
X012997Y029680D01*
X012997Y030680D02*
X013517Y030680D01*
X013517Y031680D02*
X012997Y031680D01*
X012997Y032680D02*
X013517Y032680D01*
X016517Y032680D02*
X017037Y032680D01*
X017037Y031680D02*
X016517Y031680D01*
X016517Y030680D02*
X017037Y030680D01*
X017037Y029680D02*
X016517Y029680D01*
X020247Y029680D02*
X020767Y029680D01*
X020767Y030680D02*
X020247Y030680D01*
X020247Y031680D02*
X020767Y031680D01*
X020767Y032680D02*
X020247Y032680D01*
X020247Y035180D02*
X020767Y035180D01*
X020767Y036180D02*
X020247Y036180D01*
X020247Y037180D02*
X020767Y037180D01*
X020767Y038180D02*
X020247Y038180D01*
X023767Y038180D02*
X024287Y038180D01*
X025247Y038180D02*
X025767Y038180D01*
X025767Y037180D02*
X025247Y037180D01*
X025247Y036180D02*
X025767Y036180D01*
X025767Y035180D02*
X025247Y035180D01*
X024287Y035180D02*
X023767Y035180D01*
X023767Y036180D02*
X024287Y036180D01*
X024287Y037180D02*
X023767Y037180D01*
X023767Y032680D02*
X024287Y032680D01*
X024287Y031680D02*
X023767Y031680D01*
X023767Y030680D02*
X024287Y030680D01*
X024287Y029680D02*
X023767Y029680D01*
X025517Y027940D02*
X025517Y027420D01*
X026517Y027420D02*
X026517Y027940D01*
X027517Y027940D02*
X027517Y027420D01*
X028517Y027420D02*
X028517Y027940D01*
X029517Y027940D02*
X029517Y027420D01*
X030517Y027420D02*
X030517Y027940D01*
X031517Y027940D02*
X031517Y027420D01*
X030777Y029680D02*
X030257Y029680D01*
X030257Y030680D02*
X030777Y030680D01*
X030777Y031680D02*
X030257Y031680D01*
X030257Y032680D02*
X030777Y032680D01*
X030777Y033680D02*
X030257Y033680D01*
X030257Y034680D02*
X030777Y034680D01*
X030777Y035680D02*
X030257Y035680D01*
X029287Y035180D02*
X028767Y035180D01*
X028767Y036180D02*
X029287Y036180D01*
X029287Y037180D02*
X028767Y037180D01*
X028767Y038180D02*
X029287Y038180D01*
X033257Y035680D02*
X033777Y035680D01*
X033777Y034680D02*
X033257Y034680D01*
X033257Y033680D02*
X033777Y033680D01*
X033777Y032680D02*
X033257Y032680D01*
X033257Y031680D02*
X033777Y031680D01*
X033777Y030680D02*
X033257Y030680D01*
X033257Y029680D02*
X033777Y029680D01*
X031517Y024940D02*
X031517Y024420D01*
X030517Y024420D02*
X030517Y024940D01*
X029517Y024940D02*
X029517Y024420D01*
X028517Y024420D02*
X028517Y024940D01*
X027517Y024940D02*
X027517Y024420D01*
X026517Y024420D02*
X026517Y024940D01*
X025517Y024940D02*
X025517Y024420D01*
X024277Y025680D02*
X023757Y025680D01*
X023757Y026680D02*
X024277Y026680D01*
X022777Y026680D02*
X022257Y026680D01*
X022257Y025680D02*
X022777Y025680D01*
X025517Y021440D02*
X025517Y020920D01*
X026517Y020920D02*
X026517Y021440D01*
X027517Y021440D02*
X027517Y020920D01*
X028517Y020920D02*
X028517Y021440D01*
X029517Y021440D02*
X029517Y020920D01*
X030517Y020920D02*
X030517Y021440D01*
X031517Y021440D02*
X031517Y020920D01*
X022777Y012880D02*
X022257Y012880D01*
X022257Y011880D02*
X022777Y011880D01*
X023757Y005930D02*
X024277Y005930D01*
X025517Y005690D02*
X025517Y005170D01*
X026517Y005170D02*
X026517Y005690D01*
X027517Y005690D02*
X027517Y005170D01*
X028517Y005170D02*
X028517Y005690D01*
X029517Y005690D02*
X029517Y005170D01*
X030517Y005170D02*
X030517Y005690D01*
X031517Y005690D02*
X031517Y005170D01*
D11*
X030517Y004180D03*
X029517Y004180D03*
X027517Y004180D03*
X026517Y004180D03*
X021517Y005680D03*
X020517Y005680D03*
X016767Y005680D03*
X015767Y005680D03*
X012017Y004680D03*
X011017Y004680D03*
X015767Y015180D03*
X016767Y015180D03*
X016017Y016680D03*
X015017Y016680D03*
X015767Y018430D03*
X016767Y018430D03*
X017767Y016930D03*
X018517Y017430D03*
X018517Y016430D03*
X020017Y016180D03*
X020517Y015180D03*
X021517Y015180D03*
X020017Y017430D03*
X020517Y018430D03*
X021517Y018430D03*
X024017Y017430D03*
X025267Y017180D03*
X025267Y016180D03*
X026517Y016180D03*
X026517Y017180D03*
X027767Y017180D03*
X027767Y016180D03*
X029517Y016180D03*
X029517Y017180D03*
X030767Y017180D03*
X030767Y016180D03*
X030767Y010680D03*
X030767Y009680D03*
X029517Y009680D03*
X029517Y010680D03*
X027767Y010680D03*
X027767Y009680D03*
X026517Y009680D03*
X026517Y010680D03*
X024017Y016180D03*
X026267Y022430D03*
X026267Y023430D03*
X027517Y023430D03*
X027517Y022430D03*
X029267Y022430D03*
X029267Y023430D03*
X030517Y023430D03*
X030517Y022430D03*
X032767Y027680D03*
X033767Y027680D03*
X034767Y027680D03*
X035767Y027680D03*
X029267Y029680D03*
X029267Y030680D03*
X029267Y031680D03*
X029267Y032680D03*
X027767Y033930D03*
X026767Y033930D03*
X025267Y032680D03*
X025267Y031680D03*
X025267Y030680D03*
X025267Y029680D03*
X021767Y027930D03*
X020767Y027930D03*
X019267Y030680D03*
X019267Y031680D03*
X018267Y033180D03*
X019267Y034180D03*
X017767Y035180D03*
X016767Y035180D03*
X015267Y034180D03*
X014017Y034680D03*
X013517Y033930D03*
X013017Y034680D03*
X011767Y033680D03*
X011767Y032680D03*
X011767Y031680D03*
X011767Y030680D03*
X010267Y029680D03*
X009267Y029680D03*
X007767Y030680D03*
X007767Y031680D03*
X007767Y032680D03*
X007767Y033680D03*
X009517Y037180D03*
X009517Y038180D03*
X011017Y038430D03*
X011017Y037430D03*
X013267Y036180D03*
X014267Y036180D03*
X015267Y036180D03*
X018517Y037430D03*
X018517Y038430D03*
X019267Y036180D03*
X021767Y033930D03*
X022767Y033930D03*
X018267Y029180D03*
X017017Y027680D03*
X016017Y027680D03*
X012267Y017430D03*
X011267Y017430D03*
X009767Y017430D03*
X009767Y016430D03*
X011267Y016180D03*
X012267Y016180D03*
X031517Y036930D03*
X032517Y036930D03*
X034267Y038180D03*
X034767Y036430D03*
X034767Y035430D03*
X030267Y038180D03*
D12*
X004071Y005880D02*
X003362Y005880D01*
X003362Y006880D02*
X004071Y006880D01*
X004071Y007880D02*
X003362Y007880D01*
X003362Y008880D02*
X004071Y008880D01*
X004071Y009880D02*
X003362Y009880D01*
X003362Y010880D02*
X004071Y010880D01*
X004071Y011880D02*
X003362Y011880D01*
X003362Y012880D02*
X004071Y012880D01*
X004071Y013880D02*
X003362Y013880D01*
X003362Y014880D02*
X004071Y014880D01*
X004071Y018680D02*
X003362Y018680D01*
X003362Y019680D02*
X004071Y019680D01*
X004071Y020680D02*
X003362Y020680D01*
X003362Y021680D02*
X004071Y021680D01*
X004071Y022680D02*
X003362Y022680D01*
X003362Y023680D02*
X004071Y023680D01*
X004071Y024680D02*
X003362Y024680D01*
X003362Y025680D02*
X004071Y025680D01*
X004071Y026680D02*
X003362Y026680D01*
X003362Y027680D02*
X004071Y027680D01*
X037162Y027480D02*
X037871Y027480D01*
X037871Y026480D02*
X037162Y026480D01*
X037162Y025480D02*
X037871Y025480D01*
X037871Y024480D02*
X037162Y024480D01*
X037162Y023480D02*
X037871Y023480D01*
X037871Y022480D02*
X037162Y022480D01*
X037162Y021480D02*
X037871Y021480D01*
X037871Y020480D02*
X037162Y020480D01*
X037162Y019480D02*
X037871Y019480D01*
X037871Y018480D02*
X037162Y018480D01*
X037162Y014880D02*
X037871Y014880D01*
X037871Y013880D02*
X037162Y013880D01*
X037162Y012880D02*
X037871Y012880D01*
X037871Y011880D02*
X037162Y011880D01*
X037162Y010880D02*
X037871Y010880D01*
X037871Y009880D02*
X037162Y009880D01*
X037162Y008880D02*
X037871Y008880D01*
X037871Y007880D02*
X037162Y007880D01*
X037162Y006880D02*
X037871Y006880D01*
X037871Y005880D02*
X037162Y005880D01*
X038851Y029180D02*
X039560Y029180D01*
X039560Y030180D02*
X038851Y030180D01*
X038851Y031180D02*
X039560Y031180D01*
X039560Y032180D02*
X038851Y032180D01*
X038851Y033180D02*
X039560Y033180D01*
X039560Y034180D02*
X038851Y034180D01*
D13*
X036700Y032676D03*
X036700Y031676D03*
X036700Y030676D03*
X035700Y030676D03*
X035700Y031676D03*
X035700Y032676D03*
X035017Y024930D03*
X035017Y023930D03*
X035017Y022930D03*
X035017Y021930D03*
X035017Y020930D03*
X034017Y020930D03*
X034017Y021930D03*
X034017Y022930D03*
X034017Y023930D03*
X034017Y024930D03*
X034017Y012380D03*
X034017Y011380D03*
X035017Y011380D03*
X035017Y012380D03*
X035017Y010380D03*
X035017Y009380D03*
X035017Y008380D03*
X034017Y008380D03*
X034017Y009380D03*
X034017Y010380D03*
X007517Y010380D03*
X007517Y009380D03*
X006517Y009380D03*
X006517Y010380D03*
X006517Y011380D03*
X007517Y011380D03*
X007517Y012380D03*
X006517Y012380D03*
X006517Y008380D03*
X007517Y008380D03*
X007517Y021180D03*
X007517Y022180D03*
X006517Y022180D03*
X006517Y021180D03*
X006517Y023180D03*
X007517Y023180D03*
X007517Y024180D03*
X006517Y024180D03*
X006517Y025180D03*
X007517Y025180D03*
D14*
X006371Y030552D02*
X005797Y030552D01*
X005797Y031536D02*
X006371Y031536D01*
X006371Y032324D02*
X005797Y032324D01*
X005797Y033308D02*
X006371Y033308D01*
D15*
X007967Y037430D03*
D16*
X006567Y037430D03*
D17*
X013267Y037430D03*
X014267Y037430D03*
X015267Y037430D03*
X016267Y037430D03*
D18*
X002507Y032922D03*
X002507Y030922D03*
D19*
X008017Y027930D03*
X010017Y035430D03*
D20*
X010017Y037680D01*
X010767Y038430D01*
X011017Y038430D01*
X010017Y037680D02*
X009517Y038180D01*
X013017Y035930D02*
X013267Y036180D01*
X013017Y035930D02*
X013017Y034680D01*
X011767Y033680D02*
X010267Y032180D01*
X010267Y029680D01*
X011767Y031680D02*
X012198Y032112D01*
X014463Y032112D01*
X014678Y031896D01*
X015908Y033126D01*
X016848Y033126D01*
X019757Y036034D01*
X019757Y036318D01*
X020618Y037180D01*
X020767Y037180D01*
X021767Y037180D02*
X021767Y033930D01*
X021767Y033680D01*
X020767Y032680D01*
X021767Y031680D01*
X021767Y027930D01*
X021767Y027430D01*
X022517Y026680D01*
X021448Y026249D02*
X020767Y026930D01*
X019517Y025680D01*
X018825Y025371D02*
X019517Y024680D01*
X018825Y025371D02*
X018825Y029130D01*
X019730Y030035D01*
X019730Y030771D01*
X020638Y031680D01*
X020767Y031680D01*
X021207Y031848D02*
X020875Y032180D01*
X020129Y032180D01*
X019812Y032497D01*
X019812Y034225D01*
X020767Y035180D01*
X019267Y036180D02*
X018517Y036930D01*
X018517Y037430D01*
X017767Y035930D02*
X017767Y035180D01*
X017767Y035930D02*
X016267Y037430D01*
X015267Y037430D02*
X015267Y036180D01*
X014267Y036180D02*
X014267Y037430D01*
X018267Y033180D02*
X019267Y032180D01*
X019267Y031680D01*
X019267Y030680D02*
X019267Y030180D01*
X018267Y029180D01*
X016517Y028522D02*
X016517Y026080D01*
X017917Y024680D01*
X017917Y023680D02*
X016017Y025580D01*
X016017Y027680D01*
X015777Y026819D02*
X015777Y024842D01*
X017481Y023138D01*
X019059Y023138D01*
X019517Y022680D01*
X021017Y021180D01*
X021017Y020296D01*
X023883Y017430D01*
X024017Y017430D01*
X024460Y016987D01*
X024460Y015985D01*
X023623Y015149D01*
X022917Y015149D01*
X021017Y013248D01*
X021017Y011380D01*
X019517Y009880D01*
X018607Y009570D02*
X018607Y010970D01*
X019517Y011880D01*
X018803Y012594D01*
X018803Y014960D01*
X019207Y015364D01*
X019207Y019113D01*
X018717Y019602D01*
X018717Y020880D01*
X017917Y021680D01*
X017227Y021990D02*
X017227Y018095D01*
X018517Y016805D01*
X018517Y016430D01*
X018966Y016140D02*
X017220Y014393D01*
X017220Y012577D01*
X017917Y011880D01*
X017917Y010880D02*
X015904Y012893D01*
X015904Y015180D01*
X015767Y015180D01*
X015904Y015180D02*
X016767Y016043D01*
X016767Y018430D01*
X016267Y017930D02*
X015017Y016680D01*
X016267Y017930D02*
X016267Y021923D01*
X017481Y023138D01*
X017917Y022680D02*
X017227Y021990D01*
X019517Y021680D02*
X020214Y020983D01*
X020214Y019088D01*
X019517Y018391D01*
X019517Y013880D01*
X020517Y013880D02*
X019517Y012880D01*
X020517Y013880D02*
X020517Y015180D01*
X020517Y015680D01*
X020017Y016180D01*
X020517Y016680D01*
X020517Y018430D01*
X021517Y018430D02*
X021517Y015180D01*
X022517Y013880D02*
X023290Y013107D01*
X023290Y011782D01*
X023642Y011430D01*
X024767Y011430D01*
X026517Y009680D01*
X026517Y010680D02*
X026517Y011930D01*
X026816Y012630D02*
X027517Y011930D01*
X026816Y012630D02*
X024717Y012630D01*
X024017Y011930D01*
X024017Y012930D02*
X029517Y012930D01*
X031517Y014930D01*
X032443Y015621D02*
X030208Y015621D01*
X029517Y014930D01*
X028517Y014930D02*
X027517Y013930D01*
X024017Y013930D01*
X025517Y014930D02*
X025704Y015117D01*
X025704Y016743D01*
X025267Y017180D01*
X025267Y017430D01*
X024017Y018680D01*
X025517Y020180D01*
X025517Y021180D01*
X025517Y023312D01*
X025949Y023744D01*
X025949Y025816D01*
X025517Y026249D01*
X025517Y027680D01*
X025517Y026249D02*
X021448Y026249D01*
X020767Y026930D02*
X020767Y027930D01*
X020767Y029680D01*
X021207Y030120D01*
X021207Y031848D01*
X022767Y033930D02*
X022767Y036789D01*
X023595Y037618D01*
X025329Y037618D01*
X025767Y037180D01*
X024767Y036341D02*
X023928Y037180D01*
X023767Y037180D01*
X024767Y036341D02*
X024767Y033180D01*
X025267Y032680D01*
X026767Y033930D02*
X026767Y031180D01*
X028720Y029227D01*
X030064Y029227D01*
X030517Y029680D01*
X032075Y028371D02*
X032767Y027680D01*
X032075Y028371D02*
X028208Y028371D01*
X027517Y027680D01*
X029517Y027680D02*
X031017Y026180D01*
X031017Y024301D01*
X031388Y023930D01*
X034017Y023930D01*
X034517Y024430D01*
X035599Y024430D01*
X036649Y025480D01*
X037517Y025480D01*
X035017Y021930D02*
X036467Y020480D01*
X037517Y020480D01*
X037192Y019804D02*
X037517Y019480D01*
X037192Y019804D02*
X034017Y019804D01*
X034017Y020930D01*
X034517Y021430D02*
X032935Y021430D01*
X030835Y019330D01*
X029667Y019330D01*
X028517Y018180D01*
X027954Y017367D02*
X027954Y022430D01*
X029267Y022430D01*
X029267Y023430D02*
X029517Y023680D01*
X029517Y024680D01*
X027954Y022856D02*
X027517Y023293D01*
X027517Y023430D01*
X027517Y023293D02*
X027130Y023293D01*
X026267Y022430D01*
X026267Y023430D02*
X026517Y023680D01*
X026517Y024680D01*
X027954Y022856D02*
X027954Y022430D01*
X027517Y022430D02*
X027517Y021180D01*
X030517Y021180D02*
X030517Y022430D01*
X031517Y024680D02*
X033767Y026930D01*
X033767Y027680D01*
X033517Y029680D02*
X033017Y030180D01*
X029134Y030180D01*
X028818Y030495D01*
X028818Y033982D01*
X030517Y035680D01*
X030517Y037930D01*
X030267Y038180D01*
X028767Y036180D02*
X028333Y035746D01*
X028333Y030614D01*
X029267Y029680D01*
X029267Y030680D02*
X029799Y031212D01*
X033049Y031212D01*
X033517Y031680D01*
X033517Y032680D02*
X034976Y031221D01*
X036245Y031221D01*
X036700Y031676D01*
X037157Y031133D02*
X039110Y029180D01*
X039206Y029180D01*
X037157Y031133D02*
X037157Y033040D01*
X034767Y035430D01*
X033517Y035680D02*
X033517Y035930D01*
X032517Y036930D01*
X030517Y033680D02*
X031017Y033180D01*
X034196Y033180D01*
X035700Y031676D01*
X036700Y030676D02*
X037157Y031133D01*
X035017Y021930D02*
X034517Y021430D01*
X034017Y019804D02*
X030948Y016735D01*
X026347Y016735D01*
X025517Y017566D01*
X025517Y018180D01*
X026517Y018180D02*
X026517Y017180D01*
X027767Y017180D02*
X027954Y017367D01*
X027767Y016180D02*
X027517Y015930D01*
X027517Y014930D01*
X029517Y017180D02*
X029517Y018180D01*
X030767Y017180D02*
X031517Y017930D01*
X031517Y018180D01*
X032443Y015621D02*
X035660Y012404D01*
X035660Y012372D01*
X035168Y011880D01*
X034517Y011880D01*
X034017Y011380D01*
X035017Y010380D02*
X034517Y009880D01*
X033868Y009880D01*
X031720Y007732D01*
X027214Y007732D01*
X026517Y008430D01*
X025517Y008430D02*
X025517Y007430D01*
X024017Y005930D01*
X024017Y006930D02*
X023637Y007310D01*
X022117Y007310D01*
X021547Y007880D01*
X019517Y007880D01*
X019142Y007380D02*
X018787Y007736D01*
X018787Y007898D01*
X018356Y008328D01*
X017224Y008328D01*
X017224Y010187D01*
X017917Y010880D01*
X018607Y009570D02*
X017917Y008880D01*
X017224Y008328D02*
X015767Y006870D01*
X015757Y006880D01*
X014917Y006880D01*
X015767Y006870D02*
X015767Y005680D01*
X016330Y005243D02*
X011180Y005243D01*
X011017Y005080D01*
X010217Y005880D01*
X011017Y005080D02*
X011017Y004680D01*
X009217Y005880D02*
X010217Y006880D01*
X010217Y007880D02*
X009167Y008930D01*
X006967Y008930D01*
X006517Y009380D01*
X007017Y009880D02*
X003717Y009880D01*
X003717Y012880D02*
X005017Y012880D01*
X006517Y011380D01*
X007017Y011880D01*
X007669Y011880D01*
X008774Y012984D01*
X008774Y013341D01*
X009750Y014318D01*
X012779Y014318D01*
X013217Y013880D01*
X011267Y016180D02*
X011267Y017430D01*
X012267Y017430D02*
X012267Y017730D01*
X010317Y019680D01*
X010217Y019680D01*
X010217Y018680D02*
X010017Y018680D01*
X007517Y021180D01*
X006967Y021730D02*
X009167Y021730D01*
X010217Y020680D01*
X010717Y021180D02*
X014417Y021180D01*
X014917Y020680D01*
X013217Y021680D02*
X014067Y022530D01*
X014067Y022830D01*
X014917Y023680D01*
X013217Y026680D02*
X012779Y027118D01*
X009765Y027118D01*
X008997Y026349D01*
X008997Y026024D01*
X007653Y024680D01*
X007017Y024680D01*
X006517Y024180D01*
X005017Y025680D01*
X003717Y025680D01*
X003717Y027680D02*
X006084Y027680D01*
X006084Y030552D01*
X007767Y030680D02*
X007767Y031680D01*
X007767Y032680D01*
X008017Y027930D02*
X006925Y026838D01*
X006084Y027680D01*
X006925Y026838D02*
X006517Y026430D01*
X006517Y025180D01*
X007517Y024180D02*
X010017Y026680D01*
X010217Y026680D01*
X013947Y028650D02*
X015777Y026819D01*
X017017Y027580D02*
X017017Y027680D01*
X017017Y027580D02*
X017917Y026680D01*
X016517Y028522D02*
X014678Y030361D01*
X014678Y031896D01*
X013947Y031250D02*
X013947Y028650D01*
X013947Y031250D02*
X013517Y031680D01*
X020767Y038180D02*
X021767Y037180D01*
X026767Y031180D02*
X025267Y029680D01*
X024017Y023680D02*
X023517Y023680D01*
X022517Y022680D01*
X018966Y018630D02*
X018966Y016140D01*
X018966Y018630D02*
X017917Y019680D01*
X013217Y018680D02*
X012267Y017730D01*
X009767Y016430D02*
X008217Y014880D01*
X006517Y014880D01*
X003717Y014880D01*
X006517Y014880D02*
X006517Y012380D01*
X007517Y011380D02*
X010017Y013880D01*
X010217Y013880D01*
X007517Y010380D02*
X007017Y009880D01*
X010217Y008880D02*
X010717Y008380D01*
X014417Y008380D01*
X014917Y007880D01*
X013217Y008880D02*
X014067Y009730D01*
X014067Y010030D01*
X014917Y010880D01*
X017917Y007880D02*
X016767Y006730D01*
X016767Y005680D01*
X016330Y005243D01*
X019142Y007380D02*
X019917Y007380D01*
X021517Y005780D01*
X021517Y005680D01*
X024697Y009250D02*
X027697Y009250D01*
X028517Y008430D01*
X028767Y009680D02*
X027767Y010680D01*
X028767Y009680D02*
X029517Y009680D01*
X029517Y010680D02*
X029517Y011930D01*
X030767Y009680D02*
X030517Y009430D01*
X030517Y008430D01*
X031343Y006360D02*
X029447Y006360D01*
X028517Y005430D01*
X029517Y005430D02*
X029517Y004180D01*
X030517Y004180D02*
X031517Y005180D01*
X031517Y005430D01*
X031343Y006360D02*
X033863Y008880D01*
X035017Y008880D01*
X035017Y009380D01*
X035017Y008880D02*
X035517Y008880D01*
X036517Y007880D01*
X037517Y007880D01*
X037517Y006880D02*
X035517Y006880D01*
X034017Y008380D01*
X035660Y012404D02*
X036135Y012880D01*
X037517Y012880D01*
X037517Y014880D02*
X037517Y018480D01*
X024697Y009250D02*
X024017Y009930D01*
X026517Y005430D02*
X026517Y004180D01*
X010717Y021180D02*
X010217Y021680D01*
X006967Y021730D02*
X006517Y022180D01*
X009217Y005880D02*
X003717Y005880D01*
M02*
