%
M48
M72
T01C0.0315
T02C0.0320
T03C0.0360
T04C0.0374
T05C0.0400
T06C0.0472
T07C0.0512
T08C0.0906
T09C0.1260
%
T01
X13267Y37430
X14267Y37430
X15267Y37430
X16267Y37430
T02
X15267Y36180
X14267Y36180
X13267Y36180
X13017Y34680
X13517Y33930
X14017Y34680
X15267Y34180
X16767Y35180
X17767Y35180
X19267Y34180
X18267Y33180
X19267Y31680
X19267Y30680
X18267Y29180
X16517Y29680
X16517Y30680
X16517Y31680
X16517Y32680
X13517Y32680
X13517Y31680
X13517Y30680
X13517Y29680
X11767Y30680
X11767Y31680
X11767Y32680
X11767Y33680
X9517Y37180
X9517Y38180
X11017Y38430
X11017Y37430
X7967Y37430
X6567Y37430
X7767Y33680
X7767Y32680
X7767Y31680
X7767Y30680
X9267Y29680
X10267Y29680
X10217Y27680
X10217Y26680
X10217Y25680
X10217Y24680
X10217Y23680
X10217Y22680
X10217Y21680
X10217Y20680
X10217Y19680
X10217Y18680
X9767Y17430
X9767Y16430
X11267Y16180
X12267Y16180
X13217Y14880
X13217Y13880
X13217Y12880
X13217Y11880
X13217Y10880
X13217Y9880
X13217Y8880
X13217Y7880
X13217Y6880
X13217Y5880
X12017Y4680
X11017Y4680
X10217Y5880
X10217Y6880
X10217Y7880
X10217Y8880
X10217Y9880
X10217Y10880
X10217Y11880
X10217Y12880
X10217Y13880
X10217Y14880
X11267Y17430
X12267Y17430
X13217Y18680
X13217Y19680
X13217Y20680
X13217Y21680
X13217Y22680
X13217Y23680
X13217Y24680
X13217Y25680
X13217Y26680
X13217Y27680
X14917Y26680
X14917Y25680
X14917Y24680
X14917Y23680
X14917Y22680
X14917Y21680
X14917Y20680
X14917Y19680
X15767Y18430
X16767Y18430
X17917Y19680
X17917Y20680
X17917Y21680
X17917Y22680
X17917Y23680
X17917Y24680
X17917Y25680
X17917Y26680
X17017Y27680
X16017Y27680
X19517Y26680
X19517Y25680
X19517Y24680
X19517Y23680
X19517Y22680
X19517Y21680
X19517Y20680
X19517Y19680
X20517Y18430
X21517Y18430
X22517Y19680
X22517Y20680
X22517Y21680
X22517Y22680
X22517Y23680
X22517Y24680
X22517Y25680
X22517Y26680
X21767Y27930
X20767Y27930
X20767Y29680
X20767Y30680
X20767Y31680
X20767Y32680
X21767Y33930
X22767Y33930
X23767Y32680
X23767Y31680
X23767Y30680
X23767Y29680
X25267Y29680
X25267Y30680
X25267Y31680
X25267Y32680
X26767Y33930
X27767Y33930
X28767Y35180
X28767Y36180
X28767Y37180
X28767Y38180
X30267Y38180
X31517Y36930
X32517Y36930
X33517Y35680
X33517Y34680
X33517Y33680
X33517Y32680
X33517Y31680
X33517Y30680
X33517Y29680
X33767Y27680
X32767Y27680
X31517Y27680
X30517Y27680
X29517Y27680
X28517Y27680
X27517Y27680
X26517Y27680
X25517Y27680
X24017Y26680
X24017Y25680
X24017Y24680
X24017Y23680
X24017Y22680
X24017Y21680
X24017Y20680
X24017Y19680
X24017Y18680
X24017Y17430
X25267Y17180
X25517Y18180
X26517Y18180
X27517Y18180
X27767Y17180
X28517Y18180
X29517Y18180
X29517Y17180
X29517Y16180
X30767Y16180
X30767Y17180
X30517Y18180
X31517Y18180
X31517Y21180
X30517Y21180
X29517Y21180
X28517Y21180
X27517Y21180
X26517Y21180
X25517Y21180
X26267Y22430
X26267Y23430
X27517Y23430
X27517Y22430
X29267Y22430
X29267Y23430
X29517Y24680
X28517Y24680
X27517Y24680
X26517Y24680
X25517Y24680
X30517Y24680
X31517Y24680
X30517Y23430
X30517Y22430
X26517Y17180
X26517Y16180
X27767Y16180
X27517Y14930
X26517Y14930
X25517Y14930
X25267Y16180
X24017Y16180
X24017Y13930
X24017Y12930
X24017Y11930
X24017Y10930
X24017Y9930
X24017Y8930
X24017Y7930
X24017Y6930
X24017Y5930
X25517Y5430
X26517Y5430
X27517Y5430
X28517Y5430
X29517Y5430
X30517Y5430
X31517Y5430
X30517Y4180
X29517Y4180
X27517Y4180
X26517Y4180
X26517Y8430
X27517Y8430
X28517Y8430
X29517Y8430
X30517Y8430
X31517Y8430
X30767Y9680
X30767Y10680
X29517Y10680
X29517Y9680
X27767Y9680
X27767Y10680
X26517Y10680
X26517Y9680
X25517Y8430
X22517Y8880
X22517Y7880
X22517Y6880
X21517Y5680
X20517Y5680
X19517Y6880
X19517Y7880
X19517Y8880
X19517Y9880
X19517Y10880
X19517Y11880
X19517Y12880
X19517Y13880
X17917Y13880
X17917Y12880
X17917Y11880
X17917Y10880
X17917Y9880
X17917Y8880
X17917Y7880
X17917Y6880
X16767Y5680
X15767Y5680
X14917Y6880
X14917Y7880
X14917Y8880
X14917Y9880
X14917Y10880
X14917Y11880
X14917Y12880
X14917Y13880
X15767Y15180
X16767Y15180
X16017Y16680
X15017Y16680
X17767Y16930
X18517Y17430
X18517Y16430
X20017Y16180
X20517Y15180
X21517Y15180
X22517Y13880
X22517Y12880
X22517Y11880
X22517Y10880
X22517Y9880
X25517Y11930
X26517Y11930
X27517Y11930
X28517Y11930
X29517Y11930
X30517Y11930
X31517Y11930
X31517Y14930
X30517Y14930
X29517Y14930
X28517Y14930
X20017Y17430
X29267Y29680
X29267Y30680
X29267Y31680
X29267Y32680
X30517Y32680
X30517Y31680
X30517Y30680
X30517Y29680
X30517Y33680
X30517Y34680
X30517Y35680
X34267Y38180
X34767Y36430
X34767Y35430
X34767Y27680
X35767Y27680
X25767Y35180
X25767Y36180
X25767Y37180
X25767Y38180
X23767Y38180
X23767Y37180
X23767Y36180
X23767Y35180
X20767Y35180
X20767Y36180
X20767Y37180
X20767Y38180
X19267Y36180
X18517Y37430
X18517Y38430
T03
X7517Y25180
X6517Y25180
X6517Y24180
X7517Y24180
X7517Y23180
X6517Y23180
X6517Y22180
X7517Y22180
X7517Y21180
X6517Y21180
X6517Y12380
X7517Y12380
X7517Y11380
X6517Y11380
X6517Y10380
X7517Y10380
X7517Y9380
X6517Y9380
X6517Y8380
X7517Y8380
X34017Y8380
X35017Y8380
X35017Y9380
X35017Y10380
X35017Y11380
X35017Y12380
X34017Y12380
X34017Y11380
X34017Y10380
X34017Y9380
X34017Y20930
X35017Y20930
X35017Y21930
X35017Y22930
X35017Y23930
X35017Y24930
X34017Y24930
X34017Y23930
X34017Y22930
X34017Y21930
X35700Y30676
X36700Y30676
X36700Y31676
X36700Y32676
X35700Y32676
X35700Y31676
T04
X6084Y31536
X6084Y32324
X6084Y33308
X6084Y30552
T05
X8017Y27930
X10017Y35430
T06
X3717Y27680
X3717Y26680
X3717Y25680
X3717Y24680
X3717Y23680
X3717Y22680
X3717Y21680
X3717Y20680
X3717Y19680
X3717Y18680
X3717Y14880
X3717Y13880
X3717Y12880
X3717Y11880
X3717Y10880
X3717Y9880
X3717Y8880
X3717Y7880
X3717Y6880
X3717Y5880
X37517Y5880
X37517Y6880
X37517Y7880
X37517Y8880
X37517Y9880
X37517Y10880
X37517Y11880
X37517Y12880
X37517Y13880
X37517Y14880
X37517Y18480
X37517Y19480
X37517Y20480
X37517Y21480
X37517Y22480
X37517Y23480
X37517Y24480
X37517Y25480
X37517Y26480
X37517Y27480
X39206Y29180
X39206Y30180
X39206Y31180
X39206Y32180
X39206Y33180
X39206Y34180
T07
X2507Y32922
X2507Y30922
T08
X5017Y29343
X5017Y34517
T09
X3773Y2936
X37631Y2936
X37631Y36794
X3773Y36794
M30
